<?xml version="1.0" encoding="UTF-8"?>
<svg xmlns="http://www.w3.org/2000/svg" width="1920" height="1520" viewBox="0 0 1920 1520">
 <defs>
  <linearGradient id="bg" x1="0" y1="0" x2="0" y2="1">
   <stop offset="0%" stop-color="#0a1628"/>
   <stop offset="100%" stop-color="#061018"/>
  </linearGradient>
  <marker id="arrow" markerWidth="10" markerHeight="8" refX="9" refY="4" orient="auto">
   <polygon points="0 0, 10 4, 0 8" fill="#7dd3fc"/>
  </marker>
  <marker id="arrow-purple" markerWidth="10" markerHeight="8" refX="9" refY="4" orient="auto">
   <polygon points="0 0, 10 4, 0 8" fill="#a78bfa"/>
  </marker>
  <marker id="arrow-cyan" markerWidth="10" markerHeight="8" refX="9" refY="4" orient="auto">
   <polygon points="0 0, 10 4, 0 8" fill="#22d3ee"/>
  </marker>
  <marker id="arrow-orange" markerWidth="10" markerHeight="8" refX="9" refY="4" orient="auto">
   <polygon points="0 0, 10 4, 0 8" fill="#fb923c"/>
  </marker>
 </defs>

 <rect width="1920" height="1520" fill="url(#bg)"/>
 <g opacity="0.06" stroke="#1e3a5f" stroke-width="1">
  <path d="M0 40 H1920 M0 80 H1920 M0 120 H1920 M0 160 H1920 M0 200 H1920 M0 240 H1920 M0 280 H1920 M0 320 H1920 M0 360 H1920 M0 400 H1920 M0 440 H1920 M0 480 H1920 M0 520 H1920 M0 560 H1920 M0 600 H1920 M0 640 H1920 M0 720 H1920 M0 880 H1920 M0 960 H1920 M0 1040 H1920 M0 1120 H1920 M0 1200 H1920 M0 1280 H1920 M0 1360 H1920 M0 1440 H1920"/>
 </g>

 <!-- title -->
 <text x="960" y="48" text-anchor="middle" fill="#e2e8f0" font-family="JetBrains Mono, monospace" font-size="32" font-weight="700">Composable Kernel Architecture</text>
 <text x="960" y="76" text-anchor="middle" fill="#94a3b8" font-family="JetBrains Mono, monospace" font-size="14">AMD tile-based GPU kernel template library - github.com/ROCm/composable_kernel - ROCm CUTLASS-equivalent</text>

 <!-- L1 Workloads -->
 <rect x="60" y="96" width="1800" height="100" rx="12" fill="#0f2744" stroke="#a78bfa" stroke-width="2"/>
 <text x="88" y="124" fill="#a78bfa" font-family="JetBrains Mono, monospace" font-size="16" font-weight="700">L1 - Downstream Integration + Workloads (kernel generator for ML ops on AMD GPUs - inference + training)</text>
 <g font-family="JetBrains Mono, monospace" font-size="12" fill="#e2e8f0">
  <rect x="88" y="136" width="50" height="40" rx="6" fill="#431407" stroke="#fb923c"/><text x="113" y="162" text-anchor="middle">PyTorch</text>
  <rect x="150" y="136" width="40" height="40" rx="6" fill="#422006" stroke="#fbbf24"/><text x="170" y="162" text-anchor="middle">vLLM</text>
  <rect x="202" y="136" width="50" height="40" rx="6" fill="#450a0a" stroke="#ef4444"/><text x="227" y="162" text-anchor="middle">MIOpen</text>
  <rect x="264" y="136" width="40" height="40" rx="6" fill="#450a0a" stroke="#ef4444"/><text x="284" y="162" text-anchor="middle">AITER</text>
  <rect x="316" y="136" width="50" height="40" rx="6" fill="#241a3d" stroke="#a78bfa"/><text x="341" y="162" text-anchor="middle">hipBLASLt</text>
  <rect x="378" y="136" width="50" height="40" rx="6" fill="#422006" stroke="#fbbf24"/><text x="403" y="162" text-anchor="middle">SGLang</text>
  <rect x="440" y="136" width="40" height="40" rx="6" fill="#422006" stroke="#fbbf24"/><text x="460" y="162" text-anchor="middle">LLM</text>
  <rect x="492" y="136" width="40" height="40" rx="6" fill="#422006" stroke="#fbbf24"/><text x="512" y="162" text-anchor="middle">MoE</text>
  <rect x="544" y="136" width="40" height="40" rx="6" fill="#241a3d" stroke="#a78bfa"/><text x="564" y="162" text-anchor="middle">GEMM</text>
  <rect x="596" y="136" width="40" height="40" rx="6" fill="#241a3d" stroke="#a78bfa"/><text x="616" y="162" text-anchor="middle">Conv</text>
  <rect x="648" y="136" width="40" height="40" rx="6" fill="#241a3d" stroke="#a78bfa"/><text x="668" y="162" text-anchor="middle">FMHA</text>
  <rect x="700" y="136" width="50" height="40" rx="6" fill="#422006" stroke="#fbbf24"/><text x="725" y="162" text-anchor="middle">Train</text>
  <rect x="762" y="136" width="50" height="40" rx="6" fill="#422006" stroke="#fbbf24"/><text x="787" y="162" text-anchor="middle">Infer</text>
  <rect x="824" y="136" width="50" height="40" rx="6" fill="#132f4c" stroke="#22d3ee"/><text x="849" y="162" text-anchor="middle">BF16</text>
  <rect x="886" y="136" width="50" height="40" rx="6" fill="#132f4c" stroke="#22d3ee"/><text x="911" y="162" text-anchor="middle">FP16</text>
  <rect x="948" y="136" width="40" height="40" rx="6" fill="#132f4c" stroke="#22d3ee"/><text x="968" y="162" text-anchor="middle">FP8</text>
  <rect x="1000" y="136" width="40" height="40" rx="6" fill="#132f4c" stroke="#22d3ee"/><text x="1020" y="162" text-anchor="middle">INT4</text>
  <rect x="1052" y="136" width="50" height="40" rx="6" fill="#134e4a" stroke="#5eead4"/><text x="1077" y="162" text-anchor="middle">MI300X</text>
  <rect x="1114" y="136" width="50" height="40" rx="6" fill="#134e4a" stroke="#5eead4"/><text x="1139" y="162" text-anchor="middle">MI250</text>
  <rect x="1176" y="136" width="50" height="40" rx="6" fill="#134e4a" stroke="#5eead4"/><text x="1201" y="162" text-anchor="middle">MI350</text>
  <rect x="1238" y="136" width="50" height="40" rx="6" fill="#134e4a" stroke="#5eead4"/><text x="1263" y="162" text-anchor="middle">gfx942</text>
  <rect x="1300" y="136" width="50" height="40" rx="6" fill="#134e4a" stroke="#5eead4"/><text x="1325" y="162" text-anchor="middle">gfx908</text>
  <rect x="1362" y="136" width="50" height="40" rx="6" fill="#134e4a" stroke="#5eead4"/><text x="1387" y="162" text-anchor="middle">gfx90a</text>
  <rect x="1424" y="136" width="50" height="40" rx="6" fill="#134e4a" stroke="#5eead4"/><text x="1449" y="162" text-anchor="middle">ROCm</text>
  <rect x="1486" y="136" width="40" height="40" rx="6" fill="#134e4a" stroke="#5eead4"/><text x="1506" y="162" text-anchor="middle">HIP</text>
  <rect x="1538" y="136" width="50" height="40" rx="6" fill="#450a0a" stroke="#ef4444"/><text x="1563" y="162" text-anchor="middle">AMD</text>
  <rect x="1600" y="136" width="50" height="40" rx="6" fill="#241a3d" stroke="#a78bfa"/><text x="1625" y="162" text-anchor="middle">MIT</text>
  <rect x="1662" y="136" width="50" height="40" rx="6" fill="#241a3d" stroke="#a78bfa"/><text x="1687" y="162" text-anchor="middle">rocm-7</text>
  <rect x="1724" y="136" width="24" height="40" rx="6" fill="#241a3d" stroke="#a78bfa"/><text x="1736" y="162" text-anchor="middle">.2</text>
  <rect x="1760" y="136" width="24" height="40" rx="6" fill="#241a3d" stroke="#a78bfa"/><text x="1772" y="162" text-anchor="middle">.4</text>
  <rect x="1796" y="136" width="50" height="40" rx="6" fill="#422006" stroke="#fbbf24"/><text x="1821" y="162" text-anchor="middle">rocm-libs</text>
 </g>
 <line x1="960" y1="196" x2="960" y2="214" stroke="#7dd3fc" stroke-width="2" marker-end="url(#arrow)"/>

 <!-- L2 Programming Model -->
 <rect x="60" y="216" width="1800" height="120" rx="12" fill="#0f2744" stroke="#a78bfa" stroke-width="2"/>
 <text x="88" y="244" fill="#a78bfa" font-family="JetBrains Mono, monospace" font-size="16" font-weight="700">L2 - Tile-Based Programming Model (tensor coordinate transform - four template layers - CK + CK-Tile)</text>
 <rect x="88" y="258" width="340" height="64" rx="10" fill="#241a3d" stroke="#a78bfa" stroke-width="2"/>
 <text x="258" y="282" text-anchor="middle" fill="#ede9fe" font-family="JetBrains Mono, monospace" font-size="13" font-weight="700">Tile Operators</text>
 <text x="258" y="300" text-anchor="middle" fill="#c4b5fd" font-family="JetBrains Mono, monospace" font-size="10">Composable templated tile-level compute primitives</text>
 <text x="258" y="314" text-anchor="middle" fill="#c4b5fd" font-family="JetBrains Mono, monospace" font-size="10">Block/warp/pipeline abstractions in ck_tile</text>
 <rect x="448" y="258" width="340" height="64" rx="10" fill="#241a3d" stroke="#818cf8" stroke-width="2"/>
 <text x="618" y="282" text-anchor="middle" fill="#e0e7ff" font-family="JetBrains Mono, monospace" font-size="13" font-weight="700">Kernel + Invoker Templates</text>
 <text x="618" y="300" text-anchor="middle" fill="#c7d2fe" font-family="JetBrains Mono, monospace" font-size="10">Parameterized kernel templates with invoker glue</text>
 <text x="618" y="314" text-anchor="middle" fill="#c7d2fe" font-family="JetBrains Mono, monospace" font-size="10">Pipeline mainloop + epilogue composition</text>
 <rect x="808" y="258" width="340" height="64" rx="10" fill="#422006" stroke="#fbbf24" stroke-width="2"/>
 <text x="978" y="282" text-anchor="middle" fill="#fef3c7" font-family="JetBrains Mono, monospace" font-size="13" font-weight="700">Instantiated Instances</text>
 <text x="978" y="300" text-anchor="middle" fill="#fde68a" font-family="JetBrains Mono, monospace" font-size="10">Thousands of pre-built template specializations</text>
 <text x="978" y="314" text-anchor="middle" fill="#fde68a" font-family="JetBrains Mono, monospace" font-size="10">codegen/ + library/ device instance objects</text>
 <rect x="1168" y="258" width="340" height="64" rx="10" fill="#132f4c" stroke="#22d3ee" stroke-width="2"/>
 <text x="1338" y="282" text-anchor="middle" fill="#e0f2fe" font-family="JetBrains Mono, monospace" font-size="13" font-weight="700">Client API + Factory</text>
 <text x="1338" y="300" text-anchor="middle" fill="#7dd3fc" font-family="JetBrains Mono, monospace" font-size="10">Instance factory selects best kernel for problem</text>
 <text x="1338" y="314" text-anchor="middle" fill="#7dd3fc" font-family="JetBrains Mono, monospace" font-size="10">client_example/ pre-built library usage path</text>
 <rect x="1528" y="258" width="300" height="64" rx="10" fill="#134e4a" stroke="#5eead4" stroke-width="2"/>
 <text x="1678" y="282" text-anchor="middle" fill="#ccfbf1" font-family="JetBrains Mono, monospace" font-size="13" font-weight="700">Coord Transform</text>
 <text x="1678" y="300" text-anchor="middle" fill="#99f6e4" font-family="JetBrains Mono, monospace" font-size="10">P Y X R D coordinate spaces at compile time</text>
 <text x="1678" y="314" text-anchor="middle" fill="#99f6e4" font-family="JetBrains Mono, monospace" font-size="10">Complexity reduction for conv/softmax/MoE</text>
 <line x1="960" y1="336" x2="960" y2="354" stroke="#7dd3fc" stroke-width="2" marker-end="url(#arrow)"/>

 <!-- L3 Operator Surface -->
 <rect x="60" y="356" width="1800" height="200" rx="12" fill="#0f2744" stroke="#22d3ee" stroke-width="2.5"/>
 <text x="88" y="384" fill="#22d3ee" font-family="JetBrains Mono, monospace" font-size="16" font-weight="700">L3 - Operator Surface (classic CK + CK-Tile ops - include/ck/ and include/ck_tile/ops/)</text>

 <rect x="88" y="400" width="420" height="136" rx="12" fill="#241a3d" stroke="#a78bfa" stroke-width="2"/>
 <text x="298" y="428" text-anchor="middle" fill="#ede9fe" font-family="JetBrains Mono, monospace" font-size="15" font-weight="700">Classic CK (include/ck/)</text>
 <text x="298" y="450" text-anchor="middle" fill="#c4b5fd" font-family="JetBrains Mono, monospace" font-size="10">GEMM universal batched grouped multi-d</text>
 <text x="298" y="468" text-anchor="middle" fill="#c4b5fd" font-family="JetBrains Mono, monospace" font-size="10">Grouped Conv Fwd BwdData BwdWeight</text>
 <text x="298" y="486" text-anchor="middle" fill="#c4b5fd" font-family="JetBrains Mono, monospace" font-size="10">gemm_xdl gemm_wmma gemm_dl instances</text>
 <text x="298" y="504" text-anchor="middle" fill="#c4b5fd" font-family="JetBrains Mono, monospace" font-size="10">Split-K Stream-K epilogue fusion options</text>
 <text x="298" y="522" text-anchor="middle" fill="#c4b5fd" font-family="JetBrains Mono, monospace" font-size="10">DTYPES: fp64 fp32 tf32 fp16 bf16 fp8 int8</text>

 <rect x="528" y="400" width="420" height="136" rx="12" fill="#241a3d" stroke="#818cf8" stroke-width="2"/>
 <text x="738" y="428" text-anchor="middle" fill="#e0e7ff" font-family="JetBrains Mono, monospace" font-size="15" font-weight="700">CK-Tile GEMM + Conv</text>
 <text x="738" y="450" text-anchor="middle" fill="#c7d2fe" font-family="JetBrains Mono, monospace" font-size="10">Block/warp tile GEMM with modular pipeline</text>
 <text x="738" y="468" text-anchor="middle" fill="#c7d2fe" font-family="JetBrains Mono, monospace" font-size="10">Batched grouped multi-d flatmm preshuffled</text>
 <text x="738" y="486" text-anchor="middle" fill="#c7d2fe" font-family="JetBrains Mono, monospace" font-size="10">im2col conv via tensor descriptor transform</text>
 <text x="738" y="504" text-anchor="middle" fill="#c7d2fe" font-family="JetBrains Mono, monospace" font-size="10">Split-K preshuffled-B inference optimization</text>
 <text x="738" y="522" text-anchor="middle" fill="#c7d2fe" font-family="JetBrains Mono, monospace" font-size="10">fp16 bf16 fp8 bf8 int4 precision modes</text>

 <rect x="968" y="400" width="420" height="136" rx="12" fill="#450a0a" stroke="#ef4444" stroke-width="2"/>
 <text x="1178" y="428" text-anchor="middle" fill="#fecaca" font-family="JetBrains Mono, monospace" font-size="15" font-weight="700">CK-Tile Attention + MoE</text>
 <text x="1178" y="450" text-anchor="middle" fill="#fca5a5" font-family="JetBrains Mono, monospace" font-size="10">FMHA fused multi-head attention + masking</text>
 <text x="1178" y="468" text-anchor="middle" fill="#fca5a5" font-family="JetBrains Mono, monospace" font-size="10">Fused MoE: sort group-GEMM act weighting</text>
 <text x="1178" y="486" text-anchor="middle" fill="#fca5a5" font-family="JetBrains Mono, monospace" font-size="10">TopK-Softmax MoE gating + smoothquant</text>
 <text x="1178" y="504" text-anchor="middle" fill="#fca5a5" font-family="JetBrains Mono, monospace" font-size="10">FlashAttention-style ~100 lines CK-Tile code</text>
 <text x="1178" y="522" text-anchor="middle" fill="#fca5a5" font-family="JetBrains Mono, monospace" font-size="10">Quantized FMHA epilogue fusion support</text>

 <rect x="1408" y="400" width="420" height="136" rx="12" fill="#422006" stroke="#fbbf24" stroke-width="2"/>
 <text x="1618" y="428" text-anchor="middle" fill="#fef3c7" font-family="JetBrains Mono, monospace" font-size="15" font-weight="700">Norm + Utility Ops</text>
 <text x="1618" y="450" text-anchor="middle" fill="#fde68a" font-family="JetBrains Mono, monospace" font-size="10">RMSNorm2D LayerNorm2D fused residual add</text>
 <text x="1618" y="468" text-anchor="middle" fill="#fde68a" font-family="JetBrains Mono, monospace" font-size="10">Add+RMSNorm+RDQuant smoothquant fusion</text>
 <text x="1618" y="486" text-anchor="middle" fill="#fde68a" font-family="JetBrains Mono, monospace" font-size="10">Reduce permute transpose copy elementwise</text>
 <text x="1618" y="504" text-anchor="middle" fill="#fde68a" font-family="JetBrains Mono, monospace" font-size="10">TileDistribution TileWindow distributed_tensor</text>
 <text x="1618" y="522" text-anchor="middle" fill="#fde68a" font-family="JetBrains Mono, monospace" font-size="10">ck wrapper component for tensor transforms</text>

 <line x1="960" y1="556" x2="960" y2="574" stroke="#7dd3fc" stroke-width="2" marker-end="url(#arrow)"/>

 <!-- L4 Instance Selection Pipeline -->
 <rect x="60" y="576" width="1800" height="120" rx="12" fill="#0f2744" stroke="#a78bfa" stroke-width="2"/>
 <text x="88" y="604" fill="#a78bfa" font-family="JetBrains Mono, monospace" font-size="16" font-weight="700">L4 - Instance Selection Pipeline (problem shape - factory lookup - invoker args - HIP kernel launch)</text>
 <rect x="88" y="618" width="340" height="64" rx="10" fill="#132f4c" stroke="#22d3ee" stroke-width="2"/>
 <text x="258" y="642" text-anchor="middle" fill="#e0f2fe" font-family="JetBrains Mono, monospace" font-size="13" font-weight="700">1. Problem Descriptor</text>
 <text x="258" y="660" text-anchor="middle" fill="#7dd3fc" font-family="JetBrains Mono, monospace" font-size="10">M N K layouts dtypes strides padding mask</text>
 <text x="258" y="674" text-anchor="middle" fill="#7dd3fc" font-family="JetBrains Mono, monospace" font-size="10">Tensor descriptors encode memory layout</text>
 <rect x="448" y="618" width="340" height="64" rx="10" fill="#422006" stroke="#fbbf24" stroke-width="2"/>
 <text x="618" y="642" text-anchor="middle" fill="#fef3c7" font-family="JetBrains Mono, monospace" font-size="13" font-weight="700">2. Instance Factory</text>
 <text x="618" y="660" text-anchor="middle" fill="#fde68a" font-family="JetBrains Mono, monospace" font-size="10">Search pre-built instances for matching config</text>
 <text x="618" y="674" text-anchor="middle" fill="#fde68a" font-family="JetBrains Mono, monospace" font-size="10">dispatcher/ + ckProfiler benchmark fallback</text>
 <rect x="808" y="618" width="340" height="64" rx="10" fill="#241a3d" stroke="#a78bfa" stroke-width="2"/>
 <text x="978" y="642" text-anchor="middle" fill="#ede9fe" font-family="JetBrains Mono, monospace" font-size="13" font-weight="700">3. Invoker Setup</text>
 <text x="978" y="660" text-anchor="middle" fill="#c4b5fd" font-family="JetBrains Mono, monospace" font-size="10">Bind device pointers workspace args scalars</text>
 <text x="978" y="674" text-anchor="middle" fill="#c4b5fd" font-family="JetBrains Mono, monospace" font-size="10">Invoker runs selected kernel instance</text>
 <rect x="1168" y="618" width="340" height="64" rx="10" fill="#134e4a" stroke="#5eead4" stroke-width="2"/>
 <text x="1338" y="642" text-anchor="middle" fill="#ccfbf1" font-family="JetBrains Mono, monospace" font-size="13" font-weight="700">4. Tile Execution</text>
 <text x="1338" y="660" text-anchor="middle" fill="#99f6e4" font-family="JetBrains Mono, monospace" font-size="10">HBM to LDS to VGPR ping-pong pipeline</text>
 <text x="1338" y="674" text-anchor="middle" fill="#99f6e4" font-family="JetBrains Mono, monospace" font-size="10">TileWindow load_tile store_tile on stream</text>
 <rect x="1528" y="618" width="300" height="64" rx="10" fill="#450a0a" stroke="#ef4444" stroke-width="2"/>
 <text x="1678" y="642" text-anchor="middle" fill="#fecaca" font-family="JetBrains Mono, monospace" font-size="13" font-weight="700">5. MFMA Compute</text>
 <text x="1678" y="660" text-anchor="middle" fill="#fca5a5" font-family="JetBrains Mono, monospace" font-size="10">XDL MFMA on CDNA matrix cores gfx942</text>
 <text x="1678" y="674" text-anchor="middle" fill="#fca5a5" font-family="JetBrains Mono, monospace" font-size="10">Epilogue write C tile back to global mem</text>
 <line x1="960" y1="696" x2="960" y2="714" stroke="#7dd3fc" stroke-width="2" marker-end="url(#arrow)"/>

 <!-- L5 Hardware Backends -->
 <rect x="60" y="716" width="1800" height="120" rx="12" fill="#0f2744" stroke="#22d3ee" stroke-width="2"/>
 <text x="88" y="744" fill="#22d3ee" font-family="JetBrains Mono, monospace" font-size="16" font-weight="700">L5 - Hardware Instance Families (XDL MFMA - WMMA - DL/DPP - LDS pipelining - arch-specific tiles)</text>
 <rect x="88" y="758" width="280" height="64" rx="10" fill="#450a0a" stroke="#ef4444" stroke-width="2"/>
 <text x="228" y="782" text-anchor="middle" fill="#fecaca" font-family="JetBrains Mono, monospace" font-size="12" font-weight="700">XDL / MFMA (CDNA)</text>
 <text x="228" y="800" text-anchor="middle" fill="#fca5a5" font-family="JetBrains Mono, monospace" font-size="10">gemm_xdl instances for MI300 gfx942</text>
 <text x="228" y="814" text-anchor="middle" fill="#fca5a5" font-family="JetBrains Mono, monospace" font-size="10">Primary peak perf path on Instinct GPUs</text>
 <rect x="388" y="758" width="280" height="64" rx="10" fill="#422006" stroke="#fbbf24" stroke-width="2"/>
 <text x="528" y="782" text-anchor="middle" fill="#fef3c7" font-family="JetBrains Mono, monospace" font-size="12" font-weight="700">WMMA (RDNA)</text>
 <text x="528" y="800" text-anchor="middle" fill="#fde68a" font-family="JetBrains Mono, monospace" font-size="10">gemm_wmma for consumer GPU targets</text>
 <text x="528" y="814" text-anchor="middle" fill="#fde68a" font-family="JetBrains Mono, monospace" font-size="10">gfx1100 gfx1151 Windows HIP builds</text>
 <rect x="688" y="758" width="280" height="64" rx="10" fill="#132f4c" stroke="#22d3ee" stroke-width="2"/>
 <text x="828" y="782" text-anchor="middle" fill="#e0f2fe" font-family="JetBrains Mono, monospace" font-size="12" font-weight="700">DL / DPP (NAVI)</text>
 <text x="828" y="800" text-anchor="middle" fill="#7dd3fc" font-family="JetBrains Mono, monospace" font-size="10">gemm_dl gemm_dpp fallback instances</text>
 <text x="828" y="814" text-anchor="middle" fill="#7dd3fc" font-family="JetBrains Mono, monospace" font-size="10">DISABLE_DL/DPP_KERNELS to skip on CDNA</text>
 <rect x="988" y="758" width="280" height="64" rx="10" fill="#134e4a" stroke="#5eead4" stroke-width="2"/>
 <text x="1128" y="782" text-anchor="middle" fill="#ccfbf1" font-family="JetBrains Mono, monospace" font-size="12" font-weight="700">LDS Pipeline</text>
 <text x="1128" y="800" text-anchor="middle" fill="#99f6e4" font-family="JetBrains Mono, monospace" font-size="10">Ping-pong buffering HBM-LDS-VGPR stages</text>
 <text x="1128" y="814" text-anchor="middle" fill="#99f6e4" font-family="JetBrains Mono, monospace" font-size="10">Bank conflict avoidance index swapping</text>
 <rect x="1288" y="758" width="280" height="64" rx="10" fill="#241a3d" stroke="#a78bfa" stroke-width="2"/>
 <text x="1428" y="782" text-anchor="middle" fill="#ede9fe" font-family="JetBrains Mono, monospace" font-size="12" font-weight="700">Preshuffled GEMM</text>
 <text x="1428" y="800" text-anchor="middle" fill="#c4b5fd" font-family="JetBrains Mono, monospace" font-size="10">Weight pre-shuffle to warp MFMA layout</text>
 <text x="1428" y="814" text-anchor="middle" fill="#c4b5fd" font-family="JetBrains Mono, monospace" font-size="10">Inference-optimized bypass shared mem path</text>
 <rect x="1588" y="758" width="240" height="64" rx="10" fill="#422006" stroke="#fbbf24" stroke-width="2"/>
 <text x="1708" y="782" text-anchor="middle" fill="#fef3c7" font-family="JetBrains Mono, monospace" font-size="12" font-weight="700">Split-K / Stream-K</text>
 <text x="1708" y="800" text-anchor="middle" fill="#fde68a" font-family="JetBrains Mono, monospace" font-size="10">K-dim parallelization for small M/N</text>
 <text x="1708" y="814" text-anchor="middle" fill="#fde68a" font-family="JetBrains Mono, monospace" font-size="10">gemm_universal_streamk instances</text>
 <line x1="960" y1="836" x2="960" y2="854" stroke="#7dd3fc" stroke-width="2" marker-end="url(#arrow)"/>

 <!-- L6 Package -->
 <rect x="60" y="856" width="1800" height="56" rx="12" fill="#0f2744" stroke="#a78bfa" stroke-width="2"/>
 <text x="88" y="884" fill="#a78bfa" font-family="JetBrains Mono, monospace" font-size="16" font-weight="700">L6 - Source Package Layout (include/ck + ck_tile - library/ codegen/ - moved to ROCm/rocm-libraries monorepo)</text>
 <g font-family="JetBrains Mono, monospace" font-size="11" fill="#e0f2fe">
  <rect x="88" y="892" width="40" height="24" rx="5" fill="#241a3d" stroke="#a78bfa"/><text x="108" y="909" text-anchor="middle">ck/</text>
  <rect x="138" y="892" width="50" height="24" rx="5" fill="#241a3d" stroke="#818cf8"/><text x="163" y="909" text-anchor="middle">ck_tile/</text>
  <rect x="198" y="892" width="50" height="24" rx="5" fill="#132f4c" stroke="#22d3ee"/><text x="223" y="909" text-anchor="middle">library/</text>
  <rect x="258" y="892" width="50" height="24" rx="5" fill="#422006" stroke="#fbbf24"/><text x="283" y="909" text-anchor="middle">codegen/</text>
  <rect x="318" y="892" width="50" height="24" rx="5" fill="#422006" stroke="#fbbf24"/><text x="343" y="909" text-anchor="middle">dispatcher</text>
  <rect x="378" y="892" width="50" height="24" rx="5" fill="#431407" stroke="#fb923c"/><text x="403" y="909" text-anchor="middle">profiler/</text>
  <rect x="438" y="892" width="50" height="24" rx="5" fill="#241a3d" stroke="#818cf8"/><text x="463" y="909" text-anchor="middle">tile_eng</text>
  <rect x="498" y="892" width="50" height="24" rx="5" fill="#132f4c" stroke="#22d3ee"/><text x="523" y="909" text-anchor="middle">example/</text>
  <rect x="558" y="892" width="50" height="24" rx="5" fill="#132f4c" stroke="#22d3ee"/><text x="583" y="909" text-anchor="middle">client_ex</text>
  <rect x="618" y="892" width="40" height="24" rx="5" fill="#431407" stroke="#fb923c"/><text x="638" y="909" text-anchor="middle">test/</text>
  <rect x="668" y="892" width="50" height="24" rx="5" fill="#431407" stroke="#fb923c"/><text x="693" y="909" text-anchor="middle">python/</text>
  <rect x="728" y="892" width="50" height="24" rx="5" fill="#431407" stroke="#fb923c"/><text x="753" y="909" text-anchor="middle">rocm_ck/</text>
  <rect x="788" y="892" width="50" height="24" rx="5" fill="#134e4a" stroke="#5eead4"/><text x="813" y="909" text-anchor="middle">CMake</text>
  <rect x="848" y="892" width="50" height="24" rx="5" fill="#134e4a" stroke="#5eead4"/><text x="873" y="909" text-anchor="middle">hipcc</text>
  <rect x="908" y="892" width="50" height="24" rx="5" fill="#134e4a" stroke="#5eead4"/><text x="933" y="909" text-anchor="middle">GPU_TGT</text>
  <rect x="968" y="892" width="50" height="24" rx="5" fill="#422006" stroke="#fbbf24"/><text x="993" y="909" text-anchor="middle">sccache</text>
  <rect x="1028" y="892" width="50" height="24" rx="5" fill="#450a0a" stroke="#ef4444"/><text x="1053" y="909" text-anchor="middle">MIOpen</text>
  <rect x="1088" y="892" width="40" height="24" rx="5" fill="#450a0a" stroke="#ef4444"/><text x="1108" y="909" text-anchor="middle">AITER</text>
  <rect x="1138" y="892" width="50" height="24" rx="5" fill="#241a3d" stroke="#a78bfa"/><text x="1163" y="909" text-anchor="middle">hipBLASLt</text>
  <rect x="1198" y="892" width="50" height="24" rx="5" fill="#1a2e05" stroke="#76b900"/><text x="1223" y="909" text-anchor="middle">CUTLASS</text>
  <rect x="1258" y="892" width="50" height="24" rx="5" fill="#134e4a" stroke="#5eead4"/><text x="1283" y="909" text-anchor="middle">ROCm</text>
  <rect x="1318" y="892" width="50" height="24" rx="5" fill="#134e4a" stroke="#5eead4"/><text x="1343" y="909" text-anchor="middle">rocm-libs</text>
  <rect x="1378" y="892" width="50" height="24" rx="5" fill="#450a0a" stroke="#ef4444"/><text x="1403" y="909" text-anchor="middle">AMD</text>
  <rect x="1438" y="892" width="50" height="24" rx="5" fill="#241a3d" stroke="#a78bfa"/><text x="1463" y="909" text-anchor="middle">MIT</text>
  <rect x="1498" y="892" width="50" height="24" rx="5" fill="#241a3d" stroke="#a78bfa"/><text x="1523" y="909" text-anchor="middle">v1.2.0</text>
  <rect x="1558" y="892" width="50" height="24" rx="5" fill="#422006" stroke="#fbbf24"/><text x="1583" y="909" text-anchor="middle">mirror</text>
  <rect x="1618" y="892" width="50" height="24" rx="5" fill="#450a0a" stroke="#ef4444"/><text x="1643" y="909" text-anchor="middle">xdl</text>
  <rect x="1678" y="892" width="50" height="24" rx="5" fill="#422006" stroke="#fbbf24"/><text x="1703" y="909" text-anchor="middle">wmma</text>
  <rect x="1738" y="892" width="50" height="24" rx="5" fill="#431407" stroke="#fb923c"/><text x="1763" y="909" text-anchor="middle">docs/</text>
 </g>

 <!-- DETAIL Block GEMM path -->
 <rect x="60" y="928" width="880" height="340" rx="14" fill="#0c1524" stroke="#a78bfa" stroke-width="2.5"/>
 <text x="88" y="960" fill="#a78bfa" font-family="JetBrains Mono, monospace" font-size="17" font-weight="700">Block GEMM Execution Path (MI300 CDNA3 - HBM to LDS to MFMA pipeline)</text>
 <text x="88" y="982" fill="#c4b5fd" font-family="JetBrains Mono, monospace" font-size="11">Client API instance factory - gemm_xdl - tile-based ping-pong - 256x reduction in HBM traffic vs naive</text>

 <rect x="88" y="998" width="820" height="36" rx="6" fill="#132f4c" stroke="#22d3ee"/>
 <text x="498" y="1022" text-anchor="middle" fill="#e0f2fe" font-family="JetBrains Mono, monospace" font-size="11" font-weight="700">Step 1: Client passes M N K dtype layout - instance factory picks gemm_xdl_fp16 config</text>
 <line x1="498" y1="1034" x2="498" y2="1046" stroke="#22d3ee" stroke-width="1.5" marker-end="url(#arrow-cyan)"/>
 <rect x="88" y="1048" width="820" height="36" rx="6" fill="#422006" stroke="#fbbf24"/>
 <text x="498" y="1072" text-anchor="middle" fill="#fef3c7" font-family="JetBrains Mono, monospace" font-size="11" font-weight="700">Step 2: Invoker binds A B C device ptrs + tensor descriptors - launch grid over M/N tiles</text>
 <line x1="498" y1="1084" x2="498" y2="1096" stroke="#fbbf24" stroke-width="1.5" marker-end="url(#arrow-purple)"/>
 <rect x="88" y="1098" width="820" height="36" rx="6" fill="#241a3d" stroke="#a78bfa"/>
 <text x="498" y="1122" text-anchor="middle" fill="#ede9fe" font-family="JetBrains Mono, monospace" font-size="11" font-weight="700">Step 3: Block tile loads A/B tiles from HBM into LDS - ping-pong double buffering pipeline</text>
 <line x1="498" y1="1134" x2="498" y2="1146" stroke="#a78bfa" stroke-width="1.5"/>
 <rect x="88" y="1148" width="820" height="36" rx="6" fill="#450a0a" stroke="#ef4444"/>
 <text x="498" y="1172" text-anchor="middle" fill="#fecaca" font-family="JetBrains Mono, monospace" font-size="11" font-weight="700">Step 4: Warp MFMA on CDNA matrix cores - TileDistribution maps P Y X to thread lanes</text>
 <line x1="498" y1="1184" x2="498" y2="1196" stroke="#ef4444" stroke-width="1.5" marker-end="url(#arrow-cyan)"/>
 <rect x="88" y="1198" width="820" height="36" rx="6" fill="#134e4a" stroke="#5eead4"/>
 <text x="498" y="1222" text-anchor="middle" fill="#ccfbf1" font-family="JetBrains Mono, monospace" font-size="11" font-weight="700">Step 5: Epilogue store_tile writes C block - preshuffled-B path skips LDS for inference weights</text>
 <line x1="498" y1="1234" x2="498" y2="1246" stroke="#5eead4" stroke-width="1.5"/>
 <rect x="88" y="1248" width="820" height="28" rx="6" fill="#241a3d" stroke="#818cf8"/>
 <text x="498" y="1268" text-anchor="middle" fill="#e0e7ff" font-family="JetBrains Mono, monospace" font-size="11" font-weight="700">CK-Tile FMHA: masking + quant epilogue fusion in ~100 lines - powers vLLM FlashAttn on ROCm</text>

 <text x="88" y="1294" fill="#64748b" font-family="JetBrains Mono, monospace" font-size="10">Build: cmake -D GPU_TARGETS=gfx942 - make -j install - ckProfiler benchmarks all instances</text>
 <text x="88" y="1310" fill="#64748b" font-family="JetBrains Mono, monospace" font-size="10">DTYPES cmake flag limits build: fp64 fp32 tf32 fp16 fp8 bf16 int8 - sccache for fast rebuild</text>

 <!-- DETAIL Position -->
 <rect x="960" y="928" width="900" height="340" rx="14" fill="#0c1224" stroke="#a78bfa" stroke-width="2.5"/>
 <text x="988" y="960" fill="#a78bfa" font-family="JetBrains Mono, monospace" font-size="17" font-weight="700">Five Design Pillars + Ecosystem Position</text>
 <text x="988" y="982" fill="#c4b5fd" font-family="JetBrains Mono, monospace" font-size="11">AMD ROCm kernel template layer - CUTLASS-equivalent - consumed by MIOpen AITER hipBLASLt vLLM</text>

 <text x="988" y="1006" fill="#94a3b8" font-family="JetBrains Mono, monospace" font-size="11" font-weight="700">Five Pillars</text>
 <rect x="988" y="1016" width="130" height="48" rx="6" fill="#241a3d" stroke="#a78bfa"/>
 <text x="1053" y="1038" text-anchor="middle" fill="#ede9fe" font-family="JetBrains Mono, monospace" font-size="10" font-weight="700">Tile Model</text>
 <text x="1053" y="1054" text-anchor="middle" fill="#c4b5fd" font-family="JetBrains Mono, monospace" font-size="9">Block/warp tiles not threads</text>
 <rect x="1130" y="1016" width="130" height="48" rx="6" fill="#134e4a" stroke="#5eead4"/>
 <text x="1195" y="1038" text-anchor="middle" fill="#ccfbf1" font-family="JetBrains Mono, monospace" font-size="10" font-weight="700">Coord Transform</text>
 <text x="1195" y="1054" text-anchor="middle" fill="#99f6e4" font-family="JetBrains Mono, monospace" font-size="9">P Y X R D spaces</text>
 <rect x="1272" y="1016" width="130" height="48" rx="6" fill="#422006" stroke="#fbbf24"/>
 <text x="1337" y="1038" text-anchor="middle" fill="#fef3c7" font-family="JetBrains Mono, monospace" font-size="10" font-weight="700">4-Layer Stack</text>
 <text x="1337" y="1054" text-anchor="middle" fill="#fde68a" font-family="JetBrains Mono, monospace" font-size="9">Tile to Client API</text>
 <rect x="1414" y="1016" width="130" height="48" rx="6" fill="#422006" stroke="#fbbf24"/>
 <text x="1479" y="1038" text-anchor="middle" fill="#fef3c7" font-family="JetBrains Mono, monospace" font-size="10" font-weight="700">Instance Lib</text>
 <text x="1479" y="1054" text-anchor="middle" fill="#fde68a" font-family="JetBrains Mono, monospace" font-size="9">Massive pre-built set</text>
 <rect x="1556" y="1016" width="130" height="48" rx="6" fill="#241a3d" stroke="#818cf8"/>
 <text x="1621" y="1038" text-anchor="middle" fill="#e0e7ff" font-family="JetBrains Mono, monospace" font-size="10" font-weight="700">CK-Tile</text>
 <text x="1621" y="1054" text-anchor="middle" fill="#c7d2fe" font-family="JetBrains Mono, monospace" font-size="9">Next-gen abstractions</text>
 <rect x="1698" y="1016" width="150" height="48" rx="6" fill="#450a0a" stroke="#ef4444"/>
 <text x="1773" y="1038" text-anchor="middle" fill="#fecaca" font-family="JetBrains Mono, monospace" font-size="10" font-weight="700">ckProfiler</text>
 <text x="1773" y="1054" text-anchor="middle" fill="#fca5a5" font-family="JetBrains Mono, monospace" font-size="9">Auto instance tuning</text>

 <text x="988" y="1082" fill="#94a3b8" font-family="JetBrains Mono, monospace" font-size="11" font-weight="700">vs Related Stacks</text>
 <rect x="988" y="1092" width="200" height="68" rx="6" fill="#241a3d" stroke="#a78bfa"/>
 <text x="1088" y="1116" text-anchor="middle" fill="#ede9fe" font-family="JetBrains Mono, monospace" font-size="11" font-weight="700">Composable Kernel</text>
 <text x="1088" y="1134" text-anchor="middle" fill="#c4b5fd" font-family="JetBrains Mono, monospace" font-size="9">Template kernel generator</text>
 <text x="1088" y="1150" text-anchor="middle" fill="#c4b5fd" font-family="JetBrains Mono, monospace" font-size="9">Tile + coord transform</text>
 <rect x="1200" y="1092" width="200" height="68" rx="6" fill="#1a2e05" stroke="#76b900"/>
 <text x="1300" y="1116" text-anchor="middle" fill="#ecfccb" font-family="JetBrains Mono, monospace" font-size="11" font-weight="700">CUTLASS</text>
 <text x="1300" y="1134" text-anchor="middle" fill="#d9f99d" font-family="JetBrains Mono, monospace" font-size="9">NVIDIA template GEMM lib</text>
 <text x="1300" y="1150" text-anchor="middle" fill="#d9f99d" font-family="JetBrains Mono, monospace" font-size="9">Same role on CUDA stack</text>
 <rect x="1412" y="1092" width="200" height="68" rx="6" fill="#450a0a" stroke="#ef4444"/>
 <text x="1512" y="1116" text-anchor="middle" fill="#fecaca" font-family="JetBrains Mono, monospace" font-size="11" font-weight="700">MIOpen / AITER</text>
 <text x="1512" y="1134" text-anchor="middle" fill="#fca5a5" font-family="JetBrains Mono, monospace" font-size="9">Downstream consumers</text>
 <text x="1512" y="1150" text-anchor="middle" fill="#fca5a5" font-family="JetBrains Mono, monospace" font-size="9">CK as primary GEMM backend</text>
 <rect x="1624" y="1092" width="224" height="68" rx="6" fill="#241a3d" stroke="#818cf8"/>
 <text x="1736" y="1116" text-anchor="middle" fill="#e0e7ff" font-family="JetBrains Mono, monospace" font-size="11" font-weight="700">hipBLASLt</text>
 <text x="1736" y="1134" text-anchor="middle" fill="#c7d2fe" font-family="JetBrains Mono, monospace" font-size="9">BLAS API wrapper layer</text>
 <text x="1736" y="1150" text-anchor="middle" fill="#c7d2fe" font-family="JetBrains Mono, monospace" font-size="9">Uses CK kernels internally</text>

 <text x="988" y="1178" fill="#94a3b8" font-family="JetBrains Mono, monospace" font-size="11" font-weight="700">Quick Start</text>
 <rect x="988" y="1188" width="860" height="48" rx="6" fill="#1a1208" stroke="#a78bfa"/>
 <text x="1418" y="1212" text-anchor="middle" fill="#ede9fe" font-family="JetBrains Mono, monospace" font-size="12">git clone --recursive ROCm/composable_kernel - cmake GPU_TARGETS=gfx942 - make install</text>
 <text x="1418" y="1228" text-anchor="middle" fill="#c4b5fd" font-family="JetBrains Mono, monospace" font-size="10">Docs: rocm.docs.amd.com/projects/composable_kernel - now in ROCm/rocm-libraries monorepo</text>

 <!-- footer bar -->
 <rect x="60" y="1288" width="1800" height="72" rx="12" fill="#1a1208" stroke="#a78bfa" stroke-width="2"/>
 <text x="88" y="1316" fill="#a78bfa" font-family="JetBrains Mono, monospace" font-size="16" font-weight="700">Design Position (AMD kernel template layer - tile abstractions + instance library = perf foundation for ROCm ML stack)</text>
 <text x="960" y="1342" text-anchor="middle" fill="#c4b5fd" font-family="JetBrains Mono, monospace" font-size="13">CK-Tile coord transform + XDL MFMA instances + ckProfiler = ROCm answer to CUTLASS powering LLM GEMM FMHA MoE</text>

 <!-- footers -->
 <rect x="60" y="1376" width="1800" height="52" rx="8" fill="#111827" stroke="#475569"/>
 <text x="960" y="1396" text-anchor="middle" fill="#94a3b8" font-family="JetBrains Mono, monospace" font-size="11">Init: cmake -D GPU_TARGETS=gfx942 -D CMAKE_CXX_COMPILER=hipcc - make -j install - optional ckProfiler build</text>
 <text x="960" y="1414" text-anchor="middle" fill="#64748b" font-family="JetBrains Mono, monospace" font-size="10">Loop: problem desc - instance factory - invoker launch - tile pipeline - epilogue - ckProfiler tunes instance pick</text>

 <text x="60" y="1460" fill="#64748b" font-family="JetBrains Mono, monospace" font-size="10">Sources: rocm.docs.amd.com/projects/composable_kernel - github.com/ROCm/composable_kernel - github.com/ROCm/rocm-libraries</text>
</svg>
