<?xml version="1.0" encoding="UTF-8"?>
<svg xmlns="http://www.w3.org/2000/svg" width="1920" height="1520" viewBox="0 0 1920 1520">
 <defs>
  <linearGradient id="bg" x1="0" y1="0" x2="0" y2="1">
   <stop offset="0%" stop-color="#0a1628"/>
   <stop offset="100%" stop-color="#061018"/>
  </linearGradient>
  <marker id="arrow" markerWidth="10" markerHeight="8" refX="9" refY="4" orient="auto">
   <polygon points="0 0, 10 4, 0 8" fill="#7dd3fc"/>
  </marker>
  <marker id="arrow-red" markerWidth="10" markerHeight="8" refX="9" refY="4" orient="auto">
   <polygon points="0 0, 10 4, 0 8" fill="#ef4444"/>
  </marker>
  <marker id="arrow-orange" markerWidth="10" markerHeight="8" refX="9" refY="4" orient="auto">
   <polygon points="0 0, 10 4, 0 8" fill="#f97316"/>
  </marker>
 </defs>

 <rect width="1920" height="1520" fill="url(#bg)"/>
 <g opacity="0.06" stroke="#1e3a5f" stroke-width="1">
  <path d="M0 40 H1920 M0 80 H1920 M0 120 H1920 M0 160 H1920 M0 200 H1920 M0 240 H1920 M0 280 H1920 M0 320 H1920 M0 360 H1920 M0 400 H1920 M0 440 H1920 M0 480 H1920 M0 520 H1920 M0 560 H1920 M0 600 H1920 M0 640 H1920 M0 720 H1920 M0 800 H1920 M0 880 H1920 M0 960 H1920 M0 1040 H1920 M0 1120 H1920 M0 1200 H1920 M0 1280 H1920 M0 1360 H1920 M0 1440 H1920"/>
 </g>

 <!-- title -->
 <text x="960" y="48" text-anchor="middle" fill="#e2e8f0" font-family="JetBrains Mono, monospace" font-size="32" font-weight="700">ROCm Iris Architecture</text>
 <text x="960" y="76" text-anchor="middle" fill="#94a3b8" font-family="JetBrains Mono, monospace" font-size="14">First-Class Multi-GPU RMA in Triton - AMD RAD - github.com/ROCm/iris - arXiv 2511.12500</text>

 <!-- L1 Workloads -->
 <rect x="60" y="96" width="1800" height="100" rx="12" fill="#0f2744" stroke="#ef4444" stroke-width="2"/>
 <text x="88" y="124" fill="#ef4444" font-family="JetBrains Mono, monospace" font-size="16" font-weight="700">L1 - Multi-GPU Workloads + Targets (GPU-initiated RMA - fine-grained overlap - scale-up today)</text>
 <g font-family="JetBrains Mono, monospace" font-size="12" fill="#e2e8f0">
  <rect x="88" y="136" width="70" height="40" rx="6" fill="#450a0a" stroke="#ef4444"/><text x="123" y="162" text-anchor="middle">GEMM+AR</text>
  <rect x="170" y="136" width="80" height="40" rx="6" fill="#450a0a" stroke="#ef4444"/><text x="210" y="162" text-anchor="middle">AllScatter</text>
  <rect x="262" y="136" width="70" height="40" rx="6" fill="#450a0a" stroke="#ef4444"/><text x="297" y="162" text-anchor="middle">FlashDec</text>
  <rect x="344" y="136" width="50" height="40" rx="6" fill="#450a0a" stroke="#ef4444"/><text x="369" y="162" text-anchor="middle">P2P</text>
  <rect x="406" y="136" width="50" height="40" rx="6" fill="#450a0a" stroke="#ef4444"/><text x="431" y="162" text-anchor="middle">MoE</text>
  <rect x="468" y="136" width="50" height="40" rx="6" fill="#431407" stroke="#fb923c"/><text x="493" y="162" text-anchor="middle">CCL</text>
  <rect x="530" y="136" width="50" height="40" rx="6" fill="#431407" stroke="#fb923c"/><text x="555" y="162" text-anchor="middle">fused</text>
  <rect x="592" y="136" width="60" height="40" rx="6" fill="#132f4c" stroke="#22d3ee"/><text x="622" y="162" text-anchor="middle">MI300X</text>
  <rect x="664" y="136" width="50" height="40" rx="6" fill="#132f4c" stroke="#22d3ee"/><text x="689" y="162" text-anchor="middle">MI350</text>
  <rect x="726" y="136" width="50" height="40" rx="6" fill="#132f4c" stroke="#22d3ee"/><text x="751" y="162" text-anchor="middle">MI355</text>
  <rect x="788" y="136" width="50" height="40" rx="6" fill="#134e4a" stroke="#5eead4"/><text x="813" y="162" text-anchor="middle">HIP</text>
  <rect x="850" y="136" width="50" height="40" rx="6" fill="#134e4a" stroke="#5eead4"/><text x="875" y="162" text-anchor="middle">ROCm</text>
  <rect x="912" y="136" width="50" height="40" rx="6" fill="#134e4a" stroke="#5eead4"/><text x="937" y="162" text-anchor="middle">CDNA</text>
  <rect x="974" y="136" width="50" height="40" rx="6" fill="#241a3d" stroke="#a78bfa"/><text x="999" y="162" text-anchor="middle">RCCL</text>
  <rect x="1036" y="136" width="50" height="40" rx="6" fill="#241a3d" stroke="#a78bfa"/><text x="1061" y="162" text-anchor="middle">NCCL</text>
  <rect x="1098" y="136" width="50" height="40" rx="6" fill="#0c2d2d" stroke="#14b8a6"/><text x="1123" y="162" text-anchor="middle">Triton</text>
  <rect x="1160" y="136" width="50" height="40" rx="6" fill="#0c2d2d" stroke="#14b8a6"/><text x="1185" y="162" text-anchor="middle">Gluon</text>
  <rect x="1222" y="136" width="50" height="40" rx="6" fill="#422006" stroke="#fbbf24"/><text x="1247" y="162" text-anchor="middle">PyTorch</text>
  <rect x="1284" y="136" width="50" height="40" rx="6" fill="#422006" stroke="#fbbf24"/><text x="1309" y="162" text-anchor="middle">LLM</text>
  <rect x="1346" y="136" width="50" height="40" rx="6" fill="#431407" stroke="#fb923c"/><text x="1371" y="162" text-anchor="middle">RDMA</text>
  <rect x="1408" y="136" width="50" height="40" rx="6" fill="#431407" stroke="#fb923c"/><text x="1433" y="162" text-anchor="middle">WIP</text>
  <rect x="1470" y="136" width="60" height="40" rx="6" fill="#134e4a" stroke="#5eead4"/><text x="1500" y="162" text-anchor="middle">AMD RAD</text>
  <rect x="1542" y="136" width="50" height="40" rx="6" fill="#134e4a" stroke="#5eead4"/><text x="1567" y="162" text-anchor="middle">MIT</text>
  <rect x="1604" y="136" width="50" height="40" rx="6" fill="#134e4a" stroke="#5eead4"/><text x="1629" y="162" text-anchor="middle">Python</text>
  <rect x="1666" y="136" width="60" height="40" rx="6" fill="#450a0a" stroke="#ef4444"/><text x="1696" y="162" text-anchor="middle">MLSys</text>
  <rect x="1738" y="136" width="60" height="40" rx="6" fill="#450a0a" stroke="#ef4444"/><text x="1768" y="162" text-anchor="middle">GPUMode</text>
  <rect x="1810" y="136" width="40" height="40" rx="6" fill="#450a0a" stroke="#ef4444"/><text x="1830" y="162" text-anchor="middle">RMA</text>
 </g>
 <line x1="960" y1="196" x2="960" y2="214" stroke="#7dd3fc" stroke-width="2" marker-end="url(#arrow)"/>

 <!-- L2 Programming Model -->
 <rect x="60" y="216" width="1800" height="120" rx="12" fill="#0f2744" stroke="#ef4444" stroke-width="2"/>
 <text x="88" y="244" fill="#ef4444" font-family="JetBrains Mono, monospace" font-size="16" font-weight="700">L2 - Programming Model (PGAS symmetric heap - GPU-initiated comm - vs RCCL bulk-synchronous)</text>
 <rect x="88" y="258" width="340" height="64" rx="10" fill="#241a3d" stroke="#a78bfa" stroke-width="2"/>
 <text x="258" y="282" text-anchor="middle" fill="#ede9fe" font-family="JetBrains Mono, monospace" font-size="13" font-weight="700">Traditional (RCCL)</text>
 <text x="258" y="300" text-anchor="middle" fill="#c4b5fd" font-family="JetBrains Mono, monospace" font-size="10">CPU-initiated control - separate compute + comm kernels</text>
 <text x="258" y="314" text-anchor="middle" fill="#c4b5fd" font-family="JetBrains Mono, monospace" font-size="10">Host-device sync barriers - operator-level overlap only</text>
 <rect x="448" y="258" width="340" height="64" rx="10" fill="#450a0a" stroke="#ef4444" stroke-width="2"/>
 <text x="618" y="282" text-anchor="middle" fill="#fecaca" font-family="JetBrains Mono, monospace" font-size="13" font-weight="700">Iris World</text>
 <text x="618" y="300" text-anchor="middle" fill="#fca5a5" font-family="JetBrains Mono, monospace" font-size="10">GPU-initiated RMA - comm starts when data produced</text>
 <text x="618" y="314" text-anchor="middle" fill="#fca5a5" font-family="JetBrains Mono, monospace" font-size="10">No intermediate buffers - direct to application memory</text>
 <rect x="808" y="258" width="340" height="64" rx="10" fill="#431407" stroke="#fb923c" stroke-width="2"/>
 <text x="978" y="282" text-anchor="middle" fill="#ffedd5" font-family="JetBrains Mono, monospace" font-size="13" font-weight="700">Symmetric Heap (PGAS)</text>
 <text x="978" y="300" text-anchor="middle" fill="#fed7aa" font-family="JetBrains Mono, monospace" font-size="10">Collective alloc - all_gather heap base per rank</text>
 <text x="978" y="314" text-anchor="middle" fill="#fed7aa" font-family="JetBrains Mono, monospace" font-size="10">__translate: offset = ptr - from_base + to_base</text>
 <rect x="1168" y="258" width="340" height="64" rx="10" fill="#134e4a" stroke="#5eead4" stroke-width="2"/>
 <text x="1338" y="282" text-anchor="middle" fill="#ccfbf1" font-family="JetBrains Mono, monospace" font-size="13" font-weight="700">Minimal Dependencies</text>
 <text x="1338" y="300" text-anchor="middle" fill="#99f6e4" font-family="JetBrains Mono, monospace" font-size="10">Only Triton + PyTorch + HIP runtime</text>
 <text x="1338" y="314" text-anchor="middle" fill="#99f6e4" font-family="JetBrains Mono, monospace" font-size="10">Few 100 lines core - no heavyweight runtime</text>
 <rect x="1528" y="258" width="300" height="64" rx="10" fill="#0c2d2d" stroke="#14b8a6" stroke-width="2"/>
 <text x="1678" y="282" text-anchor="middle" fill="#ccfbf1" font-family="JetBrains Mono, monospace" font-size="13" font-weight="700">Work-Group Centric</text>
 <text x="1678" y="300" text-anchor="middle" fill="#99f6e4" font-family="JetBrains Mono, monospace" font-size="10">Tiled algorithms - producer/consumer roles</text>
 <text x="1678" y="314" text-anchor="middle" fill="#99f6e4" font-family="JetBrains Mono, monospace" font-size="10">Lock variants for comm/compute overlap</text>
 <line x1="960" y1="336" x2="960" y2="354" stroke="#7dd3fc" stroke-width="2" marker-end="url(#arrow)"/>

 <!-- L3 Host API -->
 <rect x="60" y="356" width="1800" height="200" rx="12" fill="#0f2744" stroke="#f97316" stroke-width="2.5"/>
 <text x="88" y="384" fill="#f97316" font-family="JetBrains Mono, monospace" font-size="16" font-weight="700">L3 - Host API (Python PyTorch-like - identical across Triton and Gluon backends)</text>

 <rect x="88" y="400" width="420" height="136" rx="12" fill="#431407" stroke="#fb923c" stroke-width="2"/>
 <text x="298" y="428" text-anchor="middle" fill="#ffedd5" font-family="JetBrains Mono, monospace" font-size="15" font-weight="700">iris.iris(heap_size)</text>
 <text x="298" y="450" text-anchor="middle" fill="#fed7aa" font-family="JetBrains Mono, monospace" font-size="10">Create Iris context w/ symmetric heap (e.g. 1GiB)</text>
 <text x="298" y="468" text-anchor="middle" fill="#fed7aa" font-family="JetBrains Mono, monospace" font-size="10">ctx.get_rank() - ctx.get_heap_bases()</text>
 <text x="298" y="486" text-anchor="middle" fill="#fed7aa" font-family="JetBrains Mono, monospace" font-size="10">ctx.zeros() / tensor alloc on symmetric heap</text>
 <text x="298" y="504" text-anchor="middle" fill="#fed7aa" font-family="JetBrains Mono, monospace" font-size="10">ctx.barrier() - collective sync across ranks</text>
 <text x="298" y="522" text-anchor="middle" fill="#fed7aa" font-family="JetBrains Mono, monospace" font-size="10">torch.distributed NCCL init for process group</text>

 <rect x="528" y="400" width="420" height="136" rx="12" fill="#0c2d2d" stroke="#14b8a6" stroke-width="2"/>
 <text x="738" y="428" text-anchor="middle" fill="#ccfbf1" font-family="JetBrains Mono, monospace" font-size="15" font-weight="700">Triton Backend (@triton.jit)</text>
 <text x="738" y="450" text-anchor="middle" fill="#99f6e4" font-family="JetBrains Mono, monospace" font-size="10">Pass heap_bases_ptr into kernel explicitly</text>
 <text x="738" y="468" text-anchor="middle" fill="#99f6e4" font-family="JetBrains Mono, monospace" font-size="10">iris.load/store(source_rank, target_rank, ...)</text>
 <text x="738" y="486" text-anchor="middle" fill="#99f6e4" font-family="JetBrains Mono, monospace" font-size="10">Tile/TensorView/AllReduceConfig helpers</text>
 <text x="738" y="504" text-anchor="middle" fill="#99f6e4" font-family="JetBrains Mono, monospace" font-size="10">Fused GEMM + CCL ops in iris.ops</text>
 <text x="738" y="522" text-anchor="middle" fill="#99f6e4" font-family="JetBrains Mono, monospace" font-size="10">CDNA cache modifiers: .ca .cg .cv .wb .cs .wt</text>

 <rect x="968" y="400" width="420" height="136" rx="12" fill="#3b0764" stroke="#d946ef" stroke-width="2"/>
 <text x="1178" y="428" text-anchor="middle" fill="#fae8ff" font-family="JetBrains Mono, monospace" font-size="15" font-weight="700">Gluon Backend (Experimental)</text>
 <text x="1178" y="450" text-anchor="middle" fill="#f0abfc" font-family="JetBrains Mono, monospace" font-size="10">@gluon.jit + iris.gluon.IrisDeviceCtx</text>
 <text x="1178" y="468" text-anchor="middle" fill="#f0abfc" font-family="JetBrains Mono, monospace" font-size="10">ctx.get_device_context() encoded context tensor</text>
 <text x="1178" y="486" text-anchor="middle" fill="#f0abfc" font-family="JetBrains Mono, monospace" font-size="10">ctx.store/load w/o separate heap_bases arg</text>
 <text x="1178" y="504" text-anchor="middle" fill="#f0abfc" font-family="JetBrains Mono, monospace" font-size="10">Requires ROCm 7.0+ and Triton aafec417+</text>
 <text x="1178" y="522" text-anchor="middle" fill="#f0abfc" font-family="JetBrains Mono, monospace" font-size="10">Wavefront specialization future work</text>

 <rect x="1408" y="400" width="420" height="136" rx="12" fill="#450a0a" stroke="#ef4444" stroke-width="2"/>
 <text x="1618" y="428" text-anchor="middle" fill="#fecaca" font-family="JetBrains Mono, monospace" font-size="15" font-weight="700">Device Primitives</text>
 <text x="1618" y="450" text-anchor="middle" fill="#fca5a5" font-family="JetBrains Mono, monospace" font-size="10">load store copy get put - RMA ops</text>
 <text x="1618" y="468" text-anchor="middle" fill="#fca5a5" font-family="JetBrains Mono, monospace" font-size="10">atomic_add/cas/xchg/min/max/and/or/xor</text>
 <text x="1618" y="504" text-anchor="middle" fill="#fca5a5" font-family="JetBrains Mono, monospace" font-size="10">sem acquire/release scope gpu/sys for locks</text>
 <text x="1618" y="522" text-anchor="middle" fill="#fca5a5" font-family="JetBrains Mono, monospace" font-size="10">Device collectives: broadcast scatter reduce</text>

 <line x1="960" y1="556" x2="960" y2="574" stroke="#7dd3fc" stroke-width="2" marker-end="url(#arrow)"/>

 <!-- L4 Pattern Taxonomy -->
 <rect x="60" y="576" width="1800" height="120" rx="12" fill="#0f2744" stroke="#ef4444" stroke-width="2"/>
 <text x="88" y="604" fill="#ef4444" font-family="JetBrains Mono, monospace" font-size="16" font-weight="700">L4 - Overlap Pattern Taxonomy (GEMM + All-Scatter representative - up to 2.5x vs bulk sync)</text>
 <rect x="88" y="618" width="280" height="64" rx="10" fill="#241a3d" stroke="#a78bfa" stroke-width="2"/>
 <text x="228" y="642" text-anchor="middle" fill="#ede9fe" font-family="JetBrains Mono, monospace" font-size="12" font-weight="700">1. Bulk Sync</text>
 <text x="228" y="660" text-anchor="middle" fill="#c4b5fd" font-family="JetBrains Mono, monospace" font-size="10">Separate GEMM + comm kernels</text>
 <text x="228" y="674" text-anchor="middle" fill="#c4b5fd" font-family="JetBrains Mono, monospace" font-size="10">CPU barrier - RCCL baseline</text>
 <rect x="388" y="618" width="280" height="64" rx="10" fill="#431407" stroke="#fb923c" stroke-width="2"/>
 <text x="528" y="642" text-anchor="middle" fill="#ffedd5" font-family="JetBrains Mono, monospace" font-size="12" font-weight="700">2. Unfused P-C</text>
 <text x="528" y="660" text-anchor="middle" fill="#fed7aa" font-family="JetBrains Mono, monospace" font-size="10">Dual stream - CU partition</text>
 <text x="528" y="674" text-anchor="middle" fill="#fed7aa" font-family="JetBrains Mono, monospace" font-size="10">atomic_cas acquire/release locks</text>
 <rect x="688" y="618" width="280" height="64" rx="10" fill="#422006" stroke="#fbbf24" stroke-width="2"/>
 <text x="828" y="642" text-anchor="middle" fill="#fef3c7" font-family="JetBrains Mono, monospace" font-size="12" font-weight="700">3. Fused Sequential</text>
 <text x="828" y="660" text-anchor="middle" fill="#fde68a" font-family="JetBrains Mono, monospace" font-size="10">Single kernel: compute tile then scatter</text>
 <text x="828" y="674" text-anchor="middle" fill="#fde68a" font-family="JetBrains Mono, monospace" font-size="10">Data stays in registers - no HBM roundtrip</text>
 <rect x="988" y="618" width="280" height="64" rx="10" fill="#450a0a" stroke="#ef4444" stroke-width="2"/>
 <text x="1128" y="642" text-anchor="middle" fill="#fecaca" font-family="JetBrains Mono, monospace" font-size="12" font-weight="700">4. Fused WG Spec</text>
 <text x="1128" y="660" text-anchor="middle" fill="#fca5a5" font-family="JetBrains Mono, monospace" font-size="10">Single kernel - WG as producer or consumer</text>
 <text x="1128" y="674" text-anchor="middle" fill="#fca5a5" font-family="JetBrains Mono, monospace" font-size="10">Best perf - up to 60pct over unfused P-C</text>
 <rect x="1288" y="618" width="280" height="64" rx="10" fill="#3b0764" stroke="#d946ef" stroke-width="2"/>
 <text x="1428" y="642" text-anchor="middle" fill="#fae8ff" font-family="JetBrains Mono, monospace" font-size="12" font-weight="700">5. Wavefront Spec</text>
 <text x="1428" y="660" text-anchor="middle" fill="#f0abfc" font-family="JetBrains Mono, monospace" font-size="10">Finer than WG - needs Gluon</text>
 <text x="1428" y="674" text-anchor="middle" fill="#f0abfc" font-family="JetBrains Mono, monospace" font-size="10">Future - not yet in std Triton</text>
 <rect x="1588" y="618" width="240" height="64" rx="10" fill="#134e4a" stroke="#5eead4" stroke-width="2"/>
 <text x="1708" y="642" text-anchor="middle" fill="#ccfbf1" font-family="JetBrains Mono, monospace" font-size="12" font-weight="700">GEMM Variants</text>
 <text x="1708" y="660" text-anchor="middle" fill="#99f6e4" font-family="JetBrains Mono, monospace" font-size="10">GEMM+AllReduce (row B shard)</text>
 <text x="1708" y="674" text-anchor="middle" fill="#99f6e4" font-family="JetBrains Mono, monospace" font-size="10">GEMM+AllScatter (col B shard)</text>
 <line x1="960" y1="696" x2="960" y2="714" stroke="#7dd3fc" stroke-width="2" marker-end="url(#arrow)"/>

 <!-- L5 Runtime Stack -->
 <rect x="60" y="716" width="1800" height="120" rx="12" fill="#0f2744" stroke="#f97316" stroke-width="2"/>
 <text x="88" y="744" fill="#f97316" font-family="JetBrains Mono, monospace" font-size="16" font-weight="700">L5 - Runtime Stack (Triton compile path + HIP P2P/XGMI - host orchestration minimal)</text>
 <rect x="88" y="758" width="340" height="64" rx="10" fill="#0c2d2d" stroke="#14b8a6" stroke-width="2"/>
 <text x="258" y="782" text-anchor="middle" fill="#ccfbf1" font-family="JetBrains Mono, monospace" font-size="13" font-weight="700">Triton Compiler</text>
 <text x="258" y="800" text-anchor="middle" fill="#99f6e4" font-family="JetBrains Mono, monospace" font-size="10">@triton.jit kernels compile to AMDGPU ISA</text>
 <text x="258" y="814" text-anchor="middle" fill="#99f6e4" font-family="JetBrains Mono, monospace" font-size="10">iris.* ops lowered inline - no separate comm lib</text>
 <rect x="448" y="758" width="340" height="64" rx="10" fill="#134e4a" stroke="#5eead4" stroke-width="2"/>
 <text x="618" y="782" text-anchor="middle" fill="#ccfbf1" font-family="JetBrains Mono, monospace" font-size="13" font-weight="700">HIP + P2P Memory</text>
 <text x="618" y="800" text-anchor="middle" fill="#99f6e4" font-family="JetBrains Mono, monospace" font-size="10">iris.host.platform.hip integration</text>
 <text x="618" y="814" text-anchor="middle" fill="#99f6e4" font-family="JetBrains Mono, monospace" font-size="10">Cross-GPU load/store via peer mapping + XGMI</text>
 <rect x="808" y="758" width="340" height="64" rx="10" fill="#431407" stroke="#fb923c" stroke-width="2"/>
 <text x="978" y="782" text-anchor="middle" fill="#ffedd5" font-family="JetBrains Mono, monospace" font-size="13" font-weight="700">Pointer Translation</text>
 <text x="978" y="800" text-anchor="middle" fill="#fed7aa" font-family="JetBrains Mono, monospace" font-size="10">Device-side __translate in Triton IR</text>
 <text x="978" y="814" text-anchor="middle" fill="#fed7aa" font-family="JetBrains Mono, monospace" font-size="10">heap_bases[from_rank] to heap_bases[to_rank]</text>
 <rect x="1168" y="758" width="340" height="64" rx="10" fill="#422006" stroke="#fbbf24" stroke-width="2"/>
 <text x="1338" y="782" text-anchor="middle" fill="#fef3c7" font-family="JetBrains Mono, monospace" font-size="13" font-weight="700">Tracing + Bench</text>
 <text x="1338" y="800" text-anchor="middle" fill="#fde68a" font-family="JetBrains Mono, monospace" font-size="10">kernel_artifacts - TraceEvent - do_bench</text>
 <text x="1338" y="814" text-anchor="middle" fill="#fde68a" font-family="JetBrains Mono, monospace" font-size="10">Intra-kernel profiler tooling</text>
 <rect x="1528" y="758" width="300" height="64" rx="10" fill="#450a0a" stroke="#ef4444" stroke-width="2"/>
 <text x="1678" y="782" text-anchor="middle" fill="#fecaca" font-family="JetBrains Mono, monospace" font-size="13" font-weight="700">Scale-out Roadmap</text>
 <text x="1678" y="800" text-anchor="middle" fill="#fca5a5" font-family="JetBrains Mono, monospace" font-size="10">Multi-node RDMA support planned</text>
 <text x="1678" y="814" text-anchor="middle" fill="#fca5a5" font-family="JetBrains Mono, monospace" font-size="10">Full scale-up on single node today</text>
 <line x1="960" y1="836" x2="960" y2="854" stroke="#7dd3fc" stroke-width="2" marker-end="url(#arrow)"/>

 <!-- L6 Package -->
 <rect x="60" y="856" width="1800" height="56" rx="12" fill="#0f2744" stroke="#ef4444" stroke-width="2"/>
 <text x="88" y="884" fill="#ef4444" font-family="JetBrains Mono, monospace" font-size="16" font-weight="700">L6 - Package Layout (iris/ - host/ - mem/triton/ - mem/gluon/ - examples/ - benchmark/ - docs/)</text>
 <g font-family="JetBrains Mono, monospace" font-size="11" fill="#e0f2fe">
  <rect x="88" y="892" width="50" height="24" rx="5" fill="#450a0a" stroke="#ef4444"/><text x="113" y="909" text-anchor="middle">iris/</text>
  <rect x="148" y="892" width="50" height="24" rx="5" fill="#450a0a" stroke="#ef4444"/><text x="173" y="909" text-anchor="middle">host/</text>
  <rect x="208" y="892" width="70" height="24" rx="5" fill="#450a0a" stroke="#ef4444"/><text x="243" y="909" text-anchor="middle">mem/triton</text>
  <rect x="288" y="892" width="70" height="24" rx="5" fill="#3b0764" stroke="#d946ef"/><text x="323" y="909" text-anchor="middle">mem/gluon</text>
  <rect x="368" y="892" width="50" height="24" rx="5" fill="#431407" stroke="#fb923c"/><text x="393" y="909" text-anchor="middle">ops/</text>
  <rect x="428" y="892" width="60" height="24" rx="5" fill="#0c2d2d" stroke="#14b8a6"/><text x="458" y="909" text-anchor="middle">examples</text>
  <rect x="498" y="892" width="60" height="24" rx="5" fill="#0c2d2d" stroke="#14b8a6"/><text x="528" y="909" text-anchor="middle">benchmark</text>
  <rect x="568" y="892" width="40" height="24" rx="5" fill="#0c2d2d" stroke="#14b8a6"/><text x="588" y="909" text-anchor="middle">tests</text>
  <rect x="618" y="892" width="50" height="24" rx="5" fill="#134e4a" stroke="#5eead4"/><text x="643" y="909" text-anchor="middle">docker</text>
  <rect x="678" y="892" width="60" height="24" rx="5" fill="#134e4a" stroke="#5eead4"/><text x="708" y="909" text-anchor="middle">apptainer</text>
  <rect x="748" y="892" width="50" height="24" rx="5" fill="#422006" stroke="#fbbf24"/><text x="773" y="909" text-anchor="middle">docs/</text>
  <rect x="808" y="892" width="70" height="24" rx="5" fill="#422006" stroke="#fbbf24"/><text x="843" y="909" text-anchor="middle">readthedocs</text>
  <rect x="888" y="892" width="60" height="24" rx="5" fill="#241a3d" stroke="#a78bfa"/><text x="918" y="909" text-anchor="middle">SHMEM</text>
  <rect x="958" y="892" width="40" height="24" rx="5" fill="#241a3d" stroke="#a78bfa"/><text x="978" y="909" text-anchor="middle">PGAS</text>
  <rect x="1008" y="892" width="50" height="24" rx="5" fill="#431407" stroke="#fb923c"/><text x="1033" y="909" text-anchor="middle">COMET</text>
  <rect x="1068" y="892" width="80" height="24" rx="5" fill="#431407" stroke="#fb923c"/><text x="1108" y="909" text-anchor="middle">perf taxes</text>
  <rect x="1158" y="892" width="70" height="24" rx="5" fill="#312e81" stroke="#818cf8"/><text x="1193" y="909" text-anchor="middle">triton-dist</text>
  <rect x="1238" y="892" width="50" height="24" rx="5" fill="#134e4a" stroke="#5eead4"/><text x="1263" y="909" text-anchor="middle">pip</text>
  <rect x="1298" y="892" width="60" height="24" rx="5" fill="#134e4a" stroke="#5eead4"/><text x="1328" y="909" text-anchor="middle">ROCm6.3</text>
  <rect x="1368" y="892" width="50" height="24" rx="5" fill="#134e4a" stroke="#5eead4"/><text x="1393" y="909" text-anchor="middle">ROCm7</text>
  <rect x="1428" y="892" width="60" height="24" rx="5" fill="#422006" stroke="#fbbf24"/><text x="1458" y="909" text-anchor="middle">flash_dec</text>
  <rect x="1498" y="892" width="60" height="24" rx="5" fill="#422006" stroke="#fbbf24"/><text x="1528" y="909" text-anchor="middle">gemm_ar</text>
  <rect x="1568" y="892" width="70" height="24" rx="5" fill="#422006" stroke="#fbbf24"/><text x="1603" y="909" text-anchor="middle">ag_moe.py</text>
  <rect x="1648" y="892" width="50" height="24" rx="5" fill="#450a0a" stroke="#ef4444"/><text x="1673" y="909" text-anchor="middle">Zenodo</text>
  <rect x="1708" y="892" width="60" height="24" rx="5" fill="#450a0a" stroke="#ef4444"/><text x="1738" y="909" text-anchor="middle">GPU contest</text>
  <rect x="1778" y="892" width="70" height="24" rx="5" fill="#450a0a" stroke="#ef4444"/><text x="1813" y="909" text-anchor="middle">simulation</text>
 </g>

 <!-- DETAIL Fused WG Path -->
 <rect x="60" y="928" width="880" height="340" rx="14" fill="#0c1524" stroke="#ef4444" stroke-width="2.5"/>
 <text x="88" y="960" fill="#ef4444" font-family="JetBrains Mono, monospace" font-size="17" font-weight="700">Fused Work-Group Specialization Path (GEMM + All-Scatter)</text>
 <text x="88" y="982" fill="#fca5a5" font-family="JetBrains Mono, monospace" font-size="11">Single uber-kernel - producer WGs compute - consumer WGs scatter via iris RMA</text>

 <rect x="88" y="998" width="820" height="36" rx="6" fill="#431407" stroke="#fb923c"/>
 <text x="498" y="1022" text-anchor="middle" fill="#ffedd5" font-family="JetBrains Mono, monospace" font-size="11" font-weight="700">Step 1: Host init torch.distributed + iris.iris(heap) + symmetric tensor alloc</text>
 <line x1="498" y1="1034" x2="498" y2="1046" stroke="#fb923c" stroke-width="1.5" marker-end="url(#arrow-orange)"/>
 <rect x="88" y="1048" width="820" height="36" rx="6" fill="#450a0a" stroke="#ef4444"/>
 <text x="498" y="1072" text-anchor="middle" fill="#fecaca" font-family="JetBrains Mono, monospace" font-size="11" font-weight="700">Step 2: Launch fused @triton.jit - if pid less num_gem_cus: producer WG else consumer WG</text>
 <line x1="498" y1="1084" x2="498" y2="1096" stroke="#ef4444" stroke-width="1.5" marker-end="url(#arrow-red)"/>
 <rect x="88" y="1098" width="820" height="36" rx="6" fill="#0c2d2d" stroke="#14b8a6"/>
 <text x="498" y="1122" text-anchor="middle" fill="#ccfbf1" font-family="JetBrains Mono, monospace" font-size="11" font-weight="700">Step 3: Producer computes GEMM tile - atomic_cas release lock - tile ready signal</text>
 <line x1="498" y1="1134" x2="498" y2="1146" stroke="#14b8a6" stroke-width="1.5"/>
 <rect x="88" y="1148" width="820" height="36" rx="6" fill="#312e81" stroke="#818cf8"/>
 <text x="498" y="1172" text-anchor="middle" fill="#e0e7ff" font-family="JetBrains Mono, monospace" font-size="11" font-weight="700">Step 4: Consumer spin acquire lock - iris.load remote tile - iris.store scatter to peers</text>
 <line x1="498" y1="1184" x2="498" y2="1196" stroke="#818cf8" stroke-width="1.5" marker-end="url(#arrow-red)"/>
 <rect x="88" y="1198" width="820" height="36" rx="6" fill="#422006" stroke="#fbbf24"/>
 <text x="498" y="1222" text-anchor="middle" fill="#fef3c7" font-family="JetBrains Mono, monospace" font-size="11" font-weight="700">Step 5: __translate ptr via heap_bases - HIP P2P remote access - no RCCL call</text>
 <line x1="498" y1="1234" x2="498" y2="1246" stroke="#fbbf24" stroke-width="1.5"/>
 <rect x="88" y="1248" width="820" height="28" rx="6" fill="#134e4a" stroke="#5eead4"/>
 <text x="498" y="1268" text-anchor="middle" fill="#ccfbf1" font-family="JetBrains Mono, monospace" font-size="11" font-weight="700">Result: comm overlaps compute at tile granularity - up to 2.5x unfused - 60pct vs dual-stream P-C</text>

 <text x="88" y="1294" fill="#64748b" font-family="JetBrains Mono, monospace" font-size="10">Example: examples/11_gemm_all_scatter_producer_consumer - examples/12_gemm_bulk_synchronous</text>
 <text x="88" y="1310" fill="#64748b" font-family="JetBrains Mono, monospace" font-size="10">GPU partition e.g. 256 CUs compute + 48 CUs comm in unfused producer-consumer variant</text>

 <!-- DETAIL Position -->
 <rect x="960" y="928" width="900" height="340" rx="14" fill="#0c1224" stroke="#ef4444" stroke-width="2.5"/>
 <text x="988" y="960" fill="#ef4444" font-family="JetBrains Mono, monospace" font-size="17" font-weight="700">Five Design Pillars + Ecosystem Position</text>
 <text x="988" y="982" fill="#fca5a5" font-family="JetBrains Mono, monospace" font-size="11">Multi-GPU as first-class Triton citizen - explore patterns not prescribe one approach</text>

 <text x="988" y="1006" fill="#94a3b8" font-family="JetBrains Mono, monospace" font-size="11" font-weight="700">Five Pillars</text>
 <rect x="988" y="1016" width="130" height="48" rx="6" fill="#450a0a" stroke="#ef4444"/>
 <text x="1053" y="1038" text-anchor="middle" fill="#fecaca" font-family="JetBrains Mono, monospace" font-size="10" font-weight="700">SHMEM RMA</text>
 <text x="1053" y="1054" text-anchor="middle" fill="#fca5a5" font-family="JetBrains Mono, monospace" font-size="9">In Triton DSL</text>
 <rect x="1130" y="1016" width="130" height="48" rx="6" fill="#431407" stroke="#fb923c"/>
 <text x="1195" y="1038" text-anchor="middle" fill="#ffedd5" font-family="JetBrains Mono, monospace" font-size="10" font-weight="700">GPU-initiated</text>
 <text x="1195" y="1054" text-anchor="middle" fill="#fed7aa" font-family="JetBrains Mono, monospace" font-size="9">No CPU comm path</text>
 <rect x="1272" y="1016" width="130" height="48" rx="6" fill="#0c2d2d" stroke="#14b8a6"/>
 <text x="1337" y="1038" text-anchor="middle" fill="#ccfbf1" font-family="JetBrains Mono, monospace" font-size="10" font-weight="700">Pattern lib</text>
 <text x="1337" y="1054" text-anchor="middle" fill="#99f6e4" font-family="JetBrains Mono, monospace" font-size="9">5 overlap taxonomies</text>
 <rect x="1414" y="1016" width="130" height="48" rx="6" fill="#422006" stroke="#fbbf24"/>
 <text x="1479" y="1038" text-anchor="middle" fill="#fef3c7" font-family="JetBrains Mono, monospace" font-size="10" font-weight="700">Symmetric heap</text>
 <text x="1479" y="1054" text-anchor="middle" fill="#fde68a" font-family="JetBrains Mono, monospace" font-size="9">PGAS pointer xlate</text>
 <rect x="1556" y="1016" width="130" height="48" rx="6" fill="#3b0764" stroke="#d946ef"/>
 <text x="1621" y="1038" text-anchor="middle" fill="#fae8ff" font-family="JetBrains Mono, monospace" font-size="10" font-weight="700">Gluon path</text>
 <text x="1621" y="1054" text-anchor="middle" fill="#f0abfc" font-family="JetBrains Mono, monospace" font-size="9">Max perf control</text>
 <rect x="1698" y="1016" width="150" height="48" rx="6" fill="#134e4a" stroke="#5eead4"/>
 <text x="1773" y="1038" text-anchor="middle" fill="#ccfbf1" font-family="JetBrains Mono, monospace" font-size="10" font-weight="700">Minimal deps</text>
 <text x="1773" y="1054" text-anchor="middle" fill="#99f6e4" font-family="JetBrains Mono, monospace" font-size="9">Triton+PyTorch+HIP</text>

 <text x="988" y="1082" fill="#94a3b8" font-family="JetBrains Mono, monospace" font-size="11" font-weight="700">vs Related Stacks</text>
 <rect x="988" y="1092" width="200" height="68" rx="6" fill="#450a0a" stroke="#ef4444"/>
 <text x="1088" y="1116" text-anchor="middle" fill="#fecaca" font-family="JetBrains Mono, monospace" font-size="11" font-weight="700">ROCm Iris</text>
 <text x="1088" y="1134" text-anchor="middle" fill="#fca5a5" font-family="JetBrains Mono, monospace" font-size="9">AMD Triton RMA framework</text>
 <text x="1088" y="1150" text-anchor="middle" fill="#fca5a5" font-family="JetBrains Mono, monospace" font-size="9">Pattern exploration focus</text>
 <rect x="1200" y="1092" width="200" height="68" rx="6" fill="#241a3d" stroke="#a78bfa"/>
 <text x="1300" y="1116" text-anchor="middle" fill="#ede9fe" font-family="JetBrains Mono, monospace" font-size="11" font-weight="700">RCCL / NCCL</text>
 <text x="1300" y="1134" text-anchor="middle" fill="#c4b5fd" font-family="JetBrains Mono, monospace" font-size="9">CPU bulk-synchronous</text>
 <text x="1300" y="1150" text-anchor="middle" fill="#c4b5fd" font-family="JetBrains Mono, monospace" font-size="9">Separate comm library</text>
 <rect x="1412" y="1092" width="200" height="68" rx="6" fill="#312e81" stroke="#818cf8"/>
 <text x="1512" y="1116" text-anchor="middle" fill="#e0e7ff" font-family="JetBrains Mono, monospace" font-size="11" font-weight="700">Triton-distributed</text>
 <text x="1512" y="1134" text-anchor="middle" fill="#c7d2fe" font-family="JetBrains Mono, monospace" font-size="9">ByteDance NVSHMEM ext</text>
 <text x="1512" y="1150" text-anchor="middle" fill="#c7d2fe" font-family="JetBrains Mono, monospace" font-size="9">NVIDIA+AMD compiler path</text>
 <rect x="1624" y="1092" width="224" height="68" rx="6" fill="#431407" stroke="#fb923c"/>
 <text x="1736" y="1116" text-anchor="middle" fill="#ffedd5" font-family="JetBrains Mono, monospace" font-size="11" font-weight="700">antirez iris.c</text>
 <text x="1736" y="1134" text-anchor="middle" fill="#fed7aa" font-family="JetBrains Mono, monospace" font-size="9">Unrelated: pure C DiT infer</text>
 <text x="1736" y="1150" text-anchor="middle" fill="#fed7aa" font-family="JetBrains Mono, monospace" font-size="9">Different name same goddess</text>

 <text x="988" y="1178" fill="#94a3b8" font-family="JetBrains Mono, monospace" font-size="11" font-weight="700">Quick Start</text>
 <rect x="988" y="1188" width="860" height="48" rx="6" fill="#1a1208" stroke="#ef4444"/>
 <text x="1418" y="1212" text-anchor="middle" fill="#fecaca" font-family="JetBrains Mono, monospace" font-size="12">pip install git+https://github.com/ROCm/iris.git - docker compose up --build -d</text>
 <text x="1418" y="1228" text-anchor="middle" fill="#fca5a5" font-family="JetBrains Mono, monospace" font-size="10">Docs: rocm.github.io/iris - examples/ peer-to-peer + GEMM benchmarks</text>

 <!-- footer bar -->
 <rect x="60" y="1288" width="1800" height="72" rx="12" fill="#1a1208" stroke="#ef4444" stroke-width="2"/>
 <text x="88" y="1316" fill="#ef4444" font-family="JetBrains Mono, monospace" font-size="16" font-weight="700">Design Position (GPU-initiated SHMEM RMA in Triton - low-level APIs for overlap pattern exploration)</text>
 <text x="960" y="1342" text-anchor="middle" fill="#fca5a5" font-family="JetBrains Mono, monospace" font-size="13">Symmetric heap + device load/store/atomic + fused WG specialization = eliminate multi-GPU performance taxes</text>

 <!-- footers -->
 <rect x="60" y="1376" width="1800" height="52" rx="8" fill="#111827" stroke="#475569"/>
 <text x="960" y="1396" text-anchor="middle" fill="#94a3b8" font-family="JetBrains Mono, monospace" font-size="11">Init: dist.init_process_group + iris.iris(heap) + ctx.zeros - pass get_heap_bases() to @triton.jit kernel</text>
 <text x="960" y="1414" text-anchor="middle" fill="#64748b" font-family="JetBrains Mono, monospace" font-size="10">Loop: compute tile - atomic release - iris.store/load RMA - consumer acquire - scatter - ctx.barrier</text>

 <text x="60" y="1460" fill="#64748b" font-family="JetBrains Mono, monospace" font-size="10">Sources: github.com/ROCm/iris - rocm.github.io/iris - arXiv 2511.12500 - arXiv 2511.02168 (perf taxes)</text>
</svg>
