<?xml version="1.0" encoding="UTF-8"?>
<svg xmlns="http://www.w3.org/2000/svg" width="1920" height="1520" viewBox="0 0 1920 1520">
 <defs>
  <linearGradient id="bg" x1="0" y1="0" x2="0" y2="1">
   <stop offset="0%" stop-color="#0a1628"/>
   <stop offset="100%" stop-color="#061018"/>
  </linearGradient>
  <marker id="arrow" markerWidth="10" markerHeight="8" refX="9" refY="4" orient="auto">
   <polygon points="0 0, 10 4, 0 8" fill="#7dd3fc"/>
  </marker>
  <marker id="arrow-green" markerWidth="10" markerHeight="8" refX="9" refY="4" orient="auto">
   <polygon points="0 0, 10 4, 0 8" fill="#76b900"/>
  </marker>
  <marker id="arrow-teal" markerWidth="10" markerHeight="8" refX="9" refY="4" orient="auto">
   <polygon points="0 0, 10 4, 0 8" fill="#14b8a6"/>
  </marker>
 </defs>

 <rect width="1920" height="1520" fill="url(#bg)"/>
 <g opacity="0.06" stroke="#1e3a5f" stroke-width="1">
  <path d="M0 40 H1920 M0 80 H1920 M0 120 H1920 M0 160 H1920 M0 200 H1920 M0 240 H1920 M0 280 H1920 M0 320 H1920 M0 360 H1920 M0 400 H1920 M0 440 H1920 M0 480 H1920 M0 520 H1920 M0 560 H1920 M0 600 H1920 M0 640 H1920 M0 720 H1920 M0 800 H1920 M0 880 H1920 M0 960 H1920 M0 1040 H1920 M0 1120 H1920 M0 1200 H1920 M0 1280 H1920 M0 1360 H1920 M0 1440 H1920"/>
 </g>

 <!-- title -->
 <text x="960" y="48" text-anchor="middle" fill="#e2e8f0" font-family="JetBrains Mono, monospace" font-size="32" font-weight="700">Tilus Architecture</text>
 <text x="960" y="76" text-anchor="middle" fill="#94a3b8" font-family="JetBrains Mono, monospace" font-size="14">GPGPU Virtual Machine + Algebraic Layout - Low-Precision LLM Serving - ASPLOS 2026 - github.com/NVIDIA/tilus</text>

 <!-- L1 Applications -->
 <rect x="60" y="96" width="1800" height="100" rx="12" fill="#0f2744" stroke="#76b900" stroke-width="2"/>
 <text x="88" y="124" fill="#76b900" font-family="JetBrains Mono, monospace" font-size="16" font-weight="700">L1 - Applications + Integration (LLM serving with arbitrary low-precision quant matmul)</text>
 <g font-family="JetBrains Mono, monospace" font-size="12" fill="#e2e8f0">
  <rect x="88" y="136" width="80" height="40" rx="6" fill="#1a2e05" stroke="#76b900"/><text x="128" y="162" text-anchor="middle">quant GEMM</text>
  <rect x="180" y="136" width="70" height="40" rx="6" fill="#1a2e05" stroke="#76b900"/><text x="215" y="162" text-anchor="middle">decode</text>
  <rect x="262" y="136" width="60" height="40" rx="6" fill="#1a2e05" stroke="#76b900"/><text x="292" y="162" text-anchor="middle">prefill</text>
  <rect x="334" y="136" width="80" height="40" rx="6" fill="#1a2e05" stroke="#76b900"/><text x="374" y="162" text-anchor="middle">Llama-3.3</text>
  <rect x="426" y="136" width="80" height="40" rx="6" fill="#1a2e05" stroke="#76b900"/><text x="466" y="162" text-anchor="middle">Qwen2.5</text>
  <rect x="518" y="136" width="70" height="40" rx="6" fill="#1a2e05" stroke="#76b900"/><text x="553" y="162" text-anchor="middle">Gemma-2</text>
  <rect x="600" y="136" width="60" height="40" rx="6" fill="#0c2d2d" stroke="#2dd4bf"/><text x="630" y="162" text-anchor="middle">vLLM</text>
  <rect x="672" y="136" width="80" height="40" rx="6" fill="#0c2d2d" stroke="#2dd4bf"/><text x="712" y="162" text-anchor="middle">sub-channel</text>
  <rect x="764" y="136" width="50" height="40" rx="6" fill="#431407" stroke="#fb923c"/><text x="789" y="162" text-anchor="middle">u1-u8</text>
  <rect x="826" y="136" width="50" height="40" rx="6" fill="#431407" stroke="#fb923c"/><text x="851" y="162" text-anchor="middle">i1-i8</text>
  <rect x="888" y="136" width="50" height="40" rx="6" fill="#431407" stroke="#fb923c"/><text x="913" y="162" text-anchor="middle">f3-f8</text>
  <rect x="950" y="136" width="60" height="40" rx="6" fill="#431407" stroke="#fb923c"/><text x="980" y="162" text-anchor="middle">A16W4</text>
  <rect x="1022" y="136" width="60" height="40" rx="6" fill="#431407" stroke="#fb923c"/><text x="1052" y="162" text-anchor="middle">A16W6</text>
  <rect x="1094" y="136" width="70" height="40" rx="6" fill="#241a3d" stroke="#a78bfa"/><text x="1129" y="162" text-anchor="middle">@tilus.jit</text>
  <rect x="1176" y="136" width="60" height="40" rx="6" fill="#241a3d" stroke="#a78bfa"/><text x="1206" y="162" text-anchor="middle">PyTorch</text>
  <rect x="1248" y="136" width="70" height="40" rx="6" fill="#132f4c" stroke="#22d3ee"/><text x="1283" y="162" text-anchor="middle">NVIDIA</text>
  <rect x="1330" y="136" width="70" height="40" rx="6" fill="#132f4c" stroke="#22d3ee"/><text x="1365" y="162" text-anchor="middle">ASPLOS</text>
  <rect x="1412" y="136" width="60" height="40" rx="6" fill="#132f4c" stroke="#22d3ee"/><text x="1442" y="162" text-anchor="middle">2026</text>
  <rect x="1484" y="136" width="60" height="40" rx="6" fill="#1a2e05" stroke="#76b900"/><text x="1514" y="162" text-anchor="middle">arXiv</text>
  <rect x="1556" y="136" width="70" height="40" rx="6" fill="#1a2e05" stroke="#76b900"/><text x="1591" y="162" text-anchor="middle">v0.1.1</text>
  <rect x="1638" y="136" width="80" height="40" rx="6" fill="#431407" stroke="#fb923c"/><text x="1678" y="162" text-anchor="middle">1 template</text>
  <rect x="1730" y="136" width="118" height="40" rx="6" fill="#431407" stroke="#fb923c"/><text x="1789" y="162" text-anchor="middle">all quant types</text>
 </g>
 <line x1="960" y1="196" x2="960" y2="214" stroke="#7dd3fc" stroke-width="2" marker-end="url(#arrow)"/>

 <!-- L2 DSL Frontend -->
 <rect x="60" y="216" width="1800" height="120" rx="12" fill="#0f2744" stroke="#76b900" stroke-width="2"/>
 <text x="88" y="244" fill="#76b900" font-family="JetBrains Mono, monospace" font-size="16" font-weight="700">L2 - Python DSL Frontend (thread-block-level VM program - explicit memory hierarchy)</text>
 <rect x="88" y="258" width="340" height="64" rx="10" fill="#1a2e05" stroke="#76b900" stroke-width="2"/>
 <text x="258" y="282" text-anchor="middle" fill="#ecfccb" font-family="JetBrains Mono, monospace" font-size="13" font-weight="700">Thread-Block Programming Model</text>
 <text x="258" y="300" text-anchor="middle" fill="#d9f99d" font-family="JetBrains Mono, monospace" font-size="10">Grid shape + params + program body</text>
 <text x="258" y="314" text-anchor="middle" fill="#d9f99d" font-family="JetBrains Mono, monospace" font-size="10">for/if/while retained - not lowered to jumps</text>
 <rect x="448" y="258" width="340" height="64" rx="10" fill="#1a2e05" stroke="#76b900" stroke-width="2"/>
 <text x="618" y="282" text-anchor="middle" fill="#ecfccb" font-family="JetBrains Mono, monospace" font-size="13" font-weight="700">Hierarchical Memory Spaces</text>
 <text x="618" y="300" text-anchor="middle" fill="#d9f99d" font-family="JetBrains Mono, monospace" font-size="10">Global - Shared - Register tensors explicit</text>
 <text x="618" y="314" text-anchor="middle" fill="#d9f99d" font-family="JetBrains Mono, monospace" font-size="10">Unlike Triton: full mem hierarchy exposed</text>
 <rect x="808" y="258" width="340" height="64" rx="10" fill="#241a3d" stroke="#a78bfa" stroke-width="2"/>
 <text x="978" y="282" text-anchor="middle" fill="#ede9fe" font-family="JetBrains Mono, monospace" font-size="13" font-weight="700">Algebraic Layout Annotations</text>
 <text x="978" y="300" text-anchor="middle" fill="#c4b5fd" font-family="JetBrains Mono, monospace" font-size="10">local(n,m) - spatial(n,m) - composition</text>
 <text x="978" y="314" text-anchor="middle" fill="#c4b5fd" font-family="JetBrains Mono, monospace" font-size="10">column_spatial - column_repeat - mma layout</text>
 <rect x="1168" y="258" width="340" height="64" rx="10" fill="#431407" stroke="#fb923c" stroke-width="2"/>
 <text x="1338" y="282" text-anchor="middle" fill="#ffedd5" font-family="JetBrains Mono, monospace" font-size="13" font-weight="700">Arbitrary Low-Precision Types</text>
 <text x="1338" y="300" text-anchor="middle" fill="#fed7aa" font-family="JetBrains Mono, monospace" font-size="10">1-8 bit signed/unsigned int + custom float</text>
 <text x="1338" y="314" text-anchor="middle" fill="#fed7aa" font-family="JetBrains Mono, monospace" font-size="10">e4m3 - e3m2 - e2m1 - non-power-of-2 bits</text>
 <rect x="1528" y="258" width="300" height="64" rx="10" fill="#132f4c" stroke="#22d3ee" stroke-width="2"/>
 <text x="1678" y="282" text-anchor="middle" fill="#e0f2fe" font-family="JetBrains Mono, monospace" font-size="13" font-weight="700">Pythonic Kernel API</text>
 <text x="1678" y="300" text-anchor="middle" fill="#7dd3fc" font-family="JetBrains Mono, monospace" font-size="10">tilus.language - tensor views - dtype spec</text>
 <text x="1678" y="314" text-anchor="middle" fill="#7dd3fc" font-family="JetBrains Mono, monospace" font-size="10">Inspired by Triton tile model + Hexcute layout</text>
 <line x1="960" y1="336" x2="960" y2="354" stroke="#7dd3fc" stroke-width="2" marker-end="url(#arrow)"/>

 <!-- L3 VM IR -->
 <rect x="60" y="356" width="1800" height="88" rx="12" fill="#0f2744" stroke="#38bdf8" stroke-width="2"/>
 <text x="88" y="384" fill="#38bdf8" font-family="JetBrains Mono, monospace" font-size="16" font-weight="700">L3 - VM IR (GPGPU virtual machine program - block-level instruction set)</text>
 <g font-family="JetBrains Mono, monospace" font-size="11" fill="#e0f2fe">
  <rect x="88" y="396" width="90" height="32" rx="6" fill="#132f4c" stroke="#22d3ee"/><text x="133" y="418" text-anchor="middle">BlockIndices</text>
  <rect x="190" y="396" width="80" height="32" rx="6" fill="#132f4c" stroke="#22d3ee"/><text x="230" y="418" text-anchor="middle">MakeTensor</text>
  <rect x="282" y="396" width="80" height="32" rx="6" fill="#132f4c" stroke="#22d3ee"/><text x="322" y="418" text-anchor="middle">LoadGlobal</text>
  <rect x="374" y="396" width="80" height="32" rx="6" fill="#132f4c" stroke="#22d3ee"/><text x="414" y="418" text-anchor="middle">StoreGlobal</text>
  <rect x="466" y="396" width="80" height="32" rx="6" fill="#132f4c" stroke="#22d3ee"/><text x="506" y="418" text-anchor="middle">LoadShared</text>
  <rect x="558" y="396" width="80" height="32" rx="6" fill="#132f4c" stroke="#22d3ee"/><text x="598" y="418" text-anchor="middle">StoreShared</text>
  <rect x="650" y="396" width="80" height="32" rx="6" fill="#241a3d" stroke="#a78bfa"/><text x="690" y="418" text-anchor="middle">Reinterpret</text>
  <rect x="742" y="396" width="50" height="32" rx="6" fill="#241a3d" stroke="#a78bfa"/><text x="767" y="418" text-anchor="middle">Cast</text>
  <rect x="804" y="396" width="50" height="32" rx="6" fill="#241a3d" stroke="#a78bfa"/><text x="829" y="418" text-anchor="middle">MMA</text>
  <rect x="866" y="396" width="70" height="32" rx="6" fill="#241a3d" stroke="#a78bfa"/><text x="901" y="418" text-anchor="middle">AsyncCopy</text>
  <rect x="948" y="396" width="80" height="32" rx="6" fill="#132f4c" stroke="#22d3ee"/><text x="988" y="418" text-anchor="middle">Synchronize</text>
  <rect x="1040" y="396" width="70" height="32" rx="6" fill="#1a2e05" stroke="#76b900"/><text x="1075" y="418" text-anchor="middle">grid shape</text>
  <rect x="1122" y="396" width="60" height="32" rx="6" fill="#1a2e05" stroke="#76b900"/><text x="1152" y="418" text-anchor="middle">params</text>
  <rect x="1194" y="396" width="80" height="32" rx="6" fill="#1a2e05" stroke="#76b900"/><text x="1234" y="418" text-anchor="middle">in-place out</text>
  <rect x="1286" y="396" width="80" height="32" rx="6" fill="#431407" stroke="#fb923c"/><text x="1326" y="418" text-anchor="middle">tensor view</text>
  <rect x="1378" y="396" width="80" height="32" rx="6" fill="#431407" stroke="#fb923c"/><text x="1418" y="418" text-anchor="middle">layout spec</text>
  <rect x="1470" y="396" width="90" height="32" rx="6" fill="#431407" stroke="#fb923c"/><text x="1515" y="418" text-anchor="middle">dtype/shape</text>
  <rect x="1572" y="396" width="80" height="32" rx="6" fill="#0c2d2d" stroke="#2dd4bf"/><text x="1612" y="418" text-anchor="middle">block-level</text>
  <rect x="1664" y="396" width="184" height="32" rx="6" fill="#0c2d2d" stroke="#2dd4bf"/><text x="1756" y="418" text-anchor="middle">whole thread block per instruction</text>
 </g>
 <line x1="960" y1="444" x2="960" y2="462" stroke="#7dd3fc" stroke-width="2" marker-end="url(#arrow)"/>

 <!-- L4 Core Systems -->
 <rect x="60" y="464" width="1800" height="200" rx="12" fill="#0f2744" stroke="#76b900" stroke-width="2.5"/>
 <text x="88" y="492" fill="#76b900" font-family="JetBrains Mono, monospace" font-size="16" font-weight="700">L4 - Three Core VM Subsystems (layout algebra - memory hierarchy - low-precision pipeline)</text>

 <rect x="88" y="508" width="420" height="136" rx="12" fill="#241a3d" stroke="#a78bfa" stroke-width="2"/>
 <text x="298" y="536" text-anchor="middle" fill="#ede9fe" font-family="JetBrains Mono, monospace" font-size="14" font-weight="700">Algebraic Layout System</text>
 <text x="298" y="560" text-anchor="middle" fill="#c4b5fd" font-family="JetBrains Mono, monospace" font-size="10">f(t,i) maps thread + local idx to logical idx</text>
 <text x="298" y="578" text-anchor="middle" fill="#c4b5fd" font-family="JetBrains Mono, monospace" font-size="10">Primitives: local(n,m) and spatial(n,m)</text>
 <text x="298" y="596" text-anchor="middle" fill="#c4b5fd" font-family="JetBrains Mono, monospace" font-size="10">Composition f o g - associative - not commutative</text>
 <text x="298" y="614" text-anchor="middle" fill="#c4b5fd" font-family="JetBrains Mono, monospace" font-size="10">Layout division h/g - inverse of composition</text>
 <text x="298" y="632" text-anchor="middle" fill="#c4b5fd" font-family="JetBrains Mono, monospace" font-size="10">Expresses mma.m16n8k16 tensor core layouts</text>

 <rect x="528" y="508" width="420" height="136" rx="12" fill="#1a2e05" stroke="#76b900" stroke-width="2"/>
 <text x="738" y="536" text-anchor="middle" fill="#ecfccb" font-family="JetBrains Mono, monospace" font-size="14" font-weight="700">Hierarchical Memory Management</text>
 <text x="738" y="560" text-anchor="middle" fill="#d9f99d" font-family="JetBrains Mono, monospace" font-size="10">Global mem: tensor views with offset + shape</text>
 <text x="738" y="578" text-anchor="middle" fill="#d9f99d" font-family="JetBrains Mono, monospace" font-size="10">Shared mem: block-visible pipelined staging</text>
 <text x="738" y="596" text-anchor="middle" fill="#d9f99d" font-family="JetBrains Mono, monospace" font-size="10">Registers: distributed register tensors per warp</text>
 <text x="738" y="614" text-anchor="middle" fill="#d9f99d" font-family="JetBrains Mono, monospace" font-size="10">Async pipelined GM-to-SM copy + SM-to-reg</text>
 <text x="738" y="632" text-anchor="middle" fill="#d9f99d" font-family="JetBrains Mono, monospace" font-size="10">Synchronize on shared/global memory deps</text>

 <rect x="968" y="508" width="420" height="136" rx="12" fill="#431407" stroke="#fb923c" stroke-width="2"/>
 <text x="1178" y="536" text-anchor="middle" fill="#ffedd5" font-family="JetBrains Mono, monospace" font-size="14" font-weight="700">Low-Precision Data Pipeline</text>
 <text x="1178" y="560" text-anchor="middle" fill="#fed7aa" font-family="JetBrains Mono, monospace" font-size="10">Compact sub-byte storage in uint8 arrays</text>
 <text x="1178" y="578" text-anchor="middle" fill="#fed7aa" font-family="JetBrains Mono, monospace" font-size="10">Preprocess: change global layout for coalesced load</text>
 <text x="1178" y="596" text-anchor="middle" fill="#fed7aa" font-family="JetBrains Mono, monospace" font-size="10">Zero-cost Reinterpret in registers (same bit/thread)</text>
 <text x="1178" y="614" text-anchor="middle" fill="#fed7aa" font-family="JetBrains Mono, monospace" font-size="10">Vectorized Cast: PRMT + LOP3 + bitwise on CUDA</text>
 <text x="1178" y="632" text-anchor="middle" fill="#fed7aa" font-family="JetBrains Mono, monospace" font-size="10">Fallback: bitwise AND/SHIFT/OR for arbitrary bits</text>

 <rect x="1408" y="508" width="420" height="136" rx="12" fill="#132f4c" stroke="#22d3ee" stroke-width="2"/>
 <text x="1618" y="536" text-anchor="middle" fill="#e0f2fe" font-family="JetBrains Mono, monospace" font-size="14" font-weight="700">Weight Loading Strategy (Figure 2)</text>
 <text x="1618" y="560" text-anchor="middle" fill="#7dd3fc" font-family="JetBrains Mono, monospace" font-size="10">1 AsyncCopy global to shared (pipelined)</text>
 <text x="1618" y="578" text-anchor="middle" fill="#7dd3fc" font-family="JetBrains Mono, monospace" font-size="10">2 LoadShared register tensor from shared</text>
 <text x="1618" y="596" text-anchor="middle" fill="#7dd3fc" font-family="JetBrains Mono, monospace" font-size="10">3 Reinterpret dtype/layout at zero cost</text>
 <text x="1618" y="614" text-anchor="middle" fill="#7dd3fc" font-family="JetBrains Mono, monospace" font-size="10">4 Vectorized Cast to f16/bf16 for Tensor Core</text>
 <text x="1618" y="632" text-anchor="middle" fill="#7dd3fc" font-family="JetBrains Mono, monospace" font-size="10">No shared-mem layout conversion (vs Triton)</text>

 <line x1="960" y1="644" x2="960" y2="662" stroke="#7dd3fc" stroke-width="2" marker-end="url(#arrow)"/>

 <!-- L5 Compiler -->
 <rect x="60" y="664" width="1800" height="120" rx="12" fill="#0f2744" stroke="#76b900" stroke-width="2"/>
 <text x="88" y="692" fill="#76b900" font-family="JetBrains Mono, monospace" font-size="16" font-weight="700">L5 - Compiler Pipeline (DSL to VM IR - optimize - Hidet IR - CUDA C - nvcc binary)</text>
 <rect x="88" y="706" width="340" height="64" rx="10" fill="#1a2e05" stroke="#76b900" stroke-width="2"/>
 <text x="258" y="730" text-anchor="middle" fill="#ecfccb" font-family="JetBrains Mono, monospace" font-size="13" font-weight="700">Python DSL to VM IR</text>
 <text x="258" y="748" text-anchor="middle" fill="#d9f99d" font-family="JetBrains Mono, monospace" font-size="10">Parse Python kernel - build VM program IR</text>
 <text x="258" y="762" text-anchor="middle" fill="#d9f99d" font-family="JetBrains Mono, monospace" font-size="10">~20K LOC Python + C++ compiler stack</text>
 <rect x="448" y="706" width="340" height="64" rx="10" fill="#241a3d" stroke="#a78bfa" stroke-width="2"/>
 <text x="618" y="730" text-anchor="middle" fill="#ede9fe" font-family="JetBrains Mono, monospace" font-size="13" font-weight="700">Optimization Passes</text>
 <text x="618" y="748" text-anchor="middle" fill="#c4b5fd" font-family="JetBrains Mono, monospace" font-size="10">Eliminate redundancies - simplify arithmetic</text>
 <text x="618" y="762" text-anchor="middle" fill="#c4b5fd" font-family="JetBrains Mono, monospace" font-size="10">Layout-aware codegen - no extra conversions</text>
 <rect x="808" y="706" width="340" height="64" rx="10" fill="#0c2d2d" stroke="#2dd4bf" stroke-width="2"/>
 <text x="978" y="730" text-anchor="middle" fill="#ccfbf1" font-family="JetBrains Mono, monospace" font-size="13" font-weight="700">Codegen to Hidet IR</text>
 <text x="978" y="748" text-anchor="middle" fill="#99f6e4" font-family="JetBrains Mono, monospace" font-size="10">VM IR lowered to Hidet IR (CUDA C-like)</text>
 <text x="978" y="762" text-anchor="middle" fill="#99f6e4" font-family="JetBrains Mono, monospace" font-size="10">Reuse Hidet runtime - TVM-inspired infra</text>
 <rect x="1168" y="706" width="340" height="64" rx="10" fill="#431407" stroke="#fb923c" stroke-width="2"/>
 <text x="1338" y="730" text-anchor="middle" fill="#ffedd5" font-family="JetBrains Mono, monospace" font-size="13" font-weight="700">Low-Precision Lowering</text>
 <text x="1338" y="748" text-anchor="middle" fill="#fed7aa" font-family="JetBrains Mono, monospace" font-size="10">Section 6 transforms: sub-byte to std types</text>
 <text x="1338" y="762" text-anchor="middle" fill="#fed7aa" font-family="JetBrains Mono, monospace" font-size="10">Preserve semantics - emit PRMT/LOP3 paths</text>
 <rect x="1528" y="706" width="300" height="64" rx="10" fill="#132f4c" stroke="#22d3ee" stroke-width="2"/>
 <text x="1678" y="730" text-anchor="middle" fill="#e0f2fe" font-family="JetBrains Mono, monospace" font-size="13" font-weight="700">Auto-Tuning + Cache</text>
 <text x="1678" y="748" text-anchor="middle" fill="#7dd3fc" font-family="JetBrains Mono, monospace" font-size="10">~200 tile-size configs per operator</text>
 <text x="1678" y="762" text-anchor="middle" fill="#7dd3fc" font-family="JetBrains Mono, monospace" font-size="10">~1 min compile - kernel cache per signature</text>
 <line x1="960" y1="784" x2="960" y2="802" stroke="#7dd3fc" stroke-width="2" marker-end="url(#arrow)"/>

 <!-- L6 Backend Runtime -->
 <rect x="60" y="804" width="1800" height="120" rx="12" fill="#0f2744" stroke="#14b8a6" stroke-width="2"/>
 <text x="88" y="832" fill="#14b8a6" font-family="JetBrains Mono, monospace" font-size="16" font-weight="700">L6 - Hidet Backend + Runtime (CUDA C codegen - nvcc - dynamic binary load - PyTorch integration)</text>
 <rect x="88" y="846" width="340" height="64" rx="10" fill="#0c2d2d" stroke="#2dd4bf" stroke-width="2"/>
 <text x="258" y="870" text-anchor="middle" fill="#ccfbf1" font-family="JetBrains Mono, monospace" font-size="13" font-weight="700">Hidet IR Lowering</text>
 <text x="258" y="888" text-anchor="middle" fill="#99f6e4" font-family="JetBrains Mono, monospace" font-size="10">Task-mapping paradigm from ASPLOS 2023</text>
 <text x="258" y="902" text-anchor="middle" fill="#99f6e4" font-family="JetBrains Mono, monospace" font-size="10">hidet==0.6.1 dependency - CUDA C emit</text>
 <rect x="448" y="846" width="340" height="64" rx="10" fill="#1a2e05" stroke="#76b900" stroke-width="2"/>
 <text x="618" y="870" text-anchor="middle" fill="#ecfccb" font-family="JetBrains Mono, monospace" font-size="13" font-weight="700">nvcc Compilation</text>
 <text x="618" y="888" text-anchor="middle" fill="#d9f99d" font-family="JetBrains Mono, monospace" font-size="10">Hidet IR to CUDA C to PTX to SASS binary</text>
 <text x="618" y="902" text-anchor="middle" fill="#d9f99d" font-family="JetBrains Mono, monospace" font-size="10">Tensor Core mma - cp.async - PRMT intrinsics</text>
 <rect x="808" y="846" width="340" height="64" rx="10" fill="#132f4c" stroke="#22d3ee" stroke-width="2"/>
 <text x="978" y="870" text-anchor="middle" fill="#e0f2fe" font-family="JetBrains Mono, monospace" font-size="13" font-weight="700">Runtime System</text>
 <text x="978" y="888" text-anchor="middle" fill="#7dd3fc" font-family="JetBrains Mono, monospace" font-size="10">Dynamic binary load + launch dispatch</text>
 <text x="978" y="902" text-anchor="middle" fill="#7dd3fc" font-family="JetBrains Mono, monospace" font-size="10">Reuse Hidet runtime execution environment</text>
 <rect x="1168" y="846" width="340" height="64" rx="10" fill="#431407" stroke="#fb923c" stroke-width="2"/>
 <text x="1338" y="870" text-anchor="middle" fill="#ffedd5" font-family="JetBrains Mono, monospace" font-size="13" font-weight="700">PyTorch + vLLM Integration</text>
 <text x="1338" y="888" text-anchor="middle" fill="#fed7aa" font-family="JetBrains Mono, monospace" font-size="10">torch tensor I/O - custom quant matmul ops</text>
 <text x="1338" y="902" text-anchor="middle" fill="#fed7aa" font-family="JetBrains Mono, monospace" font-size="10">End-to-end LLM decode/prefill serving path</text>
 <rect x="1528" y="846" width="300" height="64" rx="10" fill="#241a3d" stroke="#a78bfa" stroke-width="2"/>
 <text x="1678" y="870" text-anchor="middle" fill="#ede9fe" font-family="JetBrains Mono, monospace" font-size="13" font-weight="700">Procedure-Oriented Design</text>
 <text x="1678" y="888" text-anchor="middle" fill="#c4b5fd" font-family="JetBrains Mono, monospace" font-size="10">Not loop-schedule like TVM/Ladder</text>
 <text x="1678" y="902" text-anchor="middle" fill="#c4b5fd" font-family="JetBrains Mono, monospace" font-size="10">Direct pipelining + mem control in VM</text>
 <line x1="960" y1="924" x2="960" y2="942" stroke="#7dd3fc" stroke-width="2" marker-end="url(#arrow)"/>

 <!-- L7 Hardware -->
 <rect x="60" y="944" width="1800" height="56" rx="12" fill="#0f2744" stroke="#22d3ee" stroke-width="2"/>
 <text x="88" y="972" fill="#22d3ee" font-family="JetBrains Mono, monospace" font-size="16" font-weight="700">L7 - Target Hardware (NVIDIA Ampere primary - Hopper/Blackwell roadmap - Tensor Cores)</text>
 <g font-family="JetBrains Mono, monospace" font-size="11" fill="#e0f2fe">
  <rect x="88" y="980" width="50" height="24" rx="5" fill="#1a2e05" stroke="#76b900"/><text x="113" y="997" text-anchor="middle">A100</text>
  <rect x="148" y="980" width="50" height="24" rx="5" fill="#1a2e05" stroke="#76b900"/><text x="173" y="997" text-anchor="middle">L40S</text>
  <rect x="208" y="980" width="50" height="24" rx="5" fill="#1a2e05" stroke="#76b900"/><text x="233" y="997" text-anchor="middle">H100</text>
  <rect x="268" y="980" width="50" height="24" rx="5" fill="#431407" stroke="#fb923c"/><text x="293" y="997" text-anchor="middle">sm80</text>
  <rect x="328" y="980" width="50" height="24" rx="5" fill="#431407" stroke="#fb923c"/><text x="353" y="997" text-anchor="middle">sm89</text>
  <rect x="388" y="980" width="50" height="24" rx="5" fill="#431407" stroke="#fb923c"/><text x="413" y="997" text-anchor="middle">sm90</text>
  <rect x="448" y="980" width="60" height="24" rx="5" fill="#134e4a" stroke="#5eead4"/><text x="478" y="997" text-anchor="middle">Ampere</text>
  <rect x="518" y="980" width="50" height="24" rx="5" fill="#134e4a" stroke="#5eead4"/><text x="543" y="997" text-anchor="middle">Ada</text>
  <rect x="578" y="980" width="60" height="24" rx="5" fill="#134e4a" stroke="#5eead4"/><text x="608" y="997" text-anchor="middle">Hopper</text>
  <rect x="648" y="980" width="70" height="24" rx="5" fill="#134e4a" stroke="#5eead4"/><text x="683" y="997" text-anchor="middle">TensorCore</text>
  <rect x="728" y="980" width="60" height="24" rx="5" fill="#134e4a" stroke="#5eead4"/><text x="758" y="997" text-anchor="middle">mma.m16</text>
  <rect x="798" y="980" width="50" height="24" rx="5" fill="#134e4a" stroke="#5eead4"/><text x="823" y="997" text-anchor="middle">cp.async</text>
  <rect x="858" y="980" width="40" height="24" rx="5" fill="#134e4a" stroke="#5eead4"/><text x="878" y="997" text-anchor="middle">PRMT</text>
  <rect x="908" y="980" width="40" height="24" rx="5" fill="#134e4a" stroke="#5eead4"/><text x="928" y="997" text-anchor="middle">LOP3</text>
  <rect x="958" y="980" width="50" height="24" rx="5" fill="#0c2d2d" stroke="#2dd4bf"/><text x="983" y="997" text-anchor="middle">registers</text>
  <rect x="1018" y="980" width="50" height="24" rx="5" fill="#0c2d2d" stroke="#2dd4bf"/><text x="1043" y="997" text-anchor="middle">shared</text>
  <rect x="1078" y="980" width="50" height="24" rx="5" fill="#0c2d2d" stroke="#2dd4bf"/><text x="1103" y="997" text-anchor="middle">global</text>
  <rect x="1138" y="980" width="50" height="24" rx="5" fill="#431407" stroke="#fb923c"/><text x="1163" y="997" text-anchor="middle">FP16</text>
  <rect x="1198" y="980" width="40" height="24" rx="5" fill="#431407" stroke="#fb923c"/><text x="1218" y="997" text-anchor="middle">BF16</text>
  <rect x="1248" y="980" width="40" height="24" rx="5" fill="#431407" stroke="#fb923c"/><text x="1268" y="997" text-anchor="middle">INT8</text>
  <rect x="1298" y="980" width="50" height="24" rx="5" fill="#431407" stroke="#fb923c"/><text x="1323" y="997" text-anchor="middle">sub-byte</text>
  <rect x="1358" y="980" width="60" height="24" rx="5" fill="#241a3d" stroke="#a78bfa"/><text x="1388" y="997" text-anchor="middle">Blackwell</text>
  <rect x="1428" y="980" width="80" height="24" rx="5" fill="#241a3d" stroke="#a78bfa"/><text x="1468" y="997" text-anchor="middle">roadmap #49</text>
  <rect x="1518" y="980" width="60" height="24" rx="5" fill="#132f4c" stroke="#22d3ee"/><text x="1548" y="997" text-anchor="middle">CUDA 12</text>
  <rect x="1588" y="980" width="40" height="24" rx="5" fill="#132f4c" stroke="#22d3ee"/><text x="1608" y="997" text-anchor="middle">nvcc</text>
  <rect x="1638" y="980" width="50" height="24" rx="5" fill="#1a2e05" stroke="#76b900"/><text x="1663" y="997" text-anchor="middle">cuBLAS</text>
  <rect x="1698" y="980" width="70" height="24" rx="5" fill="#1a2e05" stroke="#76b900"/><text x="1733" y="997" text-anchor="middle">1.75x Tri</text>
  <rect x="1778" y="980" width="70" height="24" rx="5" fill="#1a2e05" stroke="#76b900"/><text x="1813" y="997" text-anchor="middle">2.61x Lad</text>
 </g>

 <!-- DETAIL Pipeline -->
 <rect x="60" y="1016" width="880" height="340" rx="14" fill="#0c1524" stroke="#76b900" stroke-width="2.5"/>
 <text x="88" y="1048" fill="#76b900" font-family="JetBrains Mono, monospace" font-size="17" font-weight="700">Five-Stage Compile Pipeline</text>
 <text x="88" y="1070" fill="#d9f99d" font-family="JetBrains Mono, monospace" font-size="11">Python DSL - VM IR - optimize - Hidet IR - CUDA C - nvcc - cached binary launch</text>

 <rect x="88" y="1086" width="820" height="36" rx="6" fill="#1a2e05" stroke="#76b900"/>
 <text x="498" y="1110" text-anchor="middle" fill="#ecfccb" font-family="JetBrains Mono, monospace" font-size="11" font-weight="700">Stage 1 Parse: Python kernel to GPGPU VM program (grid, params, block-level instructions)</text>
 <line x1="498" y1="1122" x2="498" y2="1134" stroke="#76b900" stroke-width="1.5" marker-end="url(#arrow-green)"/>
 <rect x="88" y="1136" width="820" height="36" rx="6" fill="#241a3d" stroke="#a78bfa"/>
 <text x="498" y="1160" text-anchor="middle" fill="#ede9fe" font-family="JetBrains Mono, monospace" font-size="11" font-weight="700">Stage 2 Layout+Mem: algebraic layout bind - register/shared/global tensor allocation</text>
 <line x1="498" y1="1172" x2="498" y2="1184" stroke="#a78bfa" stroke-width="1.5" marker-end="url(#arrow)"/>
 <rect x="88" y="1186" width="820" height="36" rx="6" fill="#431407" stroke="#fb923c"/>
 <text x="498" y="1210" text-anchor="middle" fill="#ffedd5" font-family="JetBrains Mono, monospace" font-size="11" font-weight="700">Stage 3 Optimize: IR passes - low-precision layout preprocess - cast lowering plan</text>
 <line x1="498" y1="1222" x2="498" y2="1234" stroke="#fb923c" stroke-width="1.5"/>
 <rect x="88" y="1236" width="820" height="36" rx="6" fill="#0c2d2d" stroke="#2dd4bf"/>
 <text x="498" y="1260" text-anchor="middle" fill="#ccfbf1" font-family="JetBrains Mono, monospace" font-size="11" font-weight="700">Stage 4 Codegen: VM IR to Hidet IR to CUDA C with PRMT/LOP3/mma intrinsics</text>
 <line x1="498" y1="1272" x2="498" y2="1284" stroke="#2dd4bf" stroke-width="1.5" marker-end="url(#arrow-teal)"/>
 <rect x="88" y="1286" width="820" height="36" rx="6" fill="#134e4a" stroke="#5eead4"/>
 <text x="498" y="1310" text-anchor="middle" fill="#ccfbf1" font-family="JetBrains Mono, monospace" font-size="11" font-weight="700">Stage 5 Launch: nvcc compile - autotune tile sizes (~200 configs) - cache - run on GPU</text>

 <text x="88" y="1344" fill="#64748b" font-family="JetBrains Mono, monospace" font-size="10">Example: FP16 x INT6 GEMM - BlockIndices - LoadGlobal(A) - AsyncCopy+Reinterpret+Cast(B) - MMA accumulate</text>

 <!-- DETAIL Position -->
 <rect x="960" y="1016" width="900" height="340" rx="14" fill="#0c1224" stroke="#76b900" stroke-width="2.5"/>
 <text x="988" y="1048" fill="#76b900" font-family="JetBrains Mono, monospace" font-size="17" font-weight="700">Design Position: GPGPU VM above Triton, below CUDA</text>
 <text x="988" y="1070" fill="#d9f99d" font-family="JetBrains Mono, monospace" font-size="11">Procedure-oriented VM with explicit mem hierarchy - native 1-8 bit types - Hidet backend</text>

 <text x="988" y="1094" fill="#94a3b8" font-family="JetBrains Mono, monospace" font-size="11" font-weight="700">Spectrum Comparison</text>
 <rect x="988" y="1104" width="200" height="68" rx="6" fill="#0c2d2d" stroke="#14b8a6"/>
 <text x="1088" y="1128" text-anchor="middle" fill="#ccfbf1" font-family="JetBrains Mono, monospace" font-size="11" font-weight="700">Triton</text>
 <text x="1088" y="1146" text-anchor="middle" fill="#99f6e4" font-family="JetBrains Mono, monospace" font-size="9">Tile model - no mem hierarchy</text>
 <text x="1088" y="1162" text-anchor="middle" fill="#99f6e4" font-family="JetBrains Mono, monospace" font-size="9">Manual sub-byte bitwise ops</text>
 <rect x="1200" y="1104" width="200" height="68" rx="6" fill="#241a3d" stroke="#6366f1"/>
 <text x="1300" y="1128" text-anchor="middle" fill="#e0e7ff" font-family="JetBrains Mono, monospace" font-size="11" font-weight="700">Ladder / TVM</text>
 <text x="1300" y="1146" text-anchor="middle" fill="#c7d2fe" font-family="JetBrains Mono, monospace" font-size="9">Schedule-oriented - power-of-2 bits</text>
 <text x="1300" y="1162" text-anchor="middle" fill="#c7d2fe" font-family="JetBrains Mono, monospace" font-size="9">No software pipelining primitives</text>
 <rect x="1412" y="1104" width="200" height="68" rx="6" fill="#431407" stroke="#fb923c"/>
 <text x="1512" y="1128" text-anchor="middle" fill="#ffedd5" font-family="JetBrains Mono, monospace" font-size="11" font-weight="700">Marlin / QuantLLM</text>
 <text x="1512" y="1146" text-anchor="middle" fill="#fed7aa" font-family="JetBrains Mono, monospace" font-size="9">Hand-crafted per quant scheme</text>
 <text x="1512" y="1162" text-anchor="middle" fill="#fed7aa" font-family="JetBrains Mono, monospace" font-size="9">Limited bit widths + maintainability</text>
 <rect x="1624" y="1104" width="224" height="68" rx="6" fill="#1a2e05" stroke="#76b900"/>
 <text x="1736" y="1128" text-anchor="middle" fill="#ecfccb" font-family="JetBrains Mono, monospace" font-size="11" font-weight="700">Tilus (this work)</text>
 <text x="1736" y="1146" text-anchor="middle" fill="#d9f99d" font-family="JetBrains Mono, monospace" font-size="9">VM + layout algebra + 1-8 bit native</text>
 <text x="1736" y="1162" text-anchor="middle" fill="#d9f99d" font-family="JetBrains Mono, monospace" font-size="9">1 template - all quant types - pipelined</text>

 <text x="988" y="1190" fill="#94a3b8" font-family="JetBrains Mono, monospace" font-size="11" font-weight="700">Key Architectural Decisions</text>
 <rect x="988" y="1200" width="130" height="48" rx="6" fill="#1a2e05" stroke="#76b900"/>
 <text x="1053" y="1222" text-anchor="middle" fill="#ecfccb" font-family="JetBrains Mono, monospace" font-size="10" font-weight="700">GPGPU VM</text>
 <text x="1053" y="1238" text-anchor="middle" fill="#d9f99d" font-family="JetBrains Mono, monospace" font-size="9">Block-level instructions</text>
 <rect x="1130" y="1200" width="130" height="48" rx="6" fill="#241a3d" stroke="#a78bfa"/>
 <text x="1195" y="1222" text-anchor="middle" fill="#ede9fe" font-family="JetBrains Mono, monospace" font-size="10" font-weight="700">Layout algebra</text>
 <text x="1195" y="1238" text-anchor="middle" fill="#c4b5fd" font-family="JetBrains Mono, monospace" font-size="9">Zero-cost reinterpret</text>
 <rect x="1272" y="1200" width="130" height="48" rx="6" fill="#431407" stroke="#fb923c"/>
 <text x="1337" y="1222" text-anchor="middle" fill="#ffedd5" font-family="JetBrains Mono, monospace" font-size="10" font-weight="700">1-8 bit types</text>
 <text x="1337" y="1238" text-anchor="middle" fill="#fed7aa" font-family="JetBrains Mono, monospace" font-size="9">Arbitrary exponent/mantissa</text>
 <rect x="1414" y="1200" width="130" height="48" rx="6" fill="#0c2d2d" stroke="#2dd4bf"/>
 <text x="1479" y="1222" text-anchor="middle" fill="#ccfbf1" font-family="JetBrains Mono, monospace" font-size="10" font-weight="700">Hidet backend</text>
 <text x="1479" y="1238" text-anchor="middle" fill="#99f6e4" font-family="JetBrains Mono, monospace" font-size="9">CUDA C + nvcc path</text>
 <rect x="1556" y="1200" width="130" height="48" rx="6" fill="#132f4c" stroke="#22d3ee"/>
 <text x="1621" y="1222" text-anchor="middle" fill="#e0f2fe" font-family="JetBrains Mono, monospace" font-size="10" font-weight="700">Explicit mem</text>
 <text x="1621" y="1238" text-anchor="middle" fill="#7dd3fc" font-family="JetBrains Mono, monospace" font-size="9">Reg/shared/global control</text>
 <rect x="1698" y="1200" width="150" height="48" rx="6" fill="#1a2e05" stroke="#76b900"/>
 <text x="1773" y="1222" text-anchor="middle" fill="#ecfccb" font-family="JetBrains Mono, monospace" font-size="10" font-weight="700">Single template</text>
 <text x="1773" y="1238" text-anchor="middle" fill="#d9f99d" font-family="JetBrains Mono, monospace" font-size="9">All quant matmul variants</text>

 <text x="988" y="1268" fill="#94a3b8" font-family="JetBrains Mono, monospace" font-size="11" font-weight="700">Performance vs Baselines (quant matmul on L40S)</text>
 <rect x="988" y="1278" width="860" height="48" rx="6" fill="#1a1208" stroke="#76b900"/>
 <text x="1418" y="1302" text-anchor="middle" fill="#ecfccb" font-family="JetBrains Mono, monospace" font-size="12">1.75x Triton - 2.61x Ladder - 1.29x QuantLLM - 1.03x Marlin</text>
 <text x="1418" y="1318" text-anchor="middle" fill="#d9f99d" font-family="JetBrains Mono, monospace" font-size="10">Full spectrum u1-u8 / i2-i8 / f3-f8 from one parameterized VM program template</text>

 <!-- footer bar -->
 <rect x="60" y="1370" width="1800" height="72" rx="12" fill="#1a1208" stroke="#76b900" stroke-width="2"/>
 <text x="88" y="1398" fill="#76b900" font-family="JetBrains Mono, monospace" font-size="16" font-weight="700">Design Position (NVIDIA GPGPU VM for low-precision LLM serving - between Triton and hand-crafted kernels)</text>
 <text x="960" y="1424" text-anchor="middle" fill="#d9f99d" font-family="JetBrains Mono, monospace" font-size="13">Thread-block VM + algebraic layout + explicit mem hierarchy - Hidet IR backend - arbitrary 1-8 bit quant</text>

 <!-- footers -->
 <rect x="60" y="1458" width="1800" height="36" rx="8" fill="#111827" stroke="#475569"/>
 <text x="960" y="1480" text-anchor="middle" fill="#94a3b8" font-family="JetBrains Mono, monospace" font-size="10">Init: pip install tilus - write @tilus kernel - autotune tile sizes - integrate into vLLM for decode/prefill serving</text>

 <text x="60" y="1510" fill="#64748b" font-family="JetBrains Mono, monospace" font-size="10">Sources: github.com/NVIDIA/tilus - arXiv:2504.12984 - ASPLOS 2026 - hidet 0.6.1 - Apache-2.0 - Toronto/NVIDIA research</text>
</svg>
