<?xml version="1.0" encoding="UTF-8"?>
<svg xmlns="http://www.w3.org/2000/svg" width="1920" height="1520" viewBox="0 0 1920 1520">
 <defs>
  <linearGradient id="bg" x1="0" y1="0" x2="0" y2="1">
   <stop offset="0%" stop-color="#0a1628"/>
   <stop offset="100%" stop-color="#061018"/>
  </linearGradient>
  <marker id="arrow" markerWidth="10" markerHeight="8" refX="9" refY="4" orient="auto">
   <polygon points="0 0, 10 4, 0 8" fill="#7dd3fc"/>
  </marker>
  <marker id="arrow-green" markerWidth="10" markerHeight="8" refX="9" refY="4" orient="auto">
   <polygon points="0 0, 10 4, 0 8" fill="#76b900"/>
  </marker>
  <marker id="arrow-cyan" markerWidth="10" markerHeight="8" refX="9" refY="4" orient="auto">
   <polygon points="0 0, 10 4, 0 8" fill="#22d3ee"/>
  </marker>
  <marker id="arrow-orange" markerWidth="10" markerHeight="8" refX="9" refY="4" orient="auto">
   <polygon points="0 0, 10 4, 0 8" fill="#fb923c"/>
  </marker>
 </defs>

 <rect width="1920" height="1520" fill="url(#bg)"/>
 <g opacity="0.06" stroke="#1e3a5f" stroke-width="1">
  <path d="M0 40 H1920 M0 80 H1920 M0 120 H1920 M0 160 H1920 M0 200 H1920 M0 240 H1920 M0 280 H1920 M0 320 H1920 M0 360 H1920 M0 400 H1920 M0 440 H1920 M0 480 H1920 M0 520 H1920 M0 560 H1920 M0 600 H1920 M0 640 H1920 M0 720 H1920 M0 880 H1920 M0 960 H1920 M0 1040 H1920 M0 1120 H1920 M0 1200 H1920 M0 1280 H1920 M0 1360 H1920 M0 1440 H1920"/>
 </g>

 <!-- title -->
 <text x="960" y="48" text-anchor="middle" fill="#e2e8f0" font-family="JetBrains Mono, monospace" font-size="32" font-weight="700">Transformer Engine Architecture</text>
 <text x="960" y="76" text-anchor="middle" fill="#94a3b8" font-family="JetBrains Mono, monospace" font-size="14">NVIDIA FP8/FP4 Transformer acceleration library - github.com/NVIDIA/TransformerEngine - PyTorch + JAX + shared C++ core</text>

 <!-- L1 Workloads -->
 <rect x="60" y="96" width="1800" height="100" rx="12" fill="#0f2744" stroke="#76b900" stroke-width="2"/>
 <text x="88" y="124" fill="#76b900" font-family="JetBrains Mono, monospace" font-size="16" font-weight="700">L1 - Framework Integration + Workloads (LLM pretrain/finetune/inference - MoE - multimodal - FP8 on Hopper/Blackwell)</text>
 <g font-family="JetBrains Mono, monospace" font-size="12" fill="#e2e8f0">
  <rect x="88" y="136" width="50" height="40" rx="6" fill="#431407" stroke="#fb923c"/><text x="113" y="162" text-anchor="middle">PyTorch</text>
  <rect x="150" y="136" width="40" height="40" rx="6" fill="#431407" stroke="#fb923c"/><text x="170" y="162" text-anchor="middle">JAX</text>
  <rect x="202" y="136" width="50" height="40" rx="6" fill="#422006" stroke="#fbbf24"/><text x="227" y="162" text-anchor="middle">Megatron</text>
  <rect x="264" y="136" width="40" height="40" rx="6" fill="#422006" stroke="#fbbf24"/><text x="284" y="162" text-anchor="middle">NeMo</text>
  <rect x="316" y="136" width="50" height="40" rx="6" fill="#422006" stroke="#fbbf24"/><text x="341" y="162" text-anchor="middle">DeepSpeed</text>
  <rect x="378" y="136" width="50" height="40" rx="6" fill="#422006" stroke="#fbbf24"/><text x="403" y="162" text-anchor="middle">HF Accel</text>
  <rect x="440" y="136" width="50" height="40" rx="6" fill="#422006" stroke="#fbbf24"/><text x="465" y="162" text-anchor="middle">Lightning</text>
  <rect x="502" y="136" width="40" height="40" rx="6" fill="#422006" stroke="#fbbf24"/><text x="522" y="162" text-anchor="middle">MoE</text>
  <rect x="554" y="136" width="40" height="40" rx="6" fill="#422006" stroke="#fbbf24"/><text x="574" y="162" text-anchor="middle">LLM</text>
  <rect x="606" y="136" width="50" height="40" rx="6" fill="#422006" stroke="#fbbf24"/><text x="631" y="162" text-anchor="middle">Train</text>
  <rect x="668" y="136" width="50" height="40" rx="6" fill="#422006" stroke="#fbbf24"/><text x="693" y="162" text-anchor="middle">Infer</text>
  <rect x="730" y="136" width="40" height="40" rx="6" fill="#1a2e05" stroke="#76b900"/><text x="750" y="162" text-anchor="middle">FP8</text>
  <rect x="782" y="136" width="50" height="40" rx="6" fill="#1a2e05" stroke="#76b900"/><text x="807" y="162" text-anchor="middle">MXFP8</text>
  <rect x="844" y="136" width="50" height="40" rx="6" fill="#1a2e05" stroke="#76b900"/><text x="869" y="162" text-anchor="middle">NVFP4</text>
  <rect x="906" y="136" width="50" height="40" rx="6" fill="#132f4c" stroke="#22d3ee"/><text x="931" y="162" text-anchor="middle">BF16</text>
  <rect x="968" y="136" width="50" height="40" rx="6" fill="#132f4c" stroke="#22d3ee"/><text x="993" y="162" text-anchor="middle">FP16</text>
  <rect x="1030" y="136" width="50" height="40" rx="6" fill="#134e4a" stroke="#5eead4"/><text x="1055" y="162" text-anchor="middle">H100</text>
  <rect x="1092" y="136" width="50" height="40" rx="6" fill="#134e4a" stroke="#5eead4"/><text x="1117" y="162" text-anchor="middle">B200</text>
  <rect x="1154" y="136" width="50" height="40" rx="6" fill="#134e4a" stroke="#5eead4"/><text x="1179" y="162" text-anchor="middle">A100</text>
  <rect x="1216" y="136" width="50" height="40" rx="6" fill="#134e4a" stroke="#5eead4"/><text x="1241" y="162" text-anchor="middle">Hopper</text>
  <rect x="1278" y="136" width="50" height="40" rx="6" fill="#134e4a" stroke="#5eead4"/><text x="1303" y="162" text-anchor="middle">Blackwell</text>
  <rect x="1340" y="136" width="50" height="40" rx="6" fill="#241a3d" stroke="#a78bfa"/><text x="1365" y="162" text-anchor="middle">cuBLASLt</text>
  <rect x="1402" y="136" width="50" height="40" rx="6" fill="#241a3d" stroke="#a78bfa"/><text x="1427" y="162" text-anchor="middle">cuDNN</text>
  <rect x="1464" y="136" width="50" height="40" rx="6" fill="#241a3d" stroke="#a78bfa"/><text x="1489" y="162" text-anchor="middle">CUTLASS</text>
  <rect x="1526" y="136" width="50" height="40" rx="6" fill="#312e81" stroke="#818cf8"/><text x="1551" y="162" text-anchor="middle">FlashAttn</text>
  <rect x="1588" y="136" width="50" height="40" rx="6" fill="#134e4a" stroke="#5eead4"/><text x="1613" y="162" text-anchor="middle">CUDA</text>
  <rect x="1650" y="136" width="50" height="40" rx="6" fill="#134e4a" stroke="#5eead4"/><text x="1675" y="162" text-anchor="middle">NVIDIA</text>
  <rect x="1712" y="136" width="50" height="40" rx="6" fill="#1a2e05" stroke="#76b900"/><text x="1737" y="162" text-anchor="middle">Apache2</text>
  <rect x="1774" y="136" width="40" height="40" rx="6" fill="#1a2e05" stroke="#76b900"/><text x="1794" y="162" text-anchor="middle">v2</text>
  <rect x="1826" y="136" width="24" height="40" rx="6" fill="#1a2e05" stroke="#76b900"/><text x="1838" y="162" text-anchor="middle">.15</text>
 </g>
 <line x1="960" y1="196" x2="960" y2="214" stroke="#7dd3fc" stroke-width="2" marker-end="url(#arrow)"/>

 <!-- L2 Programming Model -->
 <rect x="60" y="216" width="1800" height="120" rx="12" fill="#0f2744" stroke="#76b900" stroke-width="2"/>
 <text x="88" y="244" fill="#76b900" font-family="JetBrains Mono, monospace" font-size="16" font-weight="700">L2 - Three-Tier Model (Python modules - C++ extensions - libtransformer_engine.so shared core)</text>
 <rect x="88" y="258" width="340" height="64" rx="10" fill="#1a2e05" stroke="#76b900" stroke-width="2"/>
 <text x="258" y="282" text-anchor="middle" fill="#ecfccb" font-family="JetBrains Mono, monospace" font-size="13" font-weight="700">FP8 Autocast + Recipe</text>
 <text x="258" y="300" text-anchor="middle" fill="#d9f99d" font-family="JetBrains Mono, monospace" font-size="10">te.autocast / fp8_autocast context manager</text>
 <text x="258" y="314" text-anchor="middle" fill="#d9f99d" font-family="JetBrains Mono, monospace" font-size="10">recipe.DelayedScaling MXFP8 NVFP4 configs</text>
 <rect x="448" y="258" width="340" height="64" rx="10" fill="#431407" stroke="#fb923c" stroke-width="2"/>
 <text x="618" y="282" text-anchor="middle" fill="#ffedd5" font-family="JetBrains Mono, monospace" font-size="13" font-weight="700">PyTorch API Layer</text>
 <text x="618" y="300" text-anchor="middle" fill="#fed7aa" font-family="JetBrains Mono, monospace" font-size="10">torch.autograd.Function + nn.Module wrappers</text>
 <text x="618" y="314" text-anchor="middle" fill="#fed7aa" font-family="JetBrains Mono, monospace" font-size="10">TP column/row parallel + Userbuffers overlap</text>
 <rect x="808" y="258" width="340" height="64" rx="10" fill="#422006" stroke="#fbbf24" stroke-width="2"/>
 <text x="978" y="282" text-anchor="middle" fill="#fef3c7" font-family="JetBrains Mono, monospace" font-size="13" font-weight="700">JAX API Layer</text>
 <text x="978" y="300" text-anchor="middle" fill="#fde68a" font-family="JetBrains Mono, monospace" font-size="10">Flax DenseGeneral + custom JAX primitives</text>
 <text x="978" y="314" text-anchor="middle" fill="#fde68a" font-family="JetBrains Mono, monospace" font-size="10">FFI bridge to same C++ kernels as PyTorch</text>
 <rect x="1168" y="258" width="340" height="64" rx="10" fill="#132f4c" stroke="#22d3ee" stroke-width="2"/>
 <text x="1338" y="282" text-anchor="middle" fill="#e0f2fe" font-family="JetBrains Mono, monospace" font-size="13" font-weight="700">C++ Extension Bridge</text>
 <text x="1338" y="300" text-anchor="middle" fill="#7dd3fc" font-family="JetBrains Mono, monospace" font-size="10">pybind11 transformer_engine_torch module</text>
 <text x="1338" y="314" text-anchor="middle" fill="#7dd3fc" font-family="JetBrains Mono, monospace" font-size="10">at::Tensor to NVTETensor / TensorWrapper</text>
 <rect x="1528" y="258" width="300" height="64" rx="10" fill="#134e4a" stroke="#5eead4" stroke-width="2"/>
 <text x="1678" y="282" text-anchor="middle" fill="#ccfbf1" font-family="JetBrains Mono, monospace" font-size="13" font-weight="700">Common C++ Core</text>
 <text x="1678" y="300" text-anchor="middle" fill="#99f6e4" font-family="JetBrains Mono, monospace" font-size="10">libtransformer_engine.so framework-agnostic</text>
 <text x="1678" y="314" text-anchor="middle" fill="#99f6e4" font-family="JetBrains Mono, monospace" font-size="10">NVTETensor scale amax dtype metadata</text>
 <line x1="960" y1="336" x2="960" y2="354" stroke="#7dd3fc" stroke-width="2" marker-end="url(#arrow)"/>

 <!-- L3 API Surface -->
 <rect x="60" y="356" width="1800" height="200" rx="12" fill="#0f2744" stroke="#22d3ee" stroke-width="2.5"/>
 <text x="88" y="384" fill="#22d3ee" font-family="JetBrains Mono, monospace" font-size="16" font-weight="700">L3 - Python Module Surface (Transformer building blocks - fused layers - distributed helpers)</text>

 <rect x="88" y="400" width="420" height="136" rx="12" fill="#1a2e05" stroke="#76b900" stroke-width="2"/>
 <text x="298" y="428" text-anchor="middle" fill="#ecfccb" font-family="JetBrains Mono, monospace" font-size="15" font-weight="700">Core Linear + Norm Modules</text>
 <text x="298" y="450" text-anchor="middle" fill="#d9f99d" font-family="JetBrains Mono, monospace" font-size="10">Linear - drop-in torch.nn.Linear replacement</text>
 <text x="298" y="468" text-anchor="middle" fill="#d9f99d" font-family="JetBrains Mono, monospace" font-size="10">LayerNorm RMSNorm LayerNormLinear</text>
 <text x="298" y="486" text-anchor="middle" fill="#d9f99d" font-family="JetBrains Mono, monospace" font-size="10">LayerNormMLP - fused norm + FC1 + act + FC2</text>
 <text x="298" y="504" text-anchor="middle" fill="#d9f99d" font-family="JetBrains Mono, monospace" font-size="10">GroupedLinear for MoE expert dispatch/combine</text>
 <text x="298" y="522" text-anchor="middle" fill="#d9f99d" font-family="JetBrains Mono, monospace" font-size="10">FP8 weight init via fp8_model_init context</text>

 <rect x="528" y="400" width="420" height="136" rx="12" fill="#431407" stroke="#fb923c" stroke-width="2"/>
 <text x="738" y="428" text-anchor="middle" fill="#ffedd5" font-family="JetBrains Mono, monospace" font-size="15" font-weight="700">Attention Modules</text>
 <text x="738" y="450" text-anchor="middle" fill="#fed7aa" font-family="JetBrains Mono, monospace" font-size="10">DotProductAttention - Q K V fused SDPA path</text>
 <text x="738" y="468" text-anchor="middle" fill="#fed7aa" font-family="JetBrains Mono, monospace" font-size="10">MultiheadAttention - full MHA block wrapper</text>
 <text x="738" y="486" text-anchor="middle" fill="#fed7aa" font-family="JetBrains Mono, monospace" font-size="10">GQA/MQA support - causal/padding/arbitrary mask</text>
 <text x="738" y="504" text-anchor="middle" fill="#fed7aa" font-family="JetBrains Mono, monospace" font-size="10">varlen cu_seqlens - paged KV - alibi - window</text>
 <text x="738" y="522" text-anchor="middle" fill="#fed7aa" font-family="JetBrains Mono, monospace" font-size="10">Backend dispatch: FlashAttn2/3 cuDNN TE native</text>

 <rect x="968" y="400" width="420" height="136" rx="12" fill="#422006" stroke="#fbbf24" stroke-width="2"/>
 <text x="1178" y="428" text-anchor="middle" fill="#fef3c7" font-family="JetBrains Mono, monospace" font-size="15" font-weight="700">TransformerLayer + Context APIs</text>
 <text x="1178" y="450" text-anchor="middle" fill="#fde68a" font-family="JetBrains Mono, monospace" font-size="10">TransformerLayer = attn block + FFN MLP block</text>
 <text x="1178" y="468" text-anchor="middle" fill="#fde68a" font-family="JetBrains Mono, monospace" font-size="10">fp8_autocast / autocast - enable FP8 forward region</text>
 <text x="1178" y="486" text-anchor="middle" fill="#fde68a" font-family="JetBrains Mono, monospace" font-size="10">make_graphed_callables - CUDA Graph capture</text>
 <text x="1178" y="504" text-anchor="middle" fill="#fde68a" font-family="JetBrains Mono, monospace" font-size="10">initialize_ub - Userbuffers TP comm overlap</text>
 <text x="1178" y="522" text-anchor="middle" fill="#fde68a" font-family="JetBrains Mono, monospace" font-size="10">backward() must run outside fp8_autocast region</text>

 <rect x="1408" y="400" width="420" height="136" rx="12" fill="#132f4c" stroke="#22d3ee" stroke-width="2"/>
 <text x="1618" y="428" text-anchor="middle" fill="#e0f2fe" font-family="JetBrains Mono, monospace" font-size="15" font-weight="700">FP8 Recipe System</text>
 <text x="1618" y="450" text-anchor="middle" fill="#7dd3fc" font-family="JetBrains Mono, monospace" font-size="10">DelayedScaling - amax history delayed scale</text>
 <text x="1618" y="468" text-anchor="middle" fill="#7dd3fc" font-family="JetBrains Mono, monospace" font-size="10">Float8CurrentScaling - per-step current amax</text>
 <text x="1618" y="486" text-anchor="middle" fill="#7dd3fc" font-family="JetBrains Mono, monospace" font-size="10">Format E4M3 E5M2 HYBRID - margin amax history</text>
 <text x="1618" y="504" text-anchor="middle" fill="#7dd3fc" font-family="JetBrains Mono, monospace" font-size="10">MXFP8BlockScaling - Blackwell microscaling FP8</text>
 <text x="1618" y="522" text-anchor="middle" fill="#7dd3fc" font-family="JetBrains Mono, monospace" font-size="10">NVFP4BlockScaling - Blackwell 4-bit block scaling</text>

 <line x1="960" y1="556" x2="960" y2="574" stroke="#7dd3fc" stroke-width="2" marker-end="url(#arrow)"/>

 <!-- L4 FP8 Execution Pipeline -->
 <rect x="60" y="576" width="1800" height="120" rx="12" fill="#0f2744" stroke="#76b900" stroke-width="2"/>
 <text x="88" y="604" fill="#76b900" font-family="JetBrains Mono, monospace" font-size="16" font-weight="700">L4 - FP8 Execution Pipeline (recipe - quantize - GEMM/attn - dequantize - amax sync on autocast exit)</text>
 <rect x="88" y="618" width="340" height="64" rx="10" fill="#1a2e05" stroke="#76b900" stroke-width="2"/>
 <text x="258" y="642" text-anchor="middle" fill="#ecfccb" font-family="JetBrains Mono, monospace" font-size="13" font-weight="700">1. Autocast + Recipe</text>
 <text x="258" y="660" text-anchor="middle" fill="#d9f99d" font-family="JetBrains Mono, monospace" font-size="10">Enter fp8_autocast with DelayedScaling recipe</text>
 <text x="258" y="674" text-anchor="middle" fill="#d9f99d" font-family="JetBrains Mono, monospace" font-size="10">Set fp8_format margin amax_history_len</text>
 <rect x="448" y="618" width="340" height="64" rx="10" fill="#431407" stroke="#fb923c" stroke-width="2"/>
 <text x="618" y="642" text-anchor="middle" fill="#ffedd5" font-family="JetBrains Mono, monospace" font-size="13" font-weight="700">2. Quantize + Cast</text>
 <text x="618" y="660" text-anchor="middle" fill="#fed7aa" font-family="JetBrains Mono, monospace" font-size="10">Module forward casts BF16/FP16 to FP8 E4M3/E5M2</text>
 <text x="618" y="674" text-anchor="middle" fill="#fed7aa" font-family="JetBrains Mono, monospace" font-size="10">Per-tensor scale from amax history metadata</text>
 <rect x="808" y="618" width="340" height="64" rx="10" fill="#422006" stroke="#fbbf24" stroke-width="2"/>
 <text x="978" y="642" text-anchor="middle" fill="#fef3c7" font-family="JetBrains Mono, monospace" font-size="13" font-weight="700">3. C++ Kernel Dispatch</text>
 <text x="978" y="660" text-anchor="middle" fill="#fde68a" font-family="JetBrains Mono, monospace" font-size="10">pybind gemm() nvte_fused_attn_fwd etc</text>
 <text x="978" y="674" text-anchor="middle" fill="#fde68a" font-family="JetBrains Mono, monospace" font-size="10">NVTETensor carries scale_inv amax dptr shape</text>
 <rect x="1168" y="618" width="340" height="64" rx="10" fill="#132f4c" stroke="#22d3ee" stroke-width="2"/>
 <text x="1338" y="642" text-anchor="middle" fill="#e0f2fe" font-family="JetBrains Mono, monospace" font-size="13" font-weight="700">4. Library Execute</text>
 <text x="1338" y="660" text-anchor="middle" fill="#7dd3fc" font-family="JetBrains Mono, monospace" font-size="10">cuBLASLt FP8 GEMM on 4th-gen Tensor Cores</text>
 <text x="1338" y="674" text-anchor="middle" fill="#7dd3fc" font-family="JetBrains Mono, monospace" font-size="10">cuDNN/FlashAttn fused attention kernels</text>
 <rect x="1528" y="618" width="300" height="64" rx="10" fill="#134e4a" stroke="#5eead4" stroke-width="2"/>
 <text x="1678" y="642" text-anchor="middle" fill="#ccfbf1" font-family="JetBrains Mono, monospace" font-size="13" font-weight="700">5. Exit + Backward</text>
 <text x="1678" y="660" text-anchor="middle" fill="#99f6e4" font-family="JetBrains Mono, monospace" font-size="10">Exit autocast - aggregate amax - NCCL sync</text>
 <text x="1678" y="674" text-anchor="middle" fill="#99f6e4" font-family="JetBrains Mono, monospace" font-size="10">loss.backward() outside autocast region</text>
 <line x1="960" y1="696" x2="960" y2="714" stroke="#7dd3fc" stroke-width="2" marker-end="url(#arrow)"/>

 <!-- L5 Kernel Backends -->
 <rect x="60" y="716" width="1800" height="120" rx="12" fill="#0f2744" stroke="#22d3ee" stroke-width="2"/>
 <text x="88" y="744" fill="#22d3ee" font-family="JetBrains Mono, monospace" font-size="16" font-weight="700">L5 - Kernel Backends (common/ CUDA kernels - NVIDIA library dispatch - attention multi-backend)</text>
 <rect x="88" y="758" width="280" height="64" rx="10" fill="#1a2e05" stroke="#76b900" stroke-width="2"/>
 <text x="228" y="782" text-anchor="middle" fill="#ecfccb" font-family="JetBrains Mono, monospace" font-size="12" font-weight="700">cuBLASLt FP8 GEMM</text>
 <text x="228" y="800" text-anchor="middle" fill="#d9f99d" font-family="JetBrains Mono, monospace" font-size="10">nvte_cublas_gemm_v2 grouped_gemm</text>
 <text x="228" y="814" text-anchor="middle" fill="#d9f99d" font-family="JetBrains Mono, monospace" font-size="10">FP8 Tensor Core matmul backbone</text>
 <rect x="388" y="758" width="280" height="64" rx="10" fill="#241a3d" stroke="#a78bfa" stroke-width="2"/>
 <text x="528" y="782" text-anchor="middle" fill="#ede9fe" font-family="JetBrains Mono, monospace" font-size="12" font-weight="700">cuDNN Fused Attn</text>
 <text x="528" y="800" text-anchor="middle" fill="#c4b5fd" font-family="JetBrains Mono, monospace" font-size="10">nvte_fused_attn_fwd cuDNN SDPA path</text>
 <text x="528" y="814" text-anchor="middle" fill="#c4b5fd" font-family="JetBrains Mono, monospace" font-size="10">Arch + seqlen dependent dispatch</text>
 <rect x="688" y="758" width="280" height="64" rx="10" fill="#312e81" stroke="#818cf8" stroke-width="2"/>
 <text x="828" y="782" text-anchor="middle" fill="#e0e7ff" font-family="JetBrains Mono, monospace" font-size="12" font-weight="700">FlashAttention 2/3</text>
 <text x="828" y="800" text-anchor="middle" fill="#c7d2fe" font-family="JetBrains Mono, monospace" font-size="10">Optional compile-time integration</text>
 <text x="828" y="814" text-anchor="middle" fill="#c7d2fe" font-family="JetBrains Mono, monospace" font-size="10">FA3 prioritized over FA2 on Blackwell</text>
 <rect x="988" y="758" width="280" height="64" rx="10" fill="#431407" stroke="#fb923c" stroke-width="2"/>
 <text x="1128" y="782" text-anchor="middle" fill="#ffedd5" font-family="JetBrains Mono, monospace" font-size="12" font-weight="700">Quantize Kernels</text>
 <text x="1128" y="800" text-anchor="middle" fill="#fed7aa" font-family="JetBrains Mono, monospace" font-size="10">nvte_quantize nvte_cast_transpose</text>
 <text x="1128" y="814" text-anchor="middle" fill="#fed7aa" font-family="JetBrains Mono, monospace" font-size="10">FP8/FP4 cast + amax reduction</text>
 <rect x="1288" y="758" width="280" height="64" rx="10" fill="#422006" stroke="#fbbf24" stroke-width="2"/>
 <text x="1428" y="782" text-anchor="middle" fill="#fef3c7" font-family="JetBrains Mono, monospace" font-size="12" font-weight="700">CUTLASS + Custom</text>
 <text x="1428" y="800" text-anchor="middle" fill="#fde68a" font-family="JetBrains Mono, monospace" font-size="10">Specialized GEMM and norm fusion tiles</text>
 <text x="1428" y="814" text-anchor="middle" fill="#fde68a" font-family="JetBrains Mono, monospace" font-size="10">Per-arch NVTE_CUDA_ARCHS build targets</text>
 <rect x="1588" y="758" width="240" height="64" rx="10" fill="#134e4a" stroke="#5eead4" stroke-width="2"/>
 <text x="1708" y="782" text-anchor="middle" fill="#ccfbf1" font-family="JetBrains Mono, monospace" font-size="12" font-weight="700">Userbuffers TP</text>
 <text x="1708" y="800" text-anchor="middle" fill="#99f6e4" font-family="JetBrains Mono, monospace" font-size="10">Overlap all-reduce with GEMM compute</text>
 <text x="1708" y="814" text-anchor="middle" fill="#99f6e4" font-family="JetBrains Mono, monospace" font-size="10">Column/row parallel Linear/MLP modules</text>
 <line x1="960" y1="836" x2="960" y2="854" stroke="#7dd3fc" stroke-width="2" marker-end="url(#arrow)"/>

 <!-- L6 Package -->
 <rect x="60" y="856" width="1800" height="56" rx="12" fill="#0f2744" stroke="#76b900" stroke-width="2"/>
 <text x="88" y="884" fill="#76b900" font-family="JetBrains Mono, monospace" font-size="16" font-weight="700">L6 - Source Package Layout (transformer_engine/ - common/ - pytorch/ - jax/ - CMake + pybind build)</text>
 <g font-family="JetBrains Mono, monospace" font-size="11" fill="#e0f2fe">
  <rect x="88" y="892" width="50" height="24" rx="5" fill="#431407" stroke="#fb923c"/><text x="113" y="909" text-anchor="middle">pytorch/</text>
  <rect x="148" y="892" width="40" height="24" rx="5" fill="#422006" stroke="#fbbf24"/><text x="168" y="909" text-anchor="middle">jax/</text>
  <rect x="198" y="892" width="50" height="24" rx="5" fill="#1a2e05" stroke="#76b900"/><text x="223" y="909" text-anchor="middle">common/</text>
  <rect x="258" y="892" width="50" height="24" rx="5" fill="#132f4c" stroke="#22d3ee"/><text x="283" y="909" text-anchor="middle">csrc/</text>
  <rect x="318" y="892" width="50" height="24" rx="5" fill="#132f4c" stroke="#22d3ee"/><text x="343" y="909" text-anchor="middle">pybind</text>
  <rect x="378" y="892" width="50" height="24" rx="5" fill="#1a2e05" stroke="#76b900"/><text x="403" y="909" text-anchor="middle">fused_attn</text>
  <rect x="438" y="892" width="40" height="24" rx="5" fill="#1a2e05" stroke="#76b900"/><text x="458" y="909" text-anchor="middle">gemm</text>
  <rect x="488" y="892" width="50" height="24" rx="5" fill="#431407" stroke="#fb923c"/><text x="513" y="909" text-anchor="middle">cast/</text>
  <rect x="548" y="892" width="50" height="24" rx="5" fill="#431407" stroke="#fb923c"/><text x="573" y="909" text-anchor="middle">recipe/</text>
  <rect x="608" y="892" width="50" height="24" rx="5" fill="#241a3d" stroke="#a78bfa"/><text x="633" y="909" text-anchor="middle">cuBLASLt</text>
  <rect x="668" y="892" width="50" height="24" rx="5" fill="#241a3d" stroke="#a78bfa"/><text x="693" y="909" text-anchor="middle">cuDNN</text>
  <rect x="728" y="892" width="50" height="24" rx="5" fill="#241a3d" stroke="#a78bfa"/><text x="753" y="909" text-anchor="middle">CUTLASS</text>
  <rect x="788" y="892" width="50" height="24" rx="5" fill="#312e81" stroke="#818cf8"/><text x="813" y="909" text-anchor="middle">FlashAttn</text>
  <rect x="848" y="892" width="50" height="24" rx="5" fill="#134e4a" stroke="#5eead4"/><text x="873" y="909" text-anchor="middle">CUDA</text>
  <rect x="908" y="892" width="50" height="24" rx="5" fill="#134e4a" stroke="#5eead4"/><text x="933" y="909" text-anchor="middle">CMake</text>
  <rect x="968" y="892" width="50" height="24" rx="5" fill="#134e4a" stroke="#5eead4"/><text x="993" y="909" text-anchor="middle">Ninja</text>
  <rect x="1028" y="892" width="50" height="24" rx="5" fill="#422006" stroke="#fbbf24"/><text x="1053" y="909" text-anchor="middle">Megatron</text>
  <rect x="1088" y="892" width="40" height="24" rx="5" fill="#422006" stroke="#fbbf24"/><text x="1108" y="909" text-anchor="middle">NeMo</text>
  <rect x="1138" y="892" width="50" height="24" rx="5" fill="#1a2e05" stroke="#76b900"/><text x="1163" y="909" text-anchor="middle">FP8</text>
  <rect x="1198" y="892" width="50" height="24" rx="5" fill="#1a2e05" stroke="#76b900"/><text x="1223" y="909" text-anchor="middle">MXFP8</text>
  <rect x="1258" y="892" width="50" height="24" rx="5" fill="#1a2e05" stroke="#76b900"/><text x="1283" y="909" text-anchor="middle">NVFP4</text>
  <rect x="1318" y="892" width="50" height="24" rx="5" fill="#431407" stroke="#fb923c"/><text x="1343" y="909" text-anchor="middle">Userbuf</text>
  <rect x="1378" y="892" width="50" height="24" rx="5" fill="#132f4c" stroke="#22d3ee"/><text x="1403" y="909" text-anchor="middle">NVTX</text>
  <rect x="1438" y="892" width="50" height="24" rx="5" fill="#134e4a" stroke="#5eead4"/><text x="1463" y="909" text-anchor="middle">NGC</text>
  <rect x="1498" y="892" width="50" height="24" rx="5" fill="#134e4a" stroke="#5eead4"/><text x="1523" y="909" text-anchor="middle">pip pkg</text>
  <rect x="1558" y="892" width="50" height="24" rx="5" fill="#134e4a" stroke="#5eead4"/><text x="1583" y="909" text-anchor="middle">NVIDIA</text>
  <rect x="1618" y="892" width="50" height="24" rx="5" fill="#1a2e05" stroke="#76b900"/><text x="1643" y="909" text-anchor="middle">v2.15</text>
  <rect x="1678" y="892" width="80" height="24" rx="5" fill="#134e4a" stroke="#5eead4"/><text x="1718" y="909" text-anchor="middle">Apache-2.0</text>
 </g>

 <!-- DETAIL FP8 GEMM path -->
 <rect x="60" y="928" width="880" height="340" rx="14" fill="#0c1524" stroke="#76b900" stroke-width="2.5"/>
 <text x="88" y="960" fill="#76b900" font-family="JetBrains Mono, monospace" font-size="17" font-weight="700">FP8 GEMM Execution Path (te.Linear forward under fp8_autocast)</text>
 <text x="88" y="982" fill="#d9f99d" font-family="JetBrains Mono, monospace" font-size="11">DelayedScaling recipe - per-tensor amax history - cuBLASLt FP8 Tensor Core dispatch</text>

 <rect x="88" y="998" width="820" height="36" rx="6" fill="#132f4c" stroke="#22d3ee"/>
 <text x="498" y="1022" text-anchor="middle" fill="#e0f2fe" font-family="JetBrains Mono, monospace" font-size="11" font-weight="700">Step 1: with te.autocast(enabled=True, recipe=DelayedScaling(...)): enter FP8 region</text>
 <line x1="498" y1="1034" x2="498" y2="1046" stroke="#22d3ee" stroke-width="1.5" marker-end="url(#arrow-cyan)"/>
 <rect x="88" y="1048" width="820" height="36" rx="6" fill="#422006" stroke="#fbbf24"/>
 <text x="498" y="1072" text-anchor="middle" fill="#fef3c7" font-family="JetBrains Mono, monospace" font-size="11" font-weight="700">Step 2: te.Linear forward - cast input/weight BF16 to FP8 E4M3 with per-tensor scale</text>
 <line x1="498" y1="1084" x2="498" y2="1096" stroke="#fbbf24" stroke-width="1.5" marker-end="url(#arrow-green)"/>
 <rect x="88" y="1098" width="820" height="36" rx="6" fill="#1a2e05" stroke="#76b900"/>
 <text x="498" y="1122" text-anchor="middle" fill="#ecfccb" font-family="JetBrains Mono, monospace" font-size="11" font-weight="700">Step 3: _Linear autograd fn calls pybind gemm() - wrap at::Tensor as NVTETensor</text>
 <line x1="498" y1="1134" x2="498" y2="1146" stroke="#76b900" stroke-width="1.5"/>
 <rect x="88" y="1148" width="820" height="36" rx="6" fill="#431407" stroke="#fb923c"/>
 <text x="498" y="1172" text-anchor="middle" fill="#ffedd5" font-family="JetBrains Mono, monospace" font-size="11" font-weight="700">Step 4: nvte_cublas_gemm_v2 - pass FP8 dptr + scale_inv metadata to cuBLASLt</text>
 <line x1="498" y1="1184" x2="498" y2="1196" stroke="#fb923c" stroke-width="1.5" marker-end="url(#arrow-cyan)"/>
 <rect x="88" y="1198" width="820" height="36" rx="6" fill="#134e4a" stroke="#5eead4"/>
 <text x="498" y="1222" text-anchor="middle" fill="#ccfbf1" font-family="JetBrains Mono, monospace" font-size="11" font-weight="700">Step 5: Exit autocast - aggregate amax tensors - NCCL sync scales - loss.backward() outside</text>
 <line x1="498" y1="1234" x2="498" y2="1246" stroke="#5eead4" stroke-width="1.5"/>
 <rect x="88" y="1248" width="820" height="28" rx="6" fill="#241a3d" stroke="#a78bfa"/>
 <text x="498" y="1268" text-anchor="middle" fill="#ede9fe" font-family="JetBrains Mono, monospace" font-size="11" font-weight="700">Both dims must be divisible by 16 for FP8 Linear - pad seqlen to multiple of 16 if needed</text>

 <text x="88" y="1294" fill="#64748b" font-family="JetBrains Mono, monospace" font-size="10">Attention path: DotProductAttention dispatches FlashAttn2/3 or cuDNN fused attn by arch + seqlen</text>
 <text x="88" y="1310" fill="#64748b" font-family="JetBrains Mono, monospace" font-size="10">Blackwell: MXFP8BlockScaling and NVFP4BlockScaling recipes for microscaling and 4-bit training</text>

 <!-- DETAIL Position -->
 <rect x="960" y="928" width="900" height="340" rx="14" fill="#0c1224" stroke="#76b900" stroke-width="2.5"/>
 <text x="988" y="960" fill="#76b900" font-family="JetBrains Mono, monospace" font-size="17" font-weight="700">Five Design Pillars + Ecosystem Position</text>
 <text x="988" y="982" fill="#d9f99d" font-family="JetBrains Mono, monospace" font-size="11">NVIDIA Transformer FP8 layer - sits between LLM frameworks and cuBLASLt/cuDNN hardware libs</text>

 <text x="988" y="1006" fill="#94a3b8" font-family="JetBrains Mono, monospace" font-size="11" font-weight="700">Five Pillars</text>
 <rect x="988" y="1016" width="130" height="48" rx="6" fill="#1a2e05" stroke="#76b900"/>
 <text x="1053" y="1038" text-anchor="middle" fill="#ecfccb" font-family="JetBrains Mono, monospace" font-size="10" font-weight="700">FP8 Recipes</text>
 <text x="1053" y="1054" text-anchor="middle" fill="#d9f99d" font-family="JetBrains Mono, monospace" font-size="9">Delayed + MXFP8 + NVFP4</text>
 <rect x="1130" y="1016" width="130" height="48" rx="6" fill="#431407" stroke="#fb923c"/>
 <text x="1195" y="1038" text-anchor="middle" fill="#ffedd5" font-family="JetBrains Mono, monospace" font-size="10" font-weight="700">Fused Modules</text>
 <text x="1195" y="1054" text-anchor="middle" fill="#fed7aa" font-family="JetBrains Mono, monospace" font-size="9">LayerNormLinear MLP</text>
 <rect x="1272" y="1016" width="130" height="48" rx="6" fill="#312e81" stroke="#818cf8"/>
 <text x="1337" y="1038" text-anchor="middle" fill="#e0e7ff" font-family="JetBrains Mono, monospace" font-size="10" font-weight="700">Multi-Attn</text>
 <text x="1337" y="1054" text-anchor="middle" fill="#c7d2fe" font-family="JetBrains Mono, monospace" font-size="9">FlashAttn cuDNN TE</text>
 <rect x="1414" y="1016" width="130" height="48" rx="6" fill="#422006" stroke="#fbbf24"/>
 <text x="1479" y="1038" text-anchor="middle" fill="#fef3c7" font-family="JetBrains Mono, monospace" font-size="10" font-weight="700">Shared Core</text>
 <text x="1479" y="1054" text-anchor="middle" fill="#fde68a" font-family="JetBrains Mono, monospace" font-size="9">PyTorch + JAX same .so</text>
 <rect x="1556" y="1016" width="130" height="48" rx="6" fill="#134e4a" stroke="#5eead4"/>
 <text x="1621" y="1038" text-anchor="middle" fill="#ccfbf1" font-family="JetBrains Mono, monospace" font-size="10" font-weight="700">TP Overlap</text>
 <text x="1621" y="1054" text-anchor="middle" fill="#99f6e4" font-family="JetBrains Mono, monospace" font-size="9">Userbuffers comm overlap</text>
 <rect x="1698" y="1016" width="150" height="48" rx="6" fill="#132f4c" stroke="#22d3ee"/>
 <text x="1773" y="1038" text-anchor="middle" fill="#e0f2fe" font-family="JetBrains Mono, monospace" font-size="10" font-weight="700">Autocast API</text>
 <text x="1773" y="1054" text-anchor="middle" fill="#7dd3fc" font-family="JetBrains Mono, monospace" font-size="9">AMP-like FP8 regions</text>

 <text x="988" y="1082" fill="#94a3b8" font-family="JetBrains Mono, monospace" font-size="11" font-weight="700">vs Related Stacks</text>
 <rect x="988" y="1092" width="200" height="68" rx="6" fill="#1a2e05" stroke="#76b900"/>
 <text x="1088" y="1116" text-anchor="middle" fill="#ecfccb" font-family="JetBrains Mono, monospace" font-size="11" font-weight="700">Transformer Engine</text>
 <text x="1088" y="1134" text-anchor="middle" fill="#d9f99d" font-family="JetBrains Mono, monospace" font-size="9">Transformer FP8 modules</text>
 <text x="1088" y="1150" text-anchor="middle" fill="#d9f99d" font-family="JetBrains Mono, monospace" font-size="9">Scaling + fused layers</text>
 <rect x="1200" y="1092" width="200" height="68" rx="6" fill="#241a3d" stroke="#a78bfa"/>
 <text x="1300" y="1116" text-anchor="middle" fill="#ede9fe" font-family="JetBrains Mono, monospace" font-size="11" font-weight="700">cuBLASLt</text>
 <text x="1300" y="1134" text-anchor="middle" fill="#c4b5fd" font-family="JetBrains Mono, monospace" font-size="9">Raw FP8 GEMM library</text>
 <text x="1300" y="1150" text-anchor="middle" fill="#c4b5fd" font-family="JetBrains Mono, monospace" font-size="9">No scaling recipe mgmt</text>
 <rect x="1412" y="1092" width="200" height="68" rx="6" fill="#1a2e05" stroke="#76b900"/>
 <text x="1512" y="1116" text-anchor="middle" fill="#ecfccb" font-family="JetBrains Mono, monospace" font-size="11" font-weight="700">cuDNN</text>
 <text x="1512" y="1134" text-anchor="middle" fill="#d9f99d" font-family="JetBrains Mono, monospace" font-size="9">DNN primitives + SDPA</text>
 <text x="1512" y="1150" text-anchor="middle" fill="#d9f99d" font-family="JetBrains Mono, monospace" font-size="9">TE calls for fused attn</text>
 <rect x="1624" y="1092" width="224" height="68" rx="6" fill="#431407" stroke="#fb923c"/>
 <text x="1736" y="1116" text-anchor="middle" fill="#ffedd5" font-family="JetBrains Mono, monospace" font-size="11" font-weight="700">PyTorch AMP</text>
 <text x="1736" y="1134" text-anchor="middle" fill="#fed7aa" font-family="JetBrains Mono, monospace" font-size="9">Generic BF16/FP16 autocast</text>
 <text x="1736" y="1150" text-anchor="middle" fill="#fed7aa" font-family="JetBrains Mono, monospace" font-size="9">No FP8 scale/amax mgmt</text>

 <text x="988" y="1178" fill="#94a3b8" font-family="JetBrains Mono, monospace" font-size="11" font-weight="700">Quick Start</text>
 <rect x="988" y="1188" width="860" height="48" rx="6" fill="#1a1208" stroke="#76b900"/>
 <text x="1418" y="1212" text-anchor="middle" fill="#ecfccb" font-family="JetBrains Mono, monospace" font-size="12">fp8_recipe = recipe.DelayedScaling() - with te.autocast(recipe=fp8_recipe): forward</text>
 <text x="1418" y="1228" text-anchor="middle" fill="#d9f99d" font-family="JetBrains Mono, monospace" font-size="10">Docs: docs.nvidia.com/deeplearning/transformer-engine - github.com/NVIDIA/TransformerEngine</text>

 <!-- footer bar -->
 <rect x="60" y="1288" width="1800" height="72" rx="12" fill="#1a1208" stroke="#76b900" stroke-width="2"/>
 <text x="88" y="1316" fill="#76b900" font-family="JetBrains Mono, monospace" font-size="16" font-weight="700">Design Position (NVIDIA Transformer FP8 layer - recipe-managed scaling + fused modules on Tensor Cores)</text>
 <text x="960" y="1342" text-anchor="middle" fill="#d9f99d" font-family="JetBrains Mono, monospace" font-size="13">Shared libtransformer_engine.so + fp8_autocast + TransformerLayer = default FP8 path for Megatron/NeMo LLM training</text>

 <!-- footers -->
 <rect x="60" y="1376" width="1800" height="52" rx="8" fill="#111827" stroke="#475569"/>
 <text x="960" y="1396" text-anchor="middle" fill="#94a3b8" font-family="JetBrains Mono, monospace" font-size="11">Init: pip install transformer_engine[pytorch] - CUDA 12.1+ cuDNN 9.3+ - FP8 needs CC 8.9+ Ada/Hopper/Blackwell</text>
 <text x="960" y="1414" text-anchor="middle" fill="#64748b" font-family="JetBrains Mono, monospace" font-size="10">Loop: autocast region forward - amax aggregate on exit - backward outside - optional CUDA Graph + Userbuffers TP</text>

 <text x="60" y="1460" fill="#64748b" font-family="JetBrains Mono, monospace" font-size="10">Sources: docs.nvidia.com/deeplearning/transformer-engine - github.com/NVIDIA/TransformerEngine - deepwiki.com/NVIDIA/TransformerEngine</text>
</svg>
