<?xml version="1.0" encoding="UTF-8"?>
<svg xmlns="http://www.w3.org/2000/svg" width="1920" height="1520" viewBox="0 0 1920 1520">
 <defs>
  <linearGradient id="bg" x1="0" y1="0" x2="0" y2="1">
   <stop offset="0%" stop-color="#0a1628"/>
   <stop offset="100%" stop-color="#061018"/>
  </linearGradient>
  <marker id="arrow" markerWidth="10" markerHeight="8" refX="9" refY="4" orient="auto">
   <polygon points="0 0, 10 4, 0 8" fill="#7dd3fc"/>
  </marker>
  <marker id="arrow-fuchsia" markerWidth="10" markerHeight="8" refX="9" refY="4" orient="auto">
   <polygon points="0 0, 10 4, 0 8" fill="#d946ef"/>
  </marker>
  <marker id="arrow-cyan" markerWidth="10" markerHeight="8" refX="9" refY="4" orient="auto">
   <polygon points="0 0, 10 4, 0 8" fill="#22d3ee"/>
  </marker>
 </defs>

 <rect width="1920" height="1520" fill="url(#bg)"/>
 <g opacity="0.06" stroke="#1e3a5f" stroke-width="1">
  <path d="M0 40 H1920 M0 80 H1920 M0 120 H1920 M0 160 H1920 M0 200 H1920 M0 240 H1920 M0 280 H1920 M0 320 H1920 M0 360 H1920 M0 400 H1920 M0 440 H1920 M0 480 H1920 M0 520 H1920 M0 560 H1920 M0 600 H1920 M0 640 H1920 M0 720 H1920 M0 800 H1920 M0 880 H1920 M0 960 H1920 M0 1040 H1920 M0 1120 H1920 M0 1200 H1920 M0 1280 H1920 M0 1360 H1920 M0 1440 H1920"/>
 </g>

 <!-- title -->
 <text x="960" y="48" text-anchor="middle" fill="#e2e8f0" font-family="JetBrains Mono, monospace" font-size="32" font-weight="700">vLLM-Omni Architecture</text>
 <text x="960" y="76" text-anchor="middle" fill="#94a3b8" font-family="JetBrains Mono, monospace" font-size="14">Fully Disaggregated Any-to-Any Omni-Modality Serving - Stage Graph - arXiv:2602.02204</text>

 <!-- L1 Entry -->
 <rect x="60" y="96" width="1800" height="100" rx="12" fill="#0f2744" stroke="#d946ef" stroke-width="2"/>
 <text x="88" y="124" fill="#d946ef" font-family="JetBrains Mono, monospace" font-size="16" font-weight="700">L1 - Entry Points &amp; API</text>
 <g font-family="JetBrains Mono, monospace" font-size="12" fill="#e2e8f0">
  <rect x="88" y="136" width="130" height="40" rx="6" fill="#4a044e" stroke="#d946ef"/><text x="153" y="162" text-anchor="middle">vllm serve --omni</text>
  <rect x="230" y="136" width="70" height="40" rx="6" fill="#4a044e" stroke="#d946ef"/><text x="265" y="162" text-anchor="middle">Omni</text>
  <rect x="312" y="136" width="90" height="40" rx="6" fill="#4a044e" stroke="#d946ef"/><text x="357" y="162" text-anchor="middle">AsyncOmni</text>
  <rect x="414" y="136" width="130" height="40" rx="6" fill="#4a044e" stroke="#d946ef"/><text x="479" y="162" text-anchor="middle">AsyncOmniEngine</text>
  <rect x="556" y="136" width="110" height="40" rx="6" fill="#4a044e" stroke="#d946ef"/><text x="611" y="162" text-anchor="middle">OpenAI API</text>
  <rect x="678" y="136" width="130" height="40" rx="6" fill="#4a044e" stroke="#d946ef"/><text x="743" y="162" text-anchor="middle">sampling_params_list</text>
  <rect x="820" y="136" width="100" height="40" rx="6" fill="#4a044e" stroke="#d946ef"/><text x="870" y="162" text-anchor="middle">Speech TTS</text>
  <rect x="932" y="136" width="90" height="40" rx="6" fill="#4a044e" stroke="#d946ef"/><text x="977" y="162" text-anchor="middle">Image gen</text>
  <rect x="1034" y="136" width="90" height="40" rx="6" fill="#4a044e" stroke="#d946ef"/><text x="1079" y="162" text-anchor="middle">Video gen</text>
  <rect x="1136" y="136" width="110" height="40" rx="6" fill="#4a044e" stroke="#d946ef"/><text x="1191" y="162" text-anchor="middle">multi_modal_data</text>
  <rect x="1258" y="136" width="100" height="40" rx="6" fill="#4a044e" stroke="#d946ef"/><text x="1308" y="162" text-anchor="middle">stage_config</text>
  <rect x="1370" y="136" width="90" height="40" rx="6" fill="#4a044e" stroke="#d946ef"/><text x="1415" y="162" text-anchor="middle">OmniRouter</text>
  <rect x="1472" y="136" width="100" height="40" rx="6" fill="#4a044e" stroke="#d946ef"/><text x="1522" y="162" text-anchor="middle">Qwen3-Omni</text>
  <rect x="1584" y="136" width="90" height="40" rx="6" fill="#4a044e" stroke="#d946ef"/><text x="1629" y="162" text-anchor="middle">Qwen-Image</text>
  <rect x="1686" y="136" width="60" height="40" rx="6" fill="#4a044e" stroke="#d946ef"/><text x="1716" y="162" text-anchor="middle">BAGEL</text>
  <rect x="1758" y="136" width="50" height="40" rx="6" fill="#4a044e" stroke="#d946ef"/><text x="1783" y="162" text-anchor="middle">FLUX</text>
  <rect x="1820" y="136" width="28" height="40" rx="6" fill="#4a044e" stroke="#d946ef"/><text x="1834" y="162" text-anchor="middle">HF</text>
 </g>
 <line x1="960" y1="196" x2="960" y2="214" stroke="#7dd3fc" stroke-width="2" marker-end="url(#arrow)"/>

 <!-- L2 Control Plane -->
 <rect x="60" y="216" width="1800" height="120" rx="12" fill="#0f2744" stroke="#38bdf8" stroke-width="2"/>
 <text x="88" y="244" fill="#38bdf8" font-family="JetBrains Mono, monospace" font-size="16" font-weight="700">L2 - Control Plane (Stage Graph Orchestration)</text>
 <rect x="88" y="258" width="280" height="60" rx="8" fill="#4a044e" stroke="#d946ef"/>
 <text x="228" y="282" text-anchor="middle" fill="#fae8ff" font-family="JetBrains Mono, monospace" font-size="12" font-weight="700">Orchestrator</text>
 <text x="228" y="302" text-anchor="middle" fill="#f0abfc" font-family="JetBrains Mono, monospace" font-size="10">Background thread + asyncio - request lifecycle</text>
 <rect x="384" y="258" width="240" height="60" rx="8" fill="#132f4c" stroke="#22d3ee"/>
 <text x="504" y="282" text-anchor="middle" fill="#e0f2fe" font-family="JetBrains Mono, monospace" font-size="12" font-weight="700">StagePool</text>
 <text x="504" y="302" text-anchor="middle" fill="#7dd3fc" font-family="JetBrains Mono, monospace" font-size="10">Per-stage request queues and worker pools</text>
 <rect x="640" y="258" width="260" height="60" rx="8" fill="#132f4c" stroke="#22d3ee"/>
 <text x="770" y="282" text-anchor="middle" fill="#e0f2fe" font-family="JetBrains Mono, monospace" font-size="12" font-weight="700">StageConfig (YAML)</text>
 <text x="770" y="302" text-anchor="middle" fill="#7dd3fc" font-family="JetBrains Mono, monospace" font-size="10">Stage graph nodes + edges + transfer functions</text>
 <rect x="916" y="258" width="240" height="60" rx="8" fill="#132f4c" stroke="#22d3ee"/>
 <text x="1036" y="282" text-anchor="middle" fill="#e0f2fe" font-family="JetBrains Mono, monospace" font-size="12" font-weight="700">OmniEngineCoreRequest</text>
 <text x="1036" y="302" text-anchor="middle" fill="#7dd3fc" font-family="JetBrains Mono, monospace" font-size="10">MM payloads + cross-stage metadata</text>
 <rect x="1172" y="258" width="240" height="60" rx="8" fill="#132f4c" stroke="#22d3ee"/>
 <text x="1292" y="282" text-anchor="middle" fill="#e0f2fe" font-family="JetBrains Mono, monospace" font-size="12" font-weight="700">OmniCoordinator</text>
 <text x="1292" y="302" text-anchor="middle" fill="#7dd3fc" font-family="JetBrains Mono, monospace" font-size="10">Load balancing across stage replicas</text>
 <rect x="1428" y="258" width="210" height="60" rx="8" fill="#4a044e" stroke="#d946ef"/>
 <text x="1533" y="282" text-anchor="middle" fill="#fae8ff" font-family="JetBrains Mono, monospace" font-size="12" font-weight="700">E/P/D/G Disaggregation</text>
 <text x="1533" y="302" text-anchor="middle" fill="#f0abfc" font-family="JetBrains Mono, monospace" font-size="10">Encoding / Processing / Decoding / Generation</text>
 <rect x="1654" y="258" width="184" height="60" rx="8" fill="#132f4c" stroke="#22d3ee"/>
 <text x="1746" y="282" text-anchor="middle" fill="#e0f2fe" font-family="JetBrains Mono, monospace" font-size="12" font-weight="700">Pipelined Overlap</text>
 <text x="1746" y="302" text-anchor="middle" fill="#7dd3fc" font-family="JetBrains Mono, monospace" font-size="10">Stage execution overlap for throughput</text>
 <line x1="960" y1="336" x2="960" y2="354" stroke="#7dd3fc" stroke-width="2" marker-end="url(#arrow)"/>

 <!-- L3 Stage Engines -->
 <rect x="60" y="356" width="1800" height="200" rx="12" fill="#0f2744" stroke="#d946ef" stroke-width="2.5"/>
 <text x="88" y="384" fill="#d946ef" font-family="JetBrains Mono, monospace" font-size="16" font-weight="700">L3 - Disaggregated Stage Engines</text>

 <!-- AR Stage -->
 <rect x="88" y="400" width="420" height="136" rx="12" fill="#2e1065" stroke="#8b5cf6" stroke-width="2"/>
 <text x="298" y="428" text-anchor="middle" fill="#ede9fe" font-family="JetBrains Mono, monospace" font-size="15" font-weight="700">AR Stage (Autoregressive)</text>
 <text x="298" y="450" text-anchor="middle" fill="#c4b5fd" font-family="JetBrains Mono, monospace" font-size="10">OmniARScheduler - inherits vLLM continuous batching</text>
 <text x="298" y="468" text-anchor="middle" fill="#c4b5fd" font-family="JetBrains Mono, monospace" font-size="10">StageEngineCoreProc + StageEngineCoreClient</text>
 <text x="298" y="486" text-anchor="middle" fill="#c4b5fd" font-family="JetBrains Mono, monospace" font-size="10">PagedAttention KV cache - GPU ModelRunner</text>
 <text x="298" y="504" text-anchor="middle" fill="#c4b5fd" font-family="JetBrains Mono, monospace" font-size="10">Output: hidden states, KV caches, speech codes</text>
 <text x="298" y="522" text-anchor="middle" fill="#c4b5fd" font-family="JetBrains Mono, monospace" font-size="10">Thinker / Talker / LLM text encoder stages</text>

 <!-- DiT Stage -->
 <rect x="524" y="400" width="420" height="136" rx="12" fill="#0c2d2d" stroke="#2dd4bf" stroke-width="2"/>
 <text x="734" y="428" text-anchor="middle" fill="#ccfbf1" font-family="JetBrains Mono, monospace" font-size="15" font-weight="700">DiT Stage (Diffusion Transformer)</text>
 <text x="734" y="450" text-anchor="middle" fill="#99f6e4" font-family="JetBrains Mono, monospace" font-size="10">DiffusionEngine + DiffusionWorker</text>
 <text x="734" y="468" text-anchor="middle" fill="#99f6e4" font-family="JetBrains Mono, monospace" font-size="10">StageDiffusionClient / StageDiffusionProc</text>
 <text x="734" y="486" text-anchor="middle" fill="#99f6e4" font-family="JetBrains Mono, monospace" font-size="10">Step-wise iterative denoising (non-AR)</text>
 <text x="734" y="504" text-anchor="middle" fill="#99f6e4" font-family="JetBrains Mono, monospace" font-size="10">Output: latent tensors - VAE decode to image/video</text>
 <text x="734" y="522" text-anchor="middle" fill="#99f6e4" font-family="JetBrains Mono, monospace" font-size="10">Qwen-Image / FLUX / Wan / HunyuanVideo</text>

 <!-- OmniConnector -->
 <rect x="960" y="400" width="340" height="136" rx="12" fill="#4a044e" stroke="#d946ef" stroke-width="2"/>
 <text x="1130" y="428" text-anchor="middle" fill="#fae8ff" font-family="JetBrains Mono, monospace" font-size="15" font-weight="700">OmniConnector</text>
 <text x="1130" y="450" text-anchor="middle" fill="#f0abfc" font-family="JetBrains Mono, monospace" font-size="10">Unified put/get for inter-stage artifacts</text>
 <text x="1130" y="468" text-anchor="middle" fill="#f0abfc" font-family="JetBrains Mono, monospace" font-size="10">SharedMemory (single node) - auto default</text>
 <text x="1130" y="486" text-anchor="middle" fill="#f0abfc" font-family="JetBrains Mono, monospace" font-size="10">Mooncake / Mori / Yuanrong (multi-node)</text>
 <text x="1130" y="504" text-anchor="middle" fill="#f0abfc" font-family="JetBrains Mono, monospace" font-size="10">OmniChunkTransferAdapter - async streaming</text>
 <text x="1130" y="522" text-anchor="middle" fill="#f0abfc" font-family="JetBrains Mono, monospace" font-size="10">Wraps vLLM KV/EC transfer where applicable</text>

 <!-- Qwen3-Omni pipeline -->
 <rect x="1316" y="400" width="516" height="136" rx="12" fill="#431407" stroke="#f97316" stroke-width="2"/>
 <text x="1574" y="428" text-anchor="middle" fill="#ffedd5" font-family="JetBrains Mono, monospace" font-size="15" font-weight="700">Example: Qwen3-Omni Stage Graph</text>
 <text x="1574" y="450" text-anchor="middle" fill="#fed7aa" font-family="JetBrains Mono, monospace" font-size="10">Stage 0 Thinker (AR): video/audio/text in - reasoning + text out</text>
 <text x="1574" y="468" text-anchor="middle" fill="#fed7aa" font-family="JetBrains Mono, monospace" font-size="10">Stage 1 Talker (AR): hidden states in - speech token codes out</text>
 <text x="1574" y="486" text-anchor="middle" fill="#fed7aa" font-family="JetBrains Mono, monospace" font-size="10">Stage 2 Code2Wav (DiT/GAN): codes in - audio waveform out</text>
 <text x="1574" y="504" text-anchor="middle" fill="#fed7aa" font-family="JetBrains Mono, monospace" font-size="10">Each stage independently scaled on separate GPU pools</text>
 <text x="1574" y="522" text-anchor="middle" fill="#fed7aa" font-family="JetBrains Mono, monospace" font-size="10">stage-transfer functions route intermediate tensors</text>

 <text x="960" y="548" text-anchor="middle" fill="#d946ef" font-family="JetBrains Mono, monospace" font-size="10">Stage graph: nodes = AR or DiT engines - edges = OmniConnector + user-defined transfer functions</text>
 <line x1="960" y1="556" x2="960" y2="574" stroke="#7dd3fc" stroke-width="2" marker-end="url(#arrow)"/>

 <!-- L4 Backends -->
 <rect x="60" y="576" width="1800" height="88" rx="12" fill="#0f2744" stroke="#a78bfa" stroke-width="2"/>
 <text x="88" y="604" fill="#a78bfa" font-family="JetBrains Mono, monospace" font-size="16" font-weight="700">L4 - AR &amp; Diffusion Execution Backends</text>
 <g font-family="JetBrains Mono, monospace" font-size="11" fill="#ede9fe">
  <text x="88" y="624" fill="#94a3b8" font-family="JetBrains Mono, monospace" font-size="10" font-weight="700">AR (vLLM):</text>
  <rect x="150" y="612" width="100" height="36" rx="6" fill="#2e1065" stroke="#8b5cf6"/><text x="200" y="636" text-anchor="middle">PagedAttn</text>
  <rect x="262" y="612" width="90" height="36" rx="6" fill="#2e1065" stroke="#8b5cf6"/><text x="307" y="636" text-anchor="middle">Prefix cache</text>
  <rect x="364" y="612" width="90" height="36" rx="6" fill="#2e1065" stroke="#8b5cf6"/><text x="409" y="636" text-anchor="middle">FlashAttn</text>
  <text x="470" y="624" fill="#94a3b8" font-family="JetBrains Mono, monospace" font-size="10" font-weight="700">DiT:</text>
  <rect x="500" y="612" width="70" height="36" rx="6" fill="#0c2d2d" stroke="#2dd4bf"/><text x="535" y="636" text-anchor="middle">DBCache</text>
  <rect x="582" y="612" width="70" height="36" rx="6" fill="#0c2d2d" stroke="#2dd4bf"/><text x="617" y="636" text-anchor="middle">TeaCache</text>
  <rect x="664" y="612" width="50" height="36" rx="6" fill="#0c2d2d" stroke="#2dd4bf"/><text x="689" y="636" text-anchor="middle">TP</text>
  <rect x="726" y="612" width="40" height="36" rx="6" fill="#0c2d2d" stroke="#2dd4bf"/><text x="746" y="636" text-anchor="middle">CP</text>
  <rect x="778" y="612" width="40" height="36" rx="6" fill="#0c2d2d" stroke="#2dd4bf"/><text x="798" y="636" text-anchor="middle">USP</text>
  <rect x="830" y="612" width="40" height="36" rx="6" fill="#0c2d2d" stroke="#2dd4bf"/><text x="850" y="636" text-anchor="middle">CFG</text>
  <rect x="882" y="612" width="50" height="36" rx="6" fill="#0c2d2d" stroke="#2dd4bf"/><text x="907" y="636" text-anchor="middle">FA3</text>
  <rect x="944" y="612" width="50" height="36" rx="6" fill="#0c2d2d" stroke="#2dd4bf"/><text x="969" y="636" text-anchor="middle">SAGE</text>
  <text x="1010" y="624" fill="#94a3b8" font-family="JetBrains Mono, monospace" font-size="10" font-weight="700">Quant:</text>
  <rect x="1060" y="612" width="50" height="36" rx="6" fill="#422006" stroke="#fcd34d"/><text x="1085" y="636" text-anchor="middle">FP8</text>
  <rect x="1122" y="612" width="60" height="36" rx="6" fill="#422006" stroke="#fcd34d"/><text x="1152" y="636" text-anchor="middle">MXFP8</text>
  <rect x="1194" y="612" width="60" height="36" rx="6" fill="#422006" stroke="#fcd34d"/><text x="1224" y="636" text-anchor="middle">MXFP4</text>
  <rect x="1266" y="612" width="50" height="36" rx="6" fill="#422006" stroke="#fcd34d"/><text x="1291" y="636" text-anchor="middle">AWQ</text>
  <rect x="1328" y="612" width="50" height="36" rx="6" fill="#422006" stroke="#fcd34d"/><text x="1353" y="636" text-anchor="middle">GGUF</text>
  <text x="1395" y="624" fill="#94a3b8" font-family="JetBrains Mono, monospace" font-size="10" font-weight="700">Dist:</text>
  <rect x="1435" y="612" width="40" height="36" rx="6" fill="#132f4c" stroke="#22d3ee"/><text x="1455" y="636" text-anchor="middle">PP</text>
  <rect x="1487" y="612" width="40" height="36" rx="6" fill="#132f4c" stroke="#22d3ee"/><text x="1507" y="636" text-anchor="middle">DP</text>
  <rect x="1539" y="612" width="40" height="36" rx="6" fill="#132f4c" stroke="#22d3ee"/><text x="1559" y="636" text-anchor="middle">EP</text>
  <rect x="1591" y="612" width="50" height="36" rx="6" fill="#132f4c" stroke="#22d3ee"/><text x="1616" y="636" text-anchor="middle">Ray</text>
  <rect x="1653" y="612" width="50" height="36" rx="6" fill="#132f4c" stroke="#22d3ee"/><text x="1678" y="636" text-anchor="middle">VAE</text>
  <rect x="1715" y="612" width="70" height="36" rx="6" fill="#134e4a" stroke="#5eead4"/><text x="1750" y="636" text-anchor="middle">FusedOps</text>
  <rect x="1797" y="612" width="51" height="36" rx="6" fill="#134e4a" stroke="#5eead4"/><text x="1822" y="636" text-anchor="middle">NCCL</text>
 </g>

 <!-- L5 Features -->
 <rect x="60" y="676" width="1800" height="72" rx="12" fill="#0f2744" stroke="#fbbf24" stroke-width="2"/>
 <text x="88" y="704" fill="#fbbf24" font-family="JetBrains Mono, monospace" font-size="16" font-weight="700">L5 - Key Features &amp; Model Patterns</text>
 <g font-family="JetBrains Mono, monospace" font-size="11" fill="#fef3c7">
  <rect x="88" y="716" width="90" height="24" rx="5" fill="#422006" stroke="#fcd34d"/><text x="133" y="733" text-anchor="middle">Stage graph</text>
  <rect x="188" y="716" width="80" height="24" rx="5" fill="#422006" stroke="#fcd34d"/><text x="228" y="733" text-anchor="middle">Disagg</text>
  <rect x="278" y="716" width="70" height="24" rx="5" fill="#422006" stroke="#fcd34d"/><text x="313" y="733" text-anchor="middle">AR+DiT</text>
  <rect x="358" y="716" width="70" height="24" rx="5" fill="#422006" stroke="#fcd34d"/><text x="393" y="733" text-anchor="middle">DiT-main</text>
  <rect x="438" y="716" width="70" height="24" rx="5" fill="#422006" stroke="#fcd34d"/><text x="473" y="733" text-anchor="middle">AR-main</text>
  <rect x="518" y="716" width="90" height="24" rx="5" fill="#422006" stroke="#fcd34d"/><text x="563" y="733" text-anchor="middle">CFG companion</text>
  <rect x="618" y="716" width="80" height="24" rx="5" fill="#422006" stroke="#fcd34d"/><text x="658" y="733" text-anchor="middle">Streaming</text>
  <rect x="708" y="716" width="80" height="24" rx="5" fill="#422006" stroke="#fcd34d"/><text x="748" y="733" text-anchor="middle">Any-to-any</text>
  <rect x="798" y="716" width="60" height="24" rx="5" fill="#422006" stroke="#fcd34d"/><text x="828" y="733" text-anchor="middle">TTS</text>
  <rect x="868" y="716" width="60" height="24" rx="5" fill="#422006" stroke="#fcd34d"/><text x="898" y="733" text-anchor="middle">T2I</text>
  <rect x="938" y="716" width="60" height="24" rx="5" fill="#422006" stroke="#fcd34d"/><text x="968" y="733" text-anchor="middle">T2V</text>
  <rect x="1008" y="716" width="60" height="24" rx="5" fill="#422006" stroke="#fcd34d"/><text x="1038" y="733" text-anchor="middle">I2I</text>
  <rect x="1078" y="716" width="70" height="24" rx="5" fill="#422006" stroke="#fcd34d"/><text x="1113" y="733" text-anchor="middle">S2S</text>
  <rect x="1158" y="716" width="80" height="24" rx="5" fill="#422006" stroke="#fcd34d"/><text x="1198" y="733" text-anchor="middle">Chunk xfer</text>
  <rect x="1248" y="716" width="80" height="24" rx="5" fill="#422006" stroke="#fcd34d"/><text x="1288" y="733" text-anchor="middle">CPU offload</text>
  <rect x="1338" y="716" width="90" height="24" rx="5" fill="#422006" stroke="#fcd34d"/><text x="1383" y="733" text-anchor="middle">cache-dit</text>
  <rect x="1438" y="716" width="80" height="24" rx="5" fill="#422006" stroke="#fcd34d"/><text x="1478" y="733" text-anchor="middle">MindIE-SD</text>
  <rect x="1528" y="716" width="90" height="24" rx="5" fill="#422006" stroke="#fcd34d"/><text x="1573" y="733" text-anchor="middle">prompt_expand</text>
  <rect x="1628" y="716" width="80" height="24" rx="5" fill="#422006" stroke="#fcd34d"/><text x="1668" y="733" text-anchor="middle">ReplicaInit</text>
  <rect x="1718" y="716" width="70" height="24" rx="5" fill="#422006" stroke="#fcd34d"/><text x="1753" y="733" text-anchor="middle">CosyVoice</text>
  <rect x="1798" y="716" width="50" height="24" rx="5" fill="#422006" stroke="#fcd34d"/><text x="1823" y="733" text-anchor="middle">VLM</text>
 </g>

 <!-- DETAIL Multi-Stage Lifecycle -->
 <rect x="60" y="764" width="880" height="340" rx="14" fill="#0c1524" stroke="#d946ef" stroke-width="2.5"/>
 <text x="88" y="796" fill="#d946ef" font-family="JetBrains Mono, monospace" font-size="17" font-weight="700">Multi-Stage Request Lifecycle</text>
 <text x="88" y="818" fill="#f0abfc" font-family="JetBrains Mono, monospace" font-size="11">Orchestrator owns logical progression - each stage runs in separate process pool</text>

 <rect x="88" y="834" width="820" height="36" rx="6" fill="#132f4c" stroke="#22d3ee"/>
 <text x="498" y="858" text-anchor="middle" fill="#e0f2fe" font-family="JetBrains Mono, monospace" font-size="11" font-weight="700">Step 1: AsyncOmni receives request - build OmniEngineCoreRequest + MM data</text>
 <line x1="498" y1="870" x2="498" y2="882" stroke="#22d3ee" stroke-width="1.5" marker-end="url(#arrow-cyan)"/>
 <rect x="88" y="884" width="820" height="36" rx="6" fill="#4a044e" stroke="#d946ef"/>
 <text x="498" y="908" text-anchor="middle" fill="#fae8ff" font-family="JetBrains Mono, monospace" font-size="11" font-weight="700">Step 2: Orchestrator places request in Stage 0 pool (e.g. Thinker AR stage)</text>
 <line x1="498" y1="920" x2="498" y2="932" stroke="#d946ef" stroke-width="1.5" marker-end="url(#arrow-fuchsia)"/>
 <rect x="88" y="934" width="820" height="36" rx="6" fill="#2e1065" stroke="#8b5cf6"/>
 <text x="498" y="958" text-anchor="middle" fill="#ede9fe" font-family="JetBrains Mono, monospace" font-size="11" font-weight="700">Step 3: StageEngineCoreClient executes AR forward - continuous batch + KV cache</text>
 <line x1="498" y1="970" x2="498" y2="982" stroke="#8b5cf6" stroke-width="1.5" marker-end="url(#arrow-fuchsia)"/>
 <rect x="88" y="984" width="820" height="36" rx="6" fill="#4a044e" stroke="#d946ef"/>
 <text x="498" y="1008" text-anchor="middle" fill="#fae8ff" font-family="JetBrains Mono, monospace" font-size="11" font-weight="700">Step 4: OmniConnector put() - transfer hidden states / KV to next stage via SHM or Mooncake</text>
 <line x1="498" y1="1020" x2="498" y2="1032" stroke="#d946ef" stroke-width="1.5" marker-end="url(#arrow-fuchsia)"/>
 <rect x="88" y="1034" width="820" height="36" rx="6" fill="#0c2d2d" stroke="#2dd4bf"/>
 <text x="498" y="1058" text-anchor="middle" fill="#ccfbf1" font-family="JetBrains Mono, monospace" font-size="11" font-weight="700">Step 5: Next stage (Talker AR / Code2Wav DiT) runs - stream text/audio output - repeat until done</text>

 <text x="88" y="1092" fill="#64748b" font-family="JetBrains Mono, monospace" font-size="10">Pipelined overlap: while Stage N executes, Stage N+1 can prepare next batch</text>
 <text x="88" y="1108" fill="#64748b" font-family="JetBrains Mono, monospace" font-size="10">stage-transfer functions transform query state at each graph edge</text>

 <!-- DETAIL Model Patterns + CFG -->
 <rect x="960" y="764" width="900" height="340" rx="14" fill="#0c1a24" stroke="#2dd4bf" stroke-width="2.5"/>
 <text x="988" y="796" fill="#2dd4bf" font-family="JetBrains Mono, monospace" font-size="17" font-weight="700">Model Patterns &amp; CFG Companion Flow</text>
 <text x="988" y="818" fill="#99f6e4" font-family="JetBrains Mono, monospace" font-size="11">Three representative omni-modality architectures supported by stage graph</text>

 <text x="988" y="842" fill="#94a3b8" font-family="JetBrains Mono, monospace" font-size="11" font-weight="700">Three Model Patterns</text>
 <rect x="988" y="852" width="270" height="68" rx="6" fill="#431407" stroke="#f97316"/>
 <text x="1123" y="876" text-anchor="middle" fill="#ffedd5" font-family="JetBrains Mono, monospace" font-size="11" font-weight="700">AR-Main (Qwen3-Omni)</text>
 <text x="1123" y="894" text-anchor="middle" fill="#fed7aa" font-family="JetBrains Mono, monospace" font-size="9">Thinker - Talker - Code2Wav</text>
 <text x="1123" y="910" text-anchor="middle" fill="#fed7aa" font-family="JetBrains Mono, monospace" font-size="9">S2S / multimodal in-out</text>
 <rect x="1270" y="852" width="270" height="68" rx="6" fill="#0c2d2d" stroke="#2dd4bf"/>
 <text x="1405" y="876" text-anchor="middle" fill="#ccfbf1" font-family="JetBrains Mono, monospace" font-size="11" font-weight="700">DiT-Main (Qwen-Image)</text>
 <text x="1405" y="894" text-anchor="middle" fill="#99f6e4" font-family="JetBrains Mono, monospace" font-size="9">Text Encoder - DiT - VAE</text>
 <text x="1405" y="910" text-anchor="middle" fill="#99f6e4" font-family="JetBrains Mono, monospace" font-size="9">T2I / I2I / image editing</text>
 <rect x="1552" y="852" width="296" height="68" rx="6" fill="#2e1065" stroke="#8b5cf6"/>
 <text x="1700" y="876" text-anchor="middle" fill="#ede9fe" font-family="JetBrains Mono, monospace" font-size="11" font-weight="700">AR + DiT (BAGEL / GLM-Image)</text>
 <text x="1700" y="894" text-anchor="middle" fill="#c4b5fd" font-family="JetBrains Mono, monospace" font-size="9">LLM generates prompt/layout</text>
 <text x="1700" y="910" text-anchor="middle" fill="#c4b5fd" font-family="JetBrains Mono, monospace" font-size="9">DiT generates visual content</text>

 <text x="988" y="942" fill="#94a3b8" font-family="JetBrains Mono, monospace" font-size="11" font-weight="700">CFG Companion Request (Cross-Stage)</text>
 <rect x="988" y="952" width="420" height="48" rx="6" fill="#422006" stroke="#fcd34d"/>
 <text x="1198" y="972" text-anchor="middle" fill="#fef3c7" font-family="JetBrains Mono, monospace" font-size="10" font-weight="700">prompt_expand_func pairs positive + negative (cfg_text) prompts</text>
 <text x="1198" y="988" text-anchor="middle" fill="#fde68a" font-family="JetBrains Mono, monospace" font-size="9">OmniConnector passes pos/neg KV caches across stage boundaries</text>
 <rect x="1420" y="952" width="428" height="48" rx="6" fill="#422006" stroke="#fcd34d"/>
 <text x="1634" y="972" text-anchor="middle" fill="#fef3c7" font-family="JetBrains Mono, monospace" font-size="10" font-weight="700">cfg_kv_collect_func injects companion KV into DiT for parallel CFG</text>
 <text x="1634" y="988" text-anchor="middle" fill="#fde68a" font-family="JetBrains Mono, monospace" font-size="9">Eliminates redundant text/multimodal context recomputation</text>

 <text x="988" y="1024" fill="#94a3b8" font-family="JetBrains Mono, monospace" font-size="11" font-weight="700">Extends vLLM Core</text>
 <rect x="988" y="1034" width="120" height="36" rx="6" fill="#134e4a" stroke="#5eead4"/><text x="1048" y="1058" text-anchor="middle" fill="#ccfbf1" font-family="JetBrains Mono, monospace" font-size="10">vLLM V1 Engine</text>
 <rect x="1120" y="1034" width="100" height="36" rx="6" fill="#134e4a" stroke="#5eead4"/><text x="1170" y="1058" text-anchor="middle" fill="#ccfbf1" font-family="JetBrains Mono, monospace" font-size="10">KV Transfer</text>
 <rect x="1232" y="1034" width="100" height="36" rx="6" fill="#134e4a" stroke="#5eead4"/><text x="1282" y="1058" text-anchor="middle" fill="#ccfbf1" font-family="JetBrains Mono, monospace" font-size="10">EC Transfer</text>
 <rect x="1344" y="1034" width="110" height="36" rx="6" fill="#134e4a" stroke="#5eead4"/><text x="1399" y="1058" text-anchor="middle" fill="#ccfbf1" font-family="JetBrains Mono, monospace" font-size="10">Unified API</text>
 <rect x="1466" y="1034" width="80" height="36" rx="6" fill="#134e4a" stroke="#5eead4"/><text x="1506" y="1058" text-anchor="middle" fill="#ccfbf1" font-family="JetBrains Mono, monospace" font-size="10">CUDA</text>
 <rect x="1558" y="1034" width="70" height="36" rx="6" fill="#134e4a" stroke="#5eead4"/><text x="1593" y="1058" text-anchor="middle" fill="#ccfbf1" font-family="JetBrains Mono, monospace" font-size="10">ROCm</text>
 <rect x="1640" y="1034" width="50" height="36" rx="6" fill="#134e4a" stroke="#5eead4"/><text x="1665" y="1058" text-anchor="middle" fill="#ccfbf1" font-family="JetBrains Mono, monospace" font-size="10">XPU</text>
 <rect x="1702" y="1034" width="50" height="36" rx="6" fill="#134e4a" stroke="#5eead4"/><text x="1727" y="1058" text-anchor="middle" fill="#ccfbf1" font-family="JetBrains Mono, monospace" font-size="10">NPU</text>
 <rect x="1764" y="1034" width="84" height="36" rx="6" fill="#134e4a" stroke="#5eead4"/><text x="1806" y="1058" text-anchor="middle" fill="#ccfbf1" font-family="JetBrains Mono, monospace" font-size="10">Mooncake</text>

 <text x="988" y="1092" fill="#64748b" font-family="JetBrains Mono, monospace" font-size="10">If you know vLLM, you know vLLM-Omni from Day 0 - same CLI with --omni flag</text>
 <text x="988" y="1108" fill="#64748b" font-family="JetBrains Mono, monospace" font-size="10">Fully disaggregated: each stage independently resource-allocated and horizontally scaled</text>

 <!-- L6 Production -->
 <rect x="60" y="1124" width="1800" height="72" rx="12" fill="#1a1208" stroke="#d946ef" stroke-width="2"/>
 <text x="88" y="1152" fill="#d946ef" font-family="JetBrains Mono, monospace" font-size="16" font-weight="700">L6 - Production &amp; Scale</text>
 <text x="960" y="1178" text-anchor="middle" fill="#f0abfc" font-family="JetBrains Mono, monospace" font-size="13">vllm-project/vllm-omni - CUDA/ROCm/XPU/NPU - Ray execution - OpenAI-compatible - streaming multimodal outputs</text>

 <!-- footers -->
 <rect x="60" y="1216" width="1800" height="52" rx="8" fill="#111827" stroke="#475569"/>
 <text x="960" y="1236" text-anchor="middle" fill="#94a3b8" font-family="JetBrains Mono, monospace" font-size="11">Init path: load stage_config YAML - spawn Orchestrator - init per-stage AR/DiT engine pools - wire OmniConnectors</text>
 <text x="960" y="1254" text-anchor="middle" fill="#64748b" font-family="JetBrains Mono, monospace" font-size="10">Step path: route request through stage graph - connector xfer - pipelined overlap - stream MM outputs</text>

 <text x="60" y="1300" fill="#64748b" font-family="JetBrains Mono, monospace" font-size="10">Sources: vllm-project/vllm-omni - docs.vllm.ai/projects/vllm-omni - arXiv:2602.02204 - architecture_overview.md</text>
</svg>
